<svg xmlns="http://www.w3.org/2000/svg" xmlns:v="https://svgstorm.com"
viewBox = "0 0 400 397"
width="400"
height="397">
<g fill="None" fill-opacity="0.0" stroke="#000000" stroke-opacity="0.00" stroke-width="0.3"><path d="
M 0.00 397.00 
L 400.00 397.00
L 400.00 0.00
L 0.00 0.00
L 0.00 397.00
M 140.00 86.00 
C 140.16 86.23 141.00 86.00 141.00 86.00
C 144.76 86.38 150.15 93.57 153.74 96.26 C 157.34 98.94 162.50 104.95 165.00 109.00
C 165.20 109.32 165.66 109.85 166.00 110.00
C 172.93 113.04 174.57 123.11 179.90 129.10 C 185.24 135.08 187.22 146.03 188.00 155.00 C 188.78 163.98 185.66 177.05 187.00 187.00 C 188.34 196.95 188.74 207.50 184.00 216.00
C 182.96 219.39 181.69 220.18 180.00 223.00
C 167.07 244.54 158.51 270.64 171.00 295.00
C 183.77 300.76 196.75 307.32 211.07 301.07 C 225.39 294.83 228.68 280.33 228.00 265.00
C 227.39 262.84 227.67 260.10 227.00 258.00
C 221.92 250.89 218.77 241.24 215.25 232.75 C 211.73 224.27 207.21 215.51 203.23 206.77 C 199.25 198.03 197.65 186.28 195.03 176.97 C 192.40 167.67 199.76 155.04 202.25 146.25 C 204.74 137.47 209.99 128.95 214.97 120.97 C 219.96 113.00 224.72 105.75 231.30 99.30 C 237.87 92.84 245.19 87.46 252.22 82.22 C 259.25 76.98 267.27 71.00 275.03 67.03 C 282.78 63.05 289.30 55.59 298.08 52.08 C 306.86 48.57 314.07 42.17 322.29 38.29 C 330.52 34.42 339.93 29.57 347.89 25.89 C 355.86 22.22 370.93 17.77 377.90 26.10 C 384.88 34.42 385.95 43.72 386.00 55.00 C 386.05 66.28 387.33 79.49 386.00 91.00 C 384.67 102.51 380.29 111.93 381.00 124.00 C 381.71 136.07 379.34 146.51 380.00 159.00 C 380.66 171.49 379.74 183.87 381.00 196.00 C 382.26 208.13 379.57 222.20 381.00 234.00 C 382.43 245.80 378.00 260.42 381.98 271.02 C 385.96 281.63 388.17 292.45 387.00 304.00 C 385.83 315.55 388.06 329.25 384.08 339.08 C 380.09 348.90 368.06 349.37 358.99 351.99 C 349.92 354.61 331.29 354.27 331.07 341.93 C 330.85 329.58 331.19 316.42 331.00 304.00 C 330.81 291.58 331.39 278.33 331.00 266.00 C 330.61 253.67 329.84 242.49 330.00 230.00 C 330.16 217.51 330.23 204.43 330.00 192.00 C 329.77 179.57 330.78 166.22 330.00 154.00 C 329.22 141.78 331.85 127.70 330.00 116.00 C 328.15 104.30 310.07 113.18 302.75 116.75 C 295.44 120.33 286.98 126.30 280.08 132.08 C 273.18 137.87 268.52 145.10 264.22 154.22 C 259.93 163.35 257.38 175.60 260.97 185.03 C 264.55 194.47 265.68 205.13 270.78 213.22 C 275.87 221.32 278.04 231.55 281.32 240.68 C 284.60 249.80 286.90 259.96 287.78 270.22 C 288.66 280.49 288.41 295.35 284.08 304.08 C 279.75 312.81 275.92 320.63 270.08 328.08 C 264.25 335.53 256.28 338.48 248.78 343.78 C 241.28 349.07 228.45 351.14 219.00 352.00 C 209.55 352.86 194.34 357.88 184.33 354.67 C 174.32 351.46 163.43 351.13 154.26 346.74 C 145.08 342.36 138.50 340.80 130.92 334.08 C 123.34 327.37 116.74 323.26 112.30 314.70 C 107.85 306.15 105.33 294.45 105.00 284.00 C 104.67 273.55 104.23 257.35 106.33 247.33 C 108.43 237.31 111.42 227.83 115.92 218.92 C 120.41 210.00 124.83 201.55 127.93 192.93 C 131.02 184.30 136.32 170.57 131.07 161.93 C 125.83 153.28 121.77 146.27 115.08 139.92 C 108.40 133.56 98.75 128.72 90.00 127.00
C 86.05 120.80 74.28 119.32 67.00 116.00
C 60.51 118.96 62.18 125.16 62.00 132.00 C 61.82 138.84 62.36 147.00 62.00 154.00 C 61.64 161.00 62.34 167.39 62.00 174.00 C 61.65 180.61 60.66 186.92 61.00 194.00 C 61.34 201.08 61.06 208.81 61.00 216.00 C 60.94 223.19 61.90 229.86 62.00 237.00 C 62.10 244.14 61.91 250.81 62.00 258.00 C 62.09 265.19 61.85 272.76 62.00 280.00 C 62.15 287.24 61.70 294.77 62.00 302.00 C 62.30 309.23 61.00 311.27 61.02 318.02 C 61.05 324.78 60.18 332.84 61.00 340.00 C 61.82 347.16 57.76 351.44 54.00 355.00
C 39.37 353.27 8.28 361.87 7.02 340.98 C 5.77 320.08 7.40 299.76 7.00 279.00 C 6.60 258.24 6.85 237.69 7.00 217.00 C 7.15 196.31 6.20 175.64 7.00 155.00 C 7.80 134.36 4.13 117.06 3.00 97.00 C 1.87 76.94 3.85 55.21 3.00 35.00
C 18.55 22.81 36.69 32.66 52.22 37.78 C 67.75 42.90 85.04 50.87 99.22 58.78 C 113.41 66.68 127.46 74.24 140.00 86.00 Z"/>
</g>
<g fill="None" fill-opacity="0.0" stroke="#625044" stroke-opacity="0.98" stroke-width="0.3"><path d="
M 227.00 258.00 
C 228.02 259.43 231.70 265.39 230.00 270.00
C 227.80 269.26 230.31 265.67 228.00 265.00
C 228.68 280.33 225.39 294.83 211.07 301.07 C 196.75 307.32 183.77 300.76 171.00 295.00
C 158.51 270.64 167.07 244.54 180.00 223.00
C 179.03 223.68 176.89 223.83 176.00 225.00
C 180.55 216.93 186.48 209.47 184.00 199.00
C 186.37 203.63 184.61 212.27 184.00 216.00
C 188.74 207.50 188.34 196.95 187.00 187.00 C 185.66 177.05 188.78 163.98 188.00 155.00 C 187.22 146.03 185.24 135.08 179.90 129.10 C 174.57 123.11 172.93 113.04 166.00 110.00
C 167.28 111.40 167.73 112.92 167.00 115.00
C 165.20 112.21 161.80 109.94 160.00 107.00
C 162.14 106.48 162.81 109.57 165.00 109.00
C 162.50 104.95 157.34 98.94 153.74 96.26 C 150.15 93.57 144.76 86.38 141.00 86.00
C 141.64 87.95 142.72 89.33 144.00 91.00
C 142.12 91.18 136.04 86.11 140.00 86.00
C 127.46 74.24 113.41 66.68 99.22 58.78 C 85.04 50.87 67.75 42.90 52.22 37.78 C 36.69 32.66 18.55 22.81 3.00 35.00
C 3.85 55.21 1.87 76.94 3.00 97.00 C 4.13 117.06 7.80 134.36 7.00 155.00 C 6.20 175.64 7.15 196.31 7.00 217.00 C 6.85 237.69 6.60 258.24 7.00 279.00 C 7.40 299.76 5.77 320.08 7.02 340.98 C 8.28 361.87 39.37 353.27 54.00 355.00
C 57.76 351.44 61.82 347.16 61.00 340.00 C 60.18 332.84 61.05 324.78 61.02 318.02 C 61.00 311.27 62.30 309.23 62.00 302.00 C 61.70 294.77 62.15 287.24 62.00 280.00 C 61.85 272.76 62.09 265.19 62.00 258.00 C 61.91 250.81 62.10 244.14 62.00 237.00 C 61.90 229.86 60.94 223.19 61.00 216.00 C 61.06 208.81 61.34 201.08 61.00 194.00 C 60.66 186.92 61.65 180.61 62.00 174.00 C 62.34 167.39 61.64 161.00 62.00 154.00 C 62.36 147.00 61.82 138.84 62.00 132.00 C 62.18 125.16 60.51 118.96 67.00 116.00
C 74.28 119.32 86.05 120.80 90.00 127.00
C 98.75 128.72 108.40 133.56 115.08 139.92 C 121.77 146.27 125.83 153.28 131.07 161.93 C 136.32 170.57 131.02 184.30 127.93 192.93 C 124.83 201.55 120.41 210.00 115.92 218.92 C 111.42 227.83 108.43 237.31 106.33 247.33 C 104.23 257.35 104.67 273.55 105.00 284.00 C 105.33 294.45 107.85 306.15 112.30 314.70 C 116.74 323.26 123.34 327.37 130.92 334.08 C 138.50 340.80 145.08 342.36 154.26 346.74 C 163.43 351.13 174.32 351.46 184.33 354.67 C 194.34 357.88 209.55 352.86 219.00 352.00 C 228.45 351.14 241.28 349.07 248.78 343.78 C 256.28 338.48 264.25 335.53 270.08 328.08 C 275.92 320.63 279.75 312.81 284.08 304.08 C 288.41 295.35 288.66 280.49 287.78 270.22 C 286.90 259.96 284.60 249.80 281.32 240.68 C 278.04 231.55 275.87 221.32 270.78 213.22 C 265.68 205.13 264.55 194.47 260.97 185.03 C 257.38 175.60 259.93 163.35 264.22 154.22 C 268.52 145.10 273.18 137.87 280.08 132.08 C 286.98 126.30 295.44 120.33 302.75 116.75 C 310.07 113.18 328.15 104.30 330.00 116.00 C 331.85 127.70 329.22 141.78 330.00 154.00 C 330.78 166.22 329.77 179.57 330.00 192.00 C 330.23 204.43 330.16 217.51 330.00 230.00 C 329.84 242.49 330.61 253.67 331.00 266.00 C 331.39 278.33 330.81 291.58 331.00 304.00 C 331.19 316.42 330.85 329.58 331.07 341.93 C 331.29 354.27 349.92 354.61 358.99 351.99 C 368.06 349.37 380.09 348.90 384.08 339.08 C 388.06 329.25 385.83 315.55 387.00 304.00 C 388.17 292.45 385.96 281.63 381.98 271.02 C 378.00 260.42 382.43 245.80 381.00 234.00 C 379.57 222.20 382.26 208.13 381.00 196.00 C 379.74 183.87 380.66 171.49 380.00 159.00 C 379.34 146.51 381.71 136.07 381.00 124.00 C 380.29 111.93 384.67 102.51 386.00 91.00 C 387.33 79.49 386.05 66.28 386.00 55.00 C 385.95 43.72 384.88 34.42 377.90 26.10 C 370.93 17.77 355.86 22.22 347.89 25.89 C 339.93 29.57 330.52 34.42 322.29 38.29 C 314.07 42.17 306.86 48.57 298.08 52.08 C 289.30 55.59 282.78 63.05 275.03 67.03 C 267.27 71.00 259.25 76.98 252.22 82.22 C 245.19 87.46 237.87 92.84 231.30 99.30 C 224.72 105.75 219.96 113.00 214.97 120.97 C 209.99 128.95 204.74 137.47 202.25 146.25 C 199.76 155.04 192.40 167.67 195.03 176.97 C 197.65 186.28 199.25 198.03 203.23 206.77 C 207.21 215.51 211.73 224.27 215.25 232.75 C 218.77 241.24 221.92 250.89 227.00 258.00
M 373.00 36.00 
C 365.03 29.63 355.04 35.31 347.00 38.00
C 352.97 32.99 367.81 28.04 373.00 36.00
M 6.00 38.00 
C 6.00 49.67 6.00 61.33 6.00 73.00
C 4.34 62.41 4.33 48.52 6.00 38.00
M 374.00 38.00 
C 374.00 41.00 374.00 44.00 374.00 47.00
C 372.48 45.04 372.28 39.89 374.00 38.00
M 319.00 52.00 
C 316.36 53.53 312.95 54.75 310.00 56.00
C 311.61 52.63 315.62 52.03 319.00 52.00
M 373.00 52.00 
C 373.00 88.00 373.00 124.00 373.00 160.00
C 371.33 125.07 371.33 86.86 373.00 52.00
M 309.00 56.00 
C 302.78 60.10 295.91 65.02 288.00 65.00
C 295.13 63.27 301.70 57.91 309.00 56.00
M 159.00 106.00 
C 154.61 102.59 151.71 98.60 148.00 95.00
C 153.36 96.29 156.75 101.01 159.00 106.00
M 320.00 99.00 
C 317.26 100.91 313.88 102.77 310.00 102.00
C 313.12 101.20 316.33 98.87 320.00 99.00
M 69.00 106.00 
C 64.20 105.52 57.54 105.86 54.00 111.00
C 55.10 104.34 64.40 103.54 69.00 106.00
M 97.00 117.00 
C 92.57 115.71 87.44 114.22 84.00 111.00
C 88.43 112.29 93.56 113.78 97.00 117.00
M 15.00 117.00 
C 15.00 121.67 15.00 126.33 15.00 131.00
C 13.41 127.40 13.29 120.53 15.00 117.00
M 53.00 118.00 
C 53.00 179.33 53.00 240.67 53.00 302.00
C 51.33 241.73 51.33 178.19 53.00 118.00
M 136.00 150.00 
C 127.59 140.00 117.17 129.62 106.00 122.00
C 118.40 127.74 129.11 138.04 136.00 150.00
M 16.00 139.00 
C 16.00 182.00 16.00 225.00 16.00 268.00
C 14.33 226.07 14.33 180.86 16.00 139.00
M 185.00 144.00 
C 186.29 152.37 182.03 150.06 185.00 144.00
M 203.00 159.00 
C 204.29 167.37 200.03 165.06 203.00 159.00
M 252.00 163.00 
C 252.62 166.58 250.38 169.40 251.00 173.00
C 248.76 170.45 250.60 165.40 252.00 163.00
M 143.00 166.00 
C 143.00 170.67 143.00 175.33 143.00 180.00
C 141.41 176.40 141.29 169.53 143.00 166.00
M 134.00 206.00 
C 133.77 208.92 130.25 210.68 131.00 214.00
C 128.51 211.73 131.36 207.19 134.00 206.00
M 372.00 212.00 
C 372.00 225.67 372.00 239.33 372.00 253.00
C 370.34 240.41 370.33 224.52 372.00 212.00
M 268.00 234.00 
C 265.48 229.52 264.09 223.94 262.00 219.00
C 265.59 221.78 267.38 228.86 268.00 234.00
M 341.00 221.00 
C 341.00 260.33 341.00 299.67 341.00 339.00
C 344.19 340.17 346.55 341.18 350.00 340.00
C 347.42 343.77 343.24 340.84 340.00 340.00
C 340.67 300.50 338.67 259.68 341.00 221.00
M 227.00 240.00 
C 227.19 244.02 228.60 247.77 228.00 252.00
C 227.15 248.79 224.98 243.08 227.00 240.00
M 156.00 254.00 
C 155.44 256.52 157.19 260.30 155.00 262.00
C 155.56 259.48 153.81 255.70 156.00 254.00
M 373.00 257.00 
C 373.00 260.67 373.00 264.33 373.00 268.00
C 371.44 265.39 371.28 259.54 373.00 257.00
M 114.00 269.00 
C 114.00 272.00 114.00 275.00 114.00 278.00
C 112.48 276.04 112.28 270.89 114.00 269.00
M 278.00 269.00 
C 278.00 275.33 278.00 281.67 278.00 288.00
C 276.37 282.74 276.31 274.19 278.00 269.00
M 156.00 274.00 
C 157.29 282.37 153.03 280.06 156.00 274.00
M 374.00 275.00 
C 374.00 279.33 374.00 283.67 374.00 288.00
C 372.42 284.73 372.29 278.20 374.00 275.00
M 376.00 302.00 
C 375.44 304.52 377.19 308.30 375.00 310.00
C 375.56 307.48 373.81 303.70 376.00 302.00
M 153.00 334.00 
C 141.61 330.47 128.37 322.61 124.00 311.00
C 130.82 321.64 142.45 328.24 153.00 334.00
M 204.00 311.00 
C 199.91 313.24 193.84 311.40 189.00 312.00
C 193.09 309.76 199.16 311.60 204.00 311.00
M 377.00 317.00 
C 375.77 323.21 379.53 333.20 375.00 337.00
C 374.36 340.95 368.00 338.15 365.00 339.00
C 366.87 336.03 373.72 340.51 374.00 336.00
C 379.11 332.71 373.50 321.88 377.00 317.00
M 52.00 329.00 
C 52.00 333.00 52.00 337.00 52.00 341.00
C 50.43 338.06 50.29 331.87 52.00 329.00
M 235.00 338.00 
C 232.81 339.36 228.11 341.51 226.00 340.00
C 228.85 338.83 231.82 338.00 235.00 338.00
M 363.00 339.00 
C 359.91 341.19 354.84 339.43 351.00 340.00
C 354.09 337.81 359.16 339.57 363.00 339.00
M 188.00 342.00 
C 185.90 344.08 181.85 342.50 179.00 343.00
C 181.10 340.92 185.15 342.50 188.00 342.00
M 219.00 342.00 
C 217.23 344.03 213.52 342.53 211.00 343.00
C 212.77 340.97 216.48 342.47 219.00 342.00
M 205.00 344.00 
C 200.95 345.72 194.38 345.54 190.00 344.00
C 193.80 343.17 200.13 344.56 205.00 344.00 Z"/>
</g>
<g fill="None" fill-opacity="0.0" stroke="#635144" stroke-opacity="0.84" stroke-width="0.3"><path d="
M 373.00 36.00 
C 367.81 28.04 352.97 32.99 347.00 38.00
C 355.04 35.31 365.03 29.63 373.00 36.00 Z"/>
</g>
<g fill="None" fill-opacity="0.0" stroke="#635044" stroke-opacity="0.83" stroke-width="0.3"><path d="
M 6.00 38.00 
C 4.33 48.52 4.34 62.41 6.00 73.00
C 6.00 61.33 6.00 49.67 6.00 38.00 Z"/>
</g>
<g fill="None" fill-opacity="0.0" stroke="#635144" stroke-opacity="0.83" stroke-width="0.3"><path d="
M 374.00 38.00 
C 372.28 39.89 372.48 45.04 374.00 47.00
C 374.00 44.00 374.00 41.00 374.00 38.00 Z"/>
</g>
<g fill="None" fill-opacity="0.0" stroke="#635145" stroke-opacity="0.84" stroke-width="0.3"><path d="
M 319.00 52.00 
C 315.62 52.03 311.61 52.63 310.00 56.00
C 312.95 54.75 316.36 53.53 319.00 52.00 Z"/>
</g>
<g fill="None" fill-opacity="0.0" stroke="#635044" stroke-opacity="0.77" stroke-width="0.3"><path d="
M 373.00 52.00 
C 371.33 86.86 371.33 125.07 373.00 160.00
C 373.00 124.00 373.00 88.00 373.00 52.00 Z"/>
</g>
<g fill="None" fill-opacity="0.0" stroke="#625144" stroke-opacity="0.85" stroke-width="0.3"><path d="
M 309.00 56.00 
C 301.70 57.91 295.13 63.27 288.00 65.00
C 295.91 65.02 302.78 60.10 309.00 56.00 Z"/>
</g>
<g fill="None" fill-opacity="0.0" stroke="#625045" stroke-opacity="0.84" stroke-width="0.3"><path d="
M 141.00 86.00 
C 141.00 86.00 140.16 86.23 140.00 86.00
C 136.04 86.11 142.12 91.18 144.00 91.00
C 142.72 89.33 141.64 87.95 141.00 86.00 Z"/>
</g>
<g fill="None" fill-opacity="0.0" stroke="#635144" stroke-opacity="0.85" stroke-width="0.3"><path d="
M 159.00 106.00 
C 156.75 101.01 153.36 96.29 148.00 95.00
C 151.71 98.60 154.61 102.59 159.00 106.00 Z"/>
</g>
<g fill="None" fill-opacity="0.0" stroke="#635145" stroke-opacity="0.83" stroke-width="0.3"><path d="
M 320.00 99.00 
C 316.33 98.87 313.12 101.20 310.00 102.00
C 313.88 102.77 317.26 100.91 320.00 99.00 Z"/>
</g>
<g fill="None" fill-opacity="0.0" stroke="#625045" stroke-opacity="0.84" stroke-width="0.3"><path d="
M 69.00 106.00 
C 64.40 103.54 55.10 104.34 54.00 111.00
C 57.54 105.86 64.20 105.52 69.00 106.00 Z"/>
</g>
<g fill="None" fill-opacity="0.0" stroke="#635044" stroke-opacity="0.84" stroke-width="0.3"><path d="
M 166.00 110.00 
C 165.66 109.85 165.20 109.32 165.00 109.00
C 162.81 109.57 162.14 106.48 160.00 107.00
C 161.80 109.94 165.20 112.21 167.00 115.00
C 167.73 112.92 167.28 111.40 166.00 110.00 Z"/>
</g>
<g fill="None" fill-opacity="0.0" stroke="#635144" stroke-opacity="0.83" stroke-width="0.3"><path d="
M 97.00 117.00 
C 93.56 113.78 88.43 112.29 84.00 111.00
C 87.44 114.22 92.57 115.71 97.00 117.00 Z"/>
</g>
<g fill="None" fill-opacity="0.0" stroke="#625045" stroke-opacity="0.80" stroke-width="0.3"><path d="
M 15.00 117.00 
C 13.29 120.53 13.41 127.40 15.00 131.00
C 15.00 126.33 15.00 121.67 15.00 117.00 Z"/>
</g>
<g fill="None" fill-opacity="0.0" stroke="#635045" stroke-opacity="0.79" stroke-width="0.3"><path d="
M 53.00 118.00 
C 51.33 178.19 51.33 241.73 53.00 302.00
C 53.00 240.67 53.00 179.33 53.00 118.00 Z"/>
</g>
<g fill="None" fill-opacity="0.0" stroke="#625144" stroke-opacity="0.89" stroke-width="0.3"><path d="
M 136.00 150.00 
C 129.11 138.04 118.40 127.74 106.00 122.00
C 117.17 129.62 127.59 140.00 136.00 150.00 Z"/>
</g>
<g fill="None" fill-opacity="0.0" stroke="#635045" stroke-opacity="0.77" stroke-width="0.3"><path d="
M 16.00 139.00 
C 14.33 180.86 14.33 226.07 16.00 268.00
C 16.00 225.00 16.00 182.00 16.00 139.00 Z"/>
</g>
<g fill="None" fill-opacity="0.0" stroke="#635144" stroke-opacity="0.79" stroke-width="0.3"><path d="
M 185.00 144.00 
C 182.03 150.06 186.29 152.37 185.00 144.00 Z"/>
</g>
<g fill="None" fill-opacity="0.0" stroke="#625144" stroke-opacity="0.81" stroke-width="0.3"><path d="
M 203.00 159.00 
C 200.03 165.06 204.29 167.37 203.00 159.00 Z"/>
</g>
<g fill="None" fill-opacity="0.0" stroke="#635145" stroke-opacity="0.83" stroke-width="0.3"><path d="
M 252.00 163.00 
C 250.60 165.40 248.76 170.45 251.00 173.00
C 250.38 169.40 252.62 166.58 252.00 163.00 Z"/>
</g>
<g fill="None" fill-opacity="0.0" stroke="#635144" stroke-opacity="0.77" stroke-width="0.3"><path d="
M 143.00 166.00 
C 141.29 169.53 141.41 176.40 143.00 180.00
C 143.00 175.33 143.00 170.67 143.00 166.00 Z"/>
</g>
<g fill="None" fill-opacity="0.0" stroke="#635044" stroke-opacity="0.82" stroke-width="0.3"><path d="
M 180.00 223.00 
C 181.69 220.18 182.96 219.39 184.00 216.00
C 184.61 212.27 186.37 203.63 184.00 199.00
C 186.48 209.47 180.55 216.93 176.00 225.00
C 176.89 223.83 179.03 223.68 180.00 223.00 Z"/>
</g>
<g fill="None" fill-opacity="0.0" stroke="#635145" stroke-opacity="0.84" stroke-width="0.3"><path d="
M 134.00 206.00 
C 131.36 207.19 128.51 211.73 131.00 214.00
C 130.25 210.68 133.77 208.92 134.00 206.00 Z"/>
</g>
<g fill="None" fill-opacity="0.0" stroke="#625145" stroke-opacity="0.85" stroke-width="0.3"><path d="
M 372.00 212.00 
C 370.33 224.52 370.34 240.41 372.00 253.00
C 372.00 239.33 372.00 225.67 372.00 212.00 Z"/>
</g>
<g fill="None" fill-opacity="0.0" stroke="#635144" stroke-opacity="0.86" stroke-width="0.3"><path d="
M 268.00 234.00 
C 267.38 228.86 265.59 221.78 262.00 219.00
C 264.09 223.94 265.48 229.52 268.00 234.00 Z"/>
</g>
<g fill="None" fill-opacity="0.0" stroke="#625045" stroke-opacity="0.79" stroke-width="0.3"><path d="
M 341.00 221.00 
C 338.67 259.68 340.67 300.50 340.00 340.00
C 343.24 340.84 347.42 343.77 350.00 340.00
C 346.55 341.18 344.19 340.17 341.00 339.00
C 341.00 299.67 341.00 260.33 341.00 221.00 Z"/>
</g>
<g fill="None" fill-opacity="0.0" stroke="#625145" stroke-opacity="0.81" stroke-width="0.3"><path d="
M 227.00 240.00 
C 224.98 243.08 227.15 248.79 228.00 252.00
C 228.60 247.77 227.19 244.02 227.00 240.00 Z"/>
</g>
<g fill="None" fill-opacity="0.0" stroke="#635145" stroke-opacity="0.79" stroke-width="0.3"><path d="
M 156.00 254.00 
C 153.81 255.70 155.56 259.48 155.00 262.00
C 157.19 260.30 155.44 256.52 156.00 254.00 Z"/>
</g>
<g fill="None" fill-opacity="0.0" stroke="#625144" stroke-opacity="0.77" stroke-width="0.3"><path d="
M 227.00 258.00 
C 227.67 260.10 227.39 262.84 228.00 265.00
C 230.31 265.67 227.80 269.26 230.00 270.00
C 231.70 265.39 228.02 259.43 227.00 258.00 Z"/>
</g>
<g fill="None" fill-opacity="0.0" stroke="#635045" stroke-opacity="0.79" stroke-width="0.3"><path d="
M 373.00 257.00 
C 371.28 259.54 371.44 265.39 373.00 268.00
C 373.00 264.33 373.00 260.67 373.00 257.00 Z"/>
</g>
<g fill="None" fill-opacity="0.0" stroke="#635045" stroke-opacity="0.82" stroke-width="0.3"><path d="
M 114.00 269.00 
C 112.28 270.89 112.48 276.04 114.00 278.00
C 114.00 275.00 114.00 272.00 114.00 269.00 Z"/>
</g>
<g fill="None" fill-opacity="0.0" stroke="#635145" stroke-opacity="0.78" stroke-width="0.3"><path d="
M 278.00 269.00 
C 276.31 274.19 276.37 282.74 278.00 288.00
C 278.00 281.67 278.00 275.33 278.00 269.00 Z"/>
</g>
<g fill="None" fill-opacity="0.0" stroke="#635145" stroke-opacity="0.78" stroke-width="0.3"><path d="
M 156.00 274.00 
C 153.03 280.06 157.29 282.37 156.00 274.00 Z"/>
</g>
<g fill="None" fill-opacity="0.0" stroke="#635144" stroke-opacity="0.78" stroke-width="0.3"><path d="
M 374.00 275.00 
C 372.29 278.20 372.42 284.73 374.00 288.00
C 374.00 283.67 374.00 279.33 374.00 275.00 Z"/>
</g>
<g fill="None" fill-opacity="0.0" stroke="#635144" stroke-opacity="0.79" stroke-width="0.3"><path d="
M 376.00 302.00 
C 373.81 303.70 375.56 307.48 375.00 310.00
C 377.19 308.30 375.44 304.52 376.00 302.00 Z"/>
</g>
<g fill="None" fill-opacity="0.0" stroke="#625144" stroke-opacity="0.88" stroke-width="0.3"><path d="
M 153.00 334.00 
C 142.45 328.24 130.82 321.64 124.00 311.00
C 128.37 322.61 141.61 330.47 153.00 334.00 Z"/>
</g>
<g fill="None" fill-opacity="0.0" stroke="#625145" stroke-opacity="0.82" stroke-width="0.3"><path d="
M 204.00 311.00 
C 199.16 311.60 193.09 309.76 189.00 312.00
C 193.84 311.40 199.91 313.24 204.00 311.00 Z"/>
</g>
<g fill="None" fill-opacity="0.0" stroke="#635044" stroke-opacity="0.79" stroke-width="0.3"><path d="
M 377.00 317.00 
C 373.50 321.88 379.11 332.71 374.00 336.00
C 373.72 340.51 366.87 336.03 365.00 339.00
C 368.00 338.15 374.36 340.95 375.00 337.00
C 379.53 333.20 375.77 323.21 377.00 317.00 Z"/>
</g>
<g fill="None" fill-opacity="0.0" stroke="#635145" stroke-opacity="0.80" stroke-width="0.3"><path d="
M 52.00 329.00 
C 50.29 331.87 50.43 338.06 52.00 341.00
C 52.00 337.00 52.00 333.00 52.00 329.00 Z"/>
</g>
<g fill="None" fill-opacity="0.0" stroke="#635145" stroke-opacity="0.84" stroke-width="0.3"><path d="
M 235.00 338.00 
C 231.82 338.00 228.85 338.83 226.00 340.00
C 228.11 341.51 232.81 339.36 235.00 338.00 Z"/>
</g>
<g fill="None" fill-opacity="0.0" stroke="#625144" stroke-opacity="0.80" stroke-width="0.3"><path d="
M 363.00 339.00 
C 359.16 339.57 354.09 337.81 351.00 340.00
C 354.84 339.43 359.91 341.19 363.00 339.00 Z"/>
</g>
<g fill="None" fill-opacity="0.0" stroke="#625145" stroke-opacity="0.78" stroke-width="0.3"><path d="
M 188.00 342.00 
C 185.15 342.50 181.10 340.92 179.00 343.00
C 181.85 342.50 185.90 344.08 188.00 342.00 Z"/>
</g>
<g fill="None" fill-opacity="0.0" stroke="#635044" stroke-opacity="0.80" stroke-width="0.3"><path d="
M 219.00 342.00 
C 216.48 342.47 212.77 340.97 211.00 343.00
C 213.52 342.53 217.23 344.03 219.00 342.00 Z"/>
</g>
<g fill="None" fill-opacity="0.0" stroke="#625144" stroke-opacity="0.78" stroke-width="0.3"><path d="
M 205.00 344.00 
C 200.13 344.56 193.80 343.17 190.00 344.00
C 194.38 345.54 200.95 345.72 205.00 344.00 Z"/>
</g>
<g fill="#000000" fill-opacity="0.00" stroke="None">
<path d="
M 0.00 397.00 
L 400.00 397.00
L 400.00 0.00
L 0.00 0.00
L 0.00 397.00
M 140.00 86.00 
C 140.16 86.23 141.00 86.00 141.00 86.00
C 144.76 86.38 150.15 93.57 153.74 96.26 C 157.34 98.94 162.50 104.95 165.00 109.00
C 165.20 109.32 165.66 109.85 166.00 110.00
C 172.93 113.04 174.57 123.11 179.90 129.10 C 185.24 135.08 187.22 146.03 188.00 155.00 C 188.78 163.98 185.66 177.05 187.00 187.00 C 188.34 196.95 188.74 207.50 184.00 216.00
C 182.96 219.39 181.69 220.18 180.00 223.00
C 167.07 244.54 158.51 270.64 171.00 295.00
C 183.77 300.76 196.75 307.32 211.07 301.07 C 225.39 294.83 228.68 280.33 228.00 265.00
C 227.39 262.84 227.67 260.10 227.00 258.00
C 221.92 250.89 218.77 241.24 215.25 232.75 C 211.73 224.27 207.21 215.51 203.23 206.77 C 199.25 198.03 197.65 186.28 195.03 176.97 C 192.40 167.67 199.76 155.04 202.25 146.25 C 204.74 137.47 209.99 128.95 214.97 120.97 C 219.96 113.00 224.72 105.75 231.30 99.30 C 237.87 92.84 245.19 87.46 252.22 82.22 C 259.25 76.98 267.27 71.00 275.03 67.03 C 282.78 63.05 289.30 55.59 298.08 52.08 C 306.86 48.57 314.07 42.17 322.29 38.29 C 330.52 34.42 339.93 29.57 347.89 25.89 C 355.86 22.22 370.93 17.77 377.90 26.10 C 384.88 34.42 385.95 43.72 386.00 55.00 C 386.05 66.28 387.33 79.49 386.00 91.00 C 384.67 102.51 380.29 111.93 381.00 124.00 C 381.71 136.07 379.34 146.51 380.00 159.00 C 380.66 171.49 379.74 183.87 381.00 196.00 C 382.26 208.13 379.57 222.20 381.00 234.00 C 382.43 245.80 378.00 260.42 381.98 271.02 C 385.96 281.63 388.17 292.45 387.00 304.00 C 385.83 315.55 388.06 329.25 384.08 339.08 C 380.09 348.90 368.06 349.37 358.99 351.99 C 349.92 354.61 331.29 354.27 331.07 341.93 C 330.85 329.58 331.19 316.42 331.00 304.00 C 330.81 291.58 331.39 278.33 331.00 266.00 C 330.61 253.67 329.84 242.49 330.00 230.00 C 330.16 217.51 330.23 204.43 330.00 192.00 C 329.77 179.57 330.78 166.22 330.00 154.00 C 329.22 141.78 331.85 127.70 330.00 116.00 C 328.15 104.30 310.07 113.18 302.75 116.75 C 295.44 120.33 286.98 126.30 280.08 132.08 C 273.18 137.87 268.52 145.10 264.22 154.22 C 259.93 163.35 257.38 175.60 260.97 185.03 C 264.55 194.47 265.68 205.13 270.78 213.22 C 275.87 221.32 278.04 231.55 281.32 240.68 C 284.60 249.80 286.90 259.96 287.78 270.22 C 288.66 280.49 288.41 295.35 284.08 304.08 C 279.75 312.81 275.92 320.63 270.08 328.08 C 264.25 335.53 256.28 338.48 248.78 343.78 C 241.28 349.07 228.45 351.14 219.00 352.00 C 209.55 352.86 194.34 357.88 184.33 354.67 C 174.32 351.46 163.43 351.13 154.26 346.74 C 145.08 342.36 138.50 340.80 130.92 334.08 C 123.34 327.37 116.74 323.26 112.30 314.70 C 107.85 306.15 105.33 294.45 105.00 284.00 C 104.67 273.55 104.23 257.35 106.33 247.33 C 108.43 237.31 111.42 227.83 115.92 218.92 C 120.41 210.00 124.83 201.55 127.93 192.93 C 131.02 184.30 136.32 170.57 131.07 161.93 C 125.83 153.28 121.77 146.27 115.08 139.92 C 108.40 133.56 98.75 128.72 90.00 127.00
C 86.05 120.80 74.28 119.32 67.00 116.00
C 60.51 118.96 62.18 125.16 62.00 132.00 C 61.82 138.84 62.36 147.00 62.00 154.00 C 61.64 161.00 62.34 167.39 62.00 174.00 C 61.65 180.61 60.66 186.92 61.00 194.00 C 61.34 201.08 61.06 208.81 61.00 216.00 C 60.94 223.19 61.90 229.86 62.00 237.00 C 62.10 244.14 61.91 250.81 62.00 258.00 C 62.09 265.19 61.85 272.76 62.00 280.00 C 62.15 287.24 61.70 294.77 62.00 302.00 C 62.30 309.23 61.00 311.27 61.02 318.02 C 61.05 324.78 60.18 332.84 61.00 340.00 C 61.82 347.16 57.76 351.44 54.00 355.00
C 39.37 353.27 8.28 361.87 7.02 340.98 C 5.77 320.08 7.40 299.76 7.00 279.00 C 6.60 258.24 6.85 237.69 7.00 217.00 C 7.15 196.31 6.20 175.64 7.00 155.00 C 7.80 134.36 4.13 117.06 3.00 97.00 C 1.87 76.94 3.85 55.21 3.00 35.00
C 18.55 22.81 36.69 32.66 52.22 37.78 C 67.75 42.90 85.04 50.87 99.22 58.78 C 113.41 66.68 127.46 74.24 140.00 86.00 Z"/>
</g>
<g fill="#625044" fill-opacity="0.98" stroke="None">
<path d="
M 227.00 258.00 
C 228.02 259.43 231.70 265.39 230.00 270.00
C 227.80 269.26 230.31 265.67 228.00 265.00
C 228.68 280.33 225.39 294.83 211.07 301.07 C 196.75 307.32 183.77 300.76 171.00 295.00
C 158.51 270.64 167.07 244.54 180.00 223.00
C 179.03 223.68 176.89 223.83 176.00 225.00
C 180.55 216.93 186.48 209.47 184.00 199.00
C 186.37 203.63 184.61 212.27 184.00 216.00
C 188.74 207.50 188.34 196.95 187.00 187.00 C 185.66 177.05 188.78 163.98 188.00 155.00 C 187.22 146.03 185.24 135.08 179.90 129.10 C 174.57 123.11 172.93 113.04 166.00 110.00
C 167.28 111.40 167.73 112.92 167.00 115.00
C 165.20 112.21 161.80 109.94 160.00 107.00
C 162.14 106.48 162.81 109.57 165.00 109.00
C 162.50 104.95 157.34 98.94 153.74 96.26 C 150.15 93.57 144.76 86.38 141.00 86.00
C 141.64 87.95 142.72 89.33 144.00 91.00
C 142.12 91.18 136.04 86.11 140.00 86.00
C 127.46 74.24 113.41 66.68 99.22 58.78 C 85.04 50.87 67.75 42.90 52.22 37.78 C 36.69 32.66 18.55 22.81 3.00 35.00
C 3.85 55.21 1.87 76.94 3.00 97.00 C 4.13 117.06 7.80 134.36 7.00 155.00 C 6.20 175.64 7.15 196.31 7.00 217.00 C 6.85 237.69 6.60 258.24 7.00 279.00 C 7.40 299.76 5.77 320.08 7.02 340.98 C 8.28 361.87 39.37 353.27 54.00 355.00
C 57.76 351.44 61.82 347.16 61.00 340.00 C 60.18 332.84 61.05 324.78 61.02 318.02 C 61.00 311.27 62.30 309.23 62.00 302.00 C 61.70 294.77 62.15 287.24 62.00 280.00 C 61.85 272.76 62.09 265.19 62.00 258.00 C 61.91 250.81 62.10 244.14 62.00 237.00 C 61.90 229.86 60.94 223.19 61.00 216.00 C 61.06 208.81 61.34 201.08 61.00 194.00 C 60.66 186.92 61.65 180.61 62.00 174.00 C 62.34 167.39 61.64 161.00 62.00 154.00 C 62.36 147.00 61.82 138.84 62.00 132.00 C 62.18 125.16 60.51 118.96 67.00 116.00
C 74.28 119.32 86.05 120.80 90.00 127.00
C 98.75 128.72 108.40 133.56 115.08 139.92 C 121.77 146.27 125.83 153.28 131.07 161.93 C 136.32 170.57 131.02 184.30 127.93 192.93 C 124.83 201.55 120.41 210.00 115.92 218.92 C 111.42 227.83 108.43 237.31 106.33 247.33 C 104.23 257.35 104.67 273.55 105.00 284.00 C 105.33 294.45 107.85 306.15 112.30 314.70 C 116.74 323.26 123.34 327.37 130.92 334.08 C 138.50 340.80 145.08 342.36 154.26 346.74 C 163.43 351.13 174.32 351.46 184.33 354.67 C 194.34 357.88 209.55 352.86 219.00 352.00 C 228.45 351.14 241.28 349.07 248.78 343.78 C 256.28 338.48 264.25 335.53 270.08 328.08 C 275.92 320.63 279.75 312.81 284.08 304.08 C 288.41 295.35 288.66 280.49 287.78 270.22 C 286.90 259.96 284.60 249.80 281.32 240.68 C 278.04 231.55 275.87 221.32 270.78 213.22 C 265.68 205.13 264.55 194.47 260.97 185.03 C 257.38 175.60 259.93 163.35 264.22 154.22 C 268.52 145.10 273.18 137.87 280.08 132.08 C 286.98 126.30 295.44 120.33 302.75 116.75 C 310.07 113.18 328.15 104.30 330.00 116.00 C 331.85 127.70 329.22 141.78 330.00 154.00 C 330.78 166.22 329.77 179.57 330.00 192.00 C 330.23 204.43 330.16 217.51 330.00 230.00 C 329.84 242.49 330.61 253.67 331.00 266.00 C 331.39 278.33 330.81 291.58 331.00 304.00 C 331.19 316.42 330.85 329.58 331.07 341.93 C 331.29 354.27 349.92 354.61 358.99 351.99 C 368.06 349.37 380.09 348.90 384.08 339.08 C 388.06 329.25 385.83 315.55 387.00 304.00 C 388.17 292.45 385.96 281.63 381.98 271.02 C 378.00 260.42 382.43 245.80 381.00 234.00 C 379.57 222.20 382.26 208.13 381.00 196.00 C 379.74 183.87 380.66 171.49 380.00 159.00 C 379.34 146.51 381.71 136.07 381.00 124.00 C 380.29 111.93 384.67 102.51 386.00 91.00 C 387.33 79.49 386.05 66.28 386.00 55.00 C 385.95 43.72 384.88 34.42 377.90 26.10 C 370.93 17.77 355.86 22.22 347.89 25.89 C 339.93 29.57 330.52 34.42 322.29 38.29 C 314.07 42.17 306.86 48.57 298.08 52.08 C 289.30 55.59 282.78 63.05 275.03 67.03 C 267.27 71.00 259.25 76.98 252.22 82.22 C 245.19 87.46 237.87 92.84 231.30 99.30 C 224.72 105.75 219.96 113.00 214.97 120.97 C 209.99 128.95 204.74 137.47 202.25 146.25 C 199.76 155.04 192.40 167.67 195.03 176.97 C 197.65 186.28 199.25 198.03 203.23 206.77 C 207.21 215.51 211.73 224.27 215.25 232.75 C 218.77 241.24 221.92 250.89 227.00 258.00
M 373.00 36.00 
C 365.03 29.63 355.04 35.31 347.00 38.00
C 352.97 32.99 367.81 28.04 373.00 36.00
M 6.00 38.00 
C 6.00 49.67 6.00 61.33 6.00 73.00
C 4.34 62.41 4.33 48.52 6.00 38.00
M 374.00 38.00 
C 374.00 41.00 374.00 44.00 374.00 47.00
C 372.48 45.04 372.28 39.89 374.00 38.00
M 319.00 52.00 
C 316.36 53.53 312.95 54.75 310.00 56.00
C 311.61 52.63 315.62 52.03 319.00 52.00
M 373.00 52.00 
C 373.00 88.00 373.00 124.00 373.00 160.00
C 371.33 125.07 371.33 86.86 373.00 52.00
M 309.00 56.00 
C 302.78 60.10 295.91 65.02 288.00 65.00
C 295.13 63.27 301.70 57.91 309.00 56.00
M 159.00 106.00 
C 154.61 102.59 151.71 98.60 148.00 95.00
C 153.36 96.29 156.75 101.01 159.00 106.00
M 320.00 99.00 
C 317.26 100.91 313.88 102.77 310.00 102.00
C 313.12 101.20 316.33 98.87 320.00 99.00
M 69.00 106.00 
C 64.20 105.52 57.54 105.86 54.00 111.00
C 55.10 104.34 64.40 103.54 69.00 106.00
M 97.00 117.00 
C 92.57 115.71 87.44 114.22 84.00 111.00
C 88.43 112.29 93.56 113.78 97.00 117.00
M 15.00 117.00 
C 15.00 121.67 15.00 126.33 15.00 131.00
C 13.41 127.40 13.29 120.53 15.00 117.00
M 53.00 118.00 
C 53.00 179.33 53.00 240.67 53.00 302.00
C 51.33 241.73 51.33 178.19 53.00 118.00
M 136.00 150.00 
C 127.59 140.00 117.17 129.62 106.00 122.00
C 118.40 127.74 129.11 138.04 136.00 150.00
M 16.00 139.00 
C 16.00 182.00 16.00 225.00 16.00 268.00
C 14.33 226.07 14.33 180.86 16.00 139.00
M 185.00 144.00 
C 186.29 152.37 182.03 150.06 185.00 144.00
M 203.00 159.00 
C 204.29 167.37 200.03 165.06 203.00 159.00
M 252.00 163.00 
C 252.62 166.58 250.38 169.40 251.00 173.00
C 248.76 170.45 250.60 165.40 252.00 163.00
M 143.00 166.00 
C 143.00 170.67 143.00 175.33 143.00 180.00
C 141.41 176.40 141.29 169.53 143.00 166.00
M 134.00 206.00 
C 133.77 208.92 130.25 210.68 131.00 214.00
C 128.51 211.73 131.36 207.19 134.00 206.00
M 372.00 212.00 
C 372.00 225.67 372.00 239.33 372.00 253.00
C 370.34 240.41 370.33 224.52 372.00 212.00
M 268.00 234.00 
C 265.48 229.52 264.09 223.94 262.00 219.00
C 265.59 221.78 267.38 228.86 268.00 234.00
M 341.00 221.00 
C 341.00 260.33 341.00 299.67 341.00 339.00
C 344.19 340.17 346.55 341.18 350.00 340.00
C 347.42 343.77 343.24 340.84 340.00 340.00
C 340.67 300.50 338.67 259.68 341.00 221.00
M 227.00 240.00 
C 227.19 244.02 228.60 247.77 228.00 252.00
C 227.15 248.79 224.98 243.08 227.00 240.00
M 156.00 254.00 
C 155.44 256.52 157.19 260.30 155.00 262.00
C 155.56 259.48 153.81 255.70 156.00 254.00
M 373.00 257.00 
C 373.00 260.67 373.00 264.33 373.00 268.00
C 371.44 265.39 371.28 259.54 373.00 257.00
M 114.00 269.00 
C 114.00 272.00 114.00 275.00 114.00 278.00
C 112.48 276.04 112.28 270.89 114.00 269.00
M 278.00 269.00 
C 278.00 275.33 278.00 281.67 278.00 288.00
C 276.37 282.74 276.31 274.19 278.00 269.00
M 156.00 274.00 
C 157.29 282.37 153.03 280.06 156.00 274.00
M 374.00 275.00 
C 374.00 279.33 374.00 283.67 374.00 288.00
C 372.42 284.73 372.29 278.20 374.00 275.00
M 376.00 302.00 
C 375.44 304.52 377.19 308.30 375.00 310.00
C 375.56 307.48 373.81 303.70 376.00 302.00
M 153.00 334.00 
C 141.61 330.47 128.37 322.61 124.00 311.00
C 130.82 321.64 142.45 328.24 153.00 334.00
M 204.00 311.00 
C 199.91 313.24 193.84 311.40 189.00 312.00
C 193.09 309.76 199.16 311.60 204.00 311.00
M 377.00 317.00 
C 375.77 323.21 379.53 333.20 375.00 337.00
C 374.36 340.95 368.00 338.15 365.00 339.00
C 366.87 336.03 373.72 340.51 374.00 336.00
C 379.11 332.71 373.50 321.88 377.00 317.00
M 52.00 329.00 
C 52.00 333.00 52.00 337.00 52.00 341.00
C 50.43 338.06 50.29 331.87 52.00 329.00
M 235.00 338.00 
C 232.81 339.36 228.11 341.51 226.00 340.00
C 228.85 338.83 231.82 338.00 235.00 338.00
M 363.00 339.00 
C 359.91 341.19 354.84 339.43 351.00 340.00
C 354.09 337.81 359.16 339.57 363.00 339.00
M 188.00 342.00 
C 185.90 344.08 181.85 342.50 179.00 343.00
C 181.10 340.92 185.15 342.50 188.00 342.00
M 219.00 342.00 
C 217.23 344.03 213.52 342.53 211.00 343.00
C 212.77 340.97 216.48 342.47 219.00 342.00
M 205.00 344.00 
C 200.95 345.72 194.38 345.54 190.00 344.00
C 193.80 343.17 200.13 344.56 205.00 344.00 Z"/>
</g>
<g fill="#635144" fill-opacity="0.84" stroke="None">
<path d="
M 373.00 36.00 
C 367.81 28.04 352.97 32.99 347.00 38.00
C 355.04 35.31 365.03 29.63 373.00 36.00 Z"/>
</g>
<g fill="#635044" fill-opacity="0.83" stroke="None">
<path d="
M 6.00 38.00 
C 4.33 48.52 4.34 62.41 6.00 73.00
C 6.00 61.33 6.00 49.67 6.00 38.00 Z"/>
</g>
<g fill="#635144" fill-opacity="0.83" stroke="None">
<path d="
M 374.00 38.00 
C 372.28 39.89 372.48 45.04 374.00 47.00
C 374.00 44.00 374.00 41.00 374.00 38.00 Z"/>
</g>
<g fill="#635145" fill-opacity="0.84" stroke="None">
<path d="
M 319.00 52.00 
C 315.62 52.03 311.61 52.63 310.00 56.00
C 312.95 54.75 316.36 53.53 319.00 52.00 Z"/>
</g>
<g fill="#635044" fill-opacity="0.77" stroke="None">
<path d="
M 373.00 52.00 
C 371.33 86.86 371.33 125.07 373.00 160.00
C 373.00 124.00 373.00 88.00 373.00 52.00 Z"/>
</g>
<g fill="#625144" fill-opacity="0.85" stroke="None">
<path d="
M 309.00 56.00 
C 301.70 57.91 295.13 63.27 288.00 65.00
C 295.91 65.02 302.78 60.10 309.00 56.00 Z"/>
</g>
<g fill="#625045" fill-opacity="0.84" stroke="None">
<path d="
M 141.00 86.00 
C 141.00 86.00 140.16 86.23 140.00 86.00
C 136.04 86.11 142.12 91.18 144.00 91.00
C 142.72 89.33 141.64 87.95 141.00 86.00 Z"/>
</g>
<g fill="#635144" fill-opacity="0.85" stroke="None">
<path d="
M 159.00 106.00 
C 156.75 101.01 153.36 96.29 148.00 95.00
C 151.71 98.60 154.61 102.59 159.00 106.00 Z"/>
</g>
<g fill="#635145" fill-opacity="0.83" stroke="None">
<path d="
M 320.00 99.00 
C 316.33 98.87 313.12 101.20 310.00 102.00
C 313.88 102.77 317.26 100.91 320.00 99.00 Z"/>
</g>
<g fill="#625045" fill-opacity="0.84" stroke="None">
<path d="
M 69.00 106.00 
C 64.40 103.54 55.10 104.34 54.00 111.00
C 57.54 105.86 64.20 105.52 69.00 106.00 Z"/>
</g>
<g fill="#635044" fill-opacity="0.84" stroke="None">
<path d="
M 166.00 110.00 
C 165.66 109.85 165.20 109.32 165.00 109.00
C 162.81 109.57 162.14 106.48 160.00 107.00
C 161.80 109.94 165.20 112.21 167.00 115.00
C 167.73 112.92 167.28 111.40 166.00 110.00 Z"/>
</g>
<g fill="#635144" fill-opacity="0.83" stroke="None">
<path d="
M 97.00 117.00 
C 93.56 113.78 88.43 112.29 84.00 111.00
C 87.44 114.22 92.57 115.71 97.00 117.00 Z"/>
</g>
<g fill="#625045" fill-opacity="0.80" stroke="None">
<path d="
M 15.00 117.00 
C 13.29 120.53 13.41 127.40 15.00 131.00
C 15.00 126.33 15.00 121.67 15.00 117.00 Z"/>
</g>
<g fill="#635045" fill-opacity="0.79" stroke="None">
<path d="
M 53.00 118.00 
C 51.33 178.19 51.33 241.73 53.00 302.00
C 53.00 240.67 53.00 179.33 53.00 118.00 Z"/>
</g>
<g fill="#625144" fill-opacity="0.89" stroke="None">
<path d="
M 136.00 150.00 
C 129.11 138.04 118.40 127.74 106.00 122.00
C 117.17 129.62 127.59 140.00 136.00 150.00 Z"/>
</g>
<g fill="#635045" fill-opacity="0.77" stroke="None">
<path d="
M 16.00 139.00 
C 14.33 180.86 14.33 226.07 16.00 268.00
C 16.00 225.00 16.00 182.00 16.00 139.00 Z"/>
</g>
<g fill="#635144" fill-opacity="0.79" stroke="None">
<path d="
M 185.00 144.00 
C 182.03 150.06 186.29 152.37 185.00 144.00 Z"/>
</g>
<g fill="#625144" fill-opacity="0.81" stroke="None">
<path d="
M 203.00 159.00 
C 200.03 165.06 204.29 167.37 203.00 159.00 Z"/>
</g>
<g fill="#635145" fill-opacity="0.83" stroke="None">
<path d="
M 252.00 163.00 
C 250.60 165.40 248.76 170.45 251.00 173.00
C 250.38 169.40 252.62 166.58 252.00 163.00 Z"/>
</g>
<g fill="#635144" fill-opacity="0.77" stroke="None">
<path d="
M 143.00 166.00 
C 141.29 169.53 141.41 176.40 143.00 180.00
C 143.00 175.33 143.00 170.67 143.00 166.00 Z"/>
</g>
<g fill="#635044" fill-opacity="0.82" stroke="None">
<path d="
M 180.00 223.00 
C 181.69 220.18 182.96 219.39 184.00 216.00
C 184.61 212.27 186.37 203.63 184.00 199.00
C 186.48 209.47 180.55 216.93 176.00 225.00
C 176.89 223.83 179.03 223.68 180.00 223.00 Z"/>
</g>
<g fill="#635145" fill-opacity="0.84" stroke="None">
<path d="
M 134.00 206.00 
C 131.36 207.19 128.51 211.73 131.00 214.00
C 130.25 210.68 133.77 208.92 134.00 206.00 Z"/>
</g>
<g fill="#625145" fill-opacity="0.85" stroke="None">
<path d="
M 372.00 212.00 
C 370.33 224.52 370.34 240.41 372.00 253.00
C 372.00 239.33 372.00 225.67 372.00 212.00 Z"/>
</g>
<g fill="#635144" fill-opacity="0.86" stroke="None">
<path d="
M 268.00 234.00 
C 267.38 228.86 265.59 221.78 262.00 219.00
C 264.09 223.94 265.48 229.52 268.00 234.00 Z"/>
</g>
<g fill="#625045" fill-opacity="0.79" stroke="None">
<path d="
M 341.00 221.00 
C 338.67 259.68 340.67 300.50 340.00 340.00
C 343.24 340.84 347.42 343.77 350.00 340.00
C 346.55 341.18 344.19 340.17 341.00 339.00
C 341.00 299.67 341.00 260.33 341.00 221.00 Z"/>
</g>
<g fill="#625145" fill-opacity="0.81" stroke="None">
<path d="
M 227.00 240.00 
C 224.98 243.08 227.15 248.79 228.00 252.00
C 228.60 247.77 227.19 244.02 227.00 240.00 Z"/>
</g>
<g fill="#635145" fill-opacity="0.79" stroke="None">
<path d="
M 156.00 254.00 
C 153.81 255.70 155.56 259.48 155.00 262.00
C 157.19 260.30 155.44 256.52 156.00 254.00 Z"/>
</g>
<g fill="#625144" fill-opacity="0.77" stroke="None">
<path d="
M 227.00 258.00 
C 227.67 260.10 227.39 262.84 228.00 265.00
C 230.31 265.67 227.80 269.26 230.00 270.00
C 231.70 265.39 228.02 259.43 227.00 258.00 Z"/>
</g>
<g fill="#635045" fill-opacity="0.79" stroke="None">
<path d="
M 373.00 257.00 
C 371.28 259.54 371.44 265.39 373.00 268.00
C 373.00 264.33 373.00 260.67 373.00 257.00 Z"/>
</g>
<g fill="#635045" fill-opacity="0.82" stroke="None">
<path d="
M 114.00 269.00 
C 112.28 270.89 112.48 276.04 114.00 278.00
C 114.00 275.00 114.00 272.00 114.00 269.00 Z"/>
</g>
<g fill="#635145" fill-opacity="0.78" stroke="None">
<path d="
M 278.00 269.00 
C 276.31 274.19 276.37 282.74 278.00 288.00
C 278.00 281.67 278.00 275.33 278.00 269.00 Z"/>
</g>
<g fill="#635145" fill-opacity="0.78" stroke="None">
<path d="
M 156.00 274.00 
C 153.03 280.06 157.29 282.37 156.00 274.00 Z"/>
</g>
<g fill="#635144" fill-opacity="0.78" stroke="None">
<path d="
M 374.00 275.00 
C 372.29 278.20 372.42 284.73 374.00 288.00
C 374.00 283.67 374.00 279.33 374.00 275.00 Z"/>
</g>
<g fill="#635144" fill-opacity="0.79" stroke="None">
<path d="
M 376.00 302.00 
C 373.81 303.70 375.56 307.48 375.00 310.00
C 377.19 308.30 375.44 304.52 376.00 302.00 Z"/>
</g>
<g fill="#625144" fill-opacity="0.88" stroke="None">
<path d="
M 153.00 334.00 
C 142.45 328.24 130.82 321.64 124.00 311.00
C 128.37 322.61 141.61 330.47 153.00 334.00 Z"/>
</g>
<g fill="#625145" fill-opacity="0.82" stroke="None">
<path d="
M 204.00 311.00 
C 199.16 311.60 193.09 309.76 189.00 312.00
C 193.84 311.40 199.91 313.24 204.00 311.00 Z"/>
</g>
<g fill="#635044" fill-opacity="0.79" stroke="None">
<path d="
M 377.00 317.00 
C 373.50 321.88 379.11 332.71 374.00 336.00
C 373.72 340.51 366.87 336.03 365.00 339.00
C 368.00 338.15 374.36 340.95 375.00 337.00
C 379.53 333.20 375.77 323.21 377.00 317.00 Z"/>
</g>
<g fill="#635145" fill-opacity="0.80" stroke="None">
<path d="
M 52.00 329.00 
C 50.29 331.87 50.43 338.06 52.00 341.00
C 52.00 337.00 52.00 333.00 52.00 329.00 Z"/>
</g>
<g fill="#635145" fill-opacity="0.84" stroke="None">
<path d="
M 235.00 338.00 
C 231.82 338.00 228.85 338.83 226.00 340.00
C 228.11 341.51 232.81 339.36 235.00 338.00 Z"/>
</g>
<g fill="#625144" fill-opacity="0.80" stroke="None">
<path d="
M 363.00 339.00 
C 359.16 339.57 354.09 337.81 351.00 340.00
C 354.84 339.43 359.91 341.19 363.00 339.00 Z"/>
</g>
<g fill="#625145" fill-opacity="0.78" stroke="None">
<path d="
M 188.00 342.00 
C 185.15 342.50 181.10 340.92 179.00 343.00
C 181.85 342.50 185.90 344.08 188.00 342.00 Z"/>
</g>
<g fill="#635044" fill-opacity="0.80" stroke="None">
<path d="
M 219.00 342.00 
C 216.48 342.47 212.77 340.97 211.00 343.00
C 213.52 342.53 217.23 344.03 219.00 342.00 Z"/>
</g>
<g fill="#625144" fill-opacity="0.78" stroke="None">
<path d="
M 205.00 344.00 
C 200.13 344.56 193.80 343.17 190.00 344.00
C 194.38 345.54 200.95 345.72 205.00 344.00 Z"/>
</g>
</svg>