<svg xmlns="http://www.w3.org/2000/svg" xmlns:v="https://svgstorm.com"
viewBox = "0 0 551 489"
width="551"
height="489">
<g fill="None" fill-opacity="0.0" stroke="#310606" stroke-opacity="0.00" stroke-width="0.3"><path d="
M 0.00 489.00 
L 551.00 489.00
L 551.00 0.00
L 0.00 0.00
L 0.00 489.00
M 280.00 54.00 
C 279.36 61.10 285.60 57.44 288.00 62.00
C 282.71 63.61 284.58 67.81 285.00 72.00
C 282.77 72.11 279.93 71.21 279.00 69.00
C 276.63 69.03 275.28 71.50 273.00 72.00
C 270.67 69.50 273.82 66.90 273.00 64.00
C 266.60 63.76 270.29 55.91 275.00 60.00
C 276.39 57.63 275.60 52.93 280.00 54.00
M 239.00 69.00 
C 241.35 69.26 245.07 67.97 246.00 71.00
C 240.18 72.79 240.98 77.47 243.00 82.00
C 238.28 79.93 234.48 77.93 230.00 82.00
C 230.50 77.85 231.27 73.19 226.00 72.00
C 226.06 66.51 236.43 71.46 234.00 64.00
C 237.64 63.01 237.91 66.76 239.00 69.00
M 327.00 74.00 
C 329.35 74.26 333.07 72.97 334.00 76.00
C 328.64 77.76 328.98 81.61 331.00 86.00
C 328.54 86.53 325.87 85.42 325.00 83.00
C 322.44 83.70 320.94 86.57 318.00 86.00
C 319.21 81.46 319.06 77.72 314.00 76.00
C 317.17 72.83 323.37 74.75 323.00 68.00
C 326.28 67.77 326.28 71.79 327.00 74.00
M 291.00 94.00 
C 298.94 98.55 307.66 101.33 316.00 105.00
C 311.95 101.58 301.79 90.65 309.70 87.70 C 317.61 84.75 322.52 94.64 327.75 99.25 C 332.98 103.86 336.65 112.56 341.00 118.00
C 344.90 113.42 337.53 100.63 346.00 100.00
C 360.66 127.65 359.99 161.46 343.00 188.00
C 355.24 169.96 373.42 137.84 401.00 147.00
C 397.92 154.47 387.13 157.37 384.70 165.70 C 382.26 174.02 375.90 181.17 368.00 185.00
C 378.68 181.63 389.39 194.81 382.00 205.00
C 389.56 203.88 381.96 195.51 388.00 193.00
C 383.61 185.60 389.78 179.50 391.77 168.77 C 393.76 158.04 410.90 161.47 402.00 174.00
C 405.09 170.87 416.60 161.39 418.92 169.08 C 421.24 176.78 410.62 180.09 406.77 184.77 C 402.92 189.45 393.48 192.49 391.00 198.00
C 399.85 193.49 408.21 190.47 418.01 188.01 C 427.81 185.55 441.09 185.22 450.67 188.33 C 460.25 191.44 464.76 198.84 469.77 206.23 C 474.78 213.62 474.02 232.14 463.75 227.24 C 453.49 222.35 463.70 206.60 452.00 202.00
C 459.12 210.55 459.62 223.62 450.00 231.00
C 459.45 230.13 466.96 233.12 475.69 228.69 C 484.43 224.27 489.12 238.68 478.99 237.99 C 468.86 237.31 462.58 235.49 453.00 236.00 C 443.42 236.51 435.51 237.39 426.00 237.00 C 416.49 236.61 408.40 238.23 399.00 238.00 C 389.60 237.77 381.43 236.79 372.00 237.00
C 373.05 244.60 373.93 256.32 373.00 264.00 C 372.07 271.68 378.21 283.15 369.33 284.33 C 360.44 285.51 364.57 271.07 363.00 264.00 C 361.43 256.92 363.42 244.16 364.00 237.00
C 347.15 236.88 329.80 237.16 313.00 237.00 C 296.20 236.84 280.90 235.63 264.33 237.33 C 247.76 239.03 230.82 236.82 214.00 237.00 C 197.18 237.18 179.71 237.38 163.00 237.00 C 146.29 236.62 129.53 239.31 113.00 238.00 C 96.47 236.69 80.28 241.66 66.00 237.00
C 69.67 229.82 74.96 234.85 81.00 235.00 C 87.04 235.14 95.72 234.90 102.00 235.00
C 88.59 223.83 93.97 203.19 110.00 198.00
C 103.66 200.60 89.74 205.36 92.01 216.01 C 94.28 226.65 80.83 237.85 78.01 224.99 C 75.19 212.13 81.25 206.09 87.75 197.75 C 94.26 189.42 104.50 188.86 114.00 188.00 C 123.50 187.14 138.13 189.25 146.02 192.98 C 153.92 196.70 167.61 199.61 165.00 207.00
C 167.72 206.37 169.41 209.07 172.00 209.00
C 170.01 203.70 166.63 201.11 167.98 194.97 C 169.32 188.84 175.74 187.72 181.02 188.98 C 186.31 190.24 189.49 198.19 182.75 201.75 C 176.01 205.31 175.18 197.03 177.00 193.00
C 165.25 198.89 178.21 207.58 186.08 212.92 C 193.94 218.27 208.07 215.65 215.00 208.00
C 202.15 200.18 190.79 192.25 178.25 183.75 C 165.72 175.24 165.83 156.12 150.00 151.00
C 162.54 141.42 178.29 152.92 188.25 162.75 C 198.20 172.59 203.43 186.53 212.00 197.00
C 198.28 168.24 182.76 127.42 208.00 101.00
C 209.77 105.95 208.72 111.67 209.00 117.00
C 213.66 112.35 216.87 104.16 221.30 99.30 C 225.74 94.45 229.60 84.83 238.02 86.02 C 246.45 87.22 238.76 102.19 234.00 105.00
C 242.13 101.74 249.98 97.68 258.00 94.00
C 246.12 92.25 255.37 75.76 264.67 80.33 C 273.97 84.90 268.69 97.12 261.00 100.00
C 269.88 98.69 278.90 100.80 287.00 99.00
C 279.10 96.25 275.41 84.98 284.08 80.08 C 292.75 75.19 302.08 90.68 291.00 94.00
M 202.00 86.00 
C 204.35 86.26 208.07 84.97 209.00 88.00
C 202.81 89.87 204.84 94.25 206.00 99.00
C 201.41 96.29 197.49 95.64 193.00 99.00
C 195.36 93.38 191.84 90.76 191.00 86.00
C 195.74 87.51 196.87 83.45 198.00 80.00
C 200.94 80.65 201.51 83.38 202.00 86.00
M 366.00 90.00 
C 363.65 94.01 360.45 96.64 363.00 102.00
C 360.55 102.44 358.49 100.39 357.00 99.00
C 354.44 99.70 352.94 102.57 350.00 102.00
C 351.54 97.94 351.15 93.06 346.00 92.00
C 348.90 88.77 355.76 90.83 355.00 84.00
C 359.59 85.50 359.00 92.71 366.00 90.00
M 160.00 191.00 
C 160.39 194.10 165.57 195.82 163.00 199.00
C 158.02 195.03 148.60 193.24 144.30 188.70 C 140.01 184.15 129.15 180.63 130.01 172.99 C 130.86 165.35 146.20 171.77 148.00 177.00
C 144.55 173.42 143.95 161.20 150.70 162.36 C 157.44 163.51 158.93 173.02 160.32 177.68 C 161.72 182.34 168.69 194.25 160.00 191.00
M 278.00 247.00 
C 275.30 241.74 281.00 234.26 285.74 239.26 C 290.49 244.25 282.42 249.02 278.00 247.00
M 110.00 256.00 
C 115.89 249.74 113.74 248.43 121.25 242.25 C 128.76 236.07 129.33 244.37 130.33 252.67 C 131.33 260.97 128.85 267.06 130.00 276.00 C 131.16 284.94 122.72 291.62 121.00 281.00 C 119.28 270.37 123.12 265.18 120.00 256.00
C 116.93 259.68 115.49 266.02 109.97 266.97 C 104.45 267.93 103.01 258.34 98.00 258.00
C 96.69 266.90 99.74 273.92 98.00 283.00 C 96.26 292.08 87.90 284.48 89.00 277.00 C 90.10 269.52 89.44 259.38 89.00 252.00 C 88.56 244.62 91.90 236.44 98.23 241.77 C 104.56 247.10 104.00 251.28 110.00 256.00
M 314.00 248.00 
C 327.85 248.24 334.16 251.71 334.00 267.00 C 333.84 282.29 328.30 284.76 313.00 285.00 C 297.70 285.24 292.78 280.46 293.00 266.00 C 293.22 251.54 300.80 247.77 314.00 248.00
M 453.00 248.00 
C 457.59 248.75 467.47 255.23 465.98 261.02 C 464.48 266.82 470.36 282.27 462.92 283.92 C 455.48 285.57 456.24 270.60 457.00 264.00 C 457.76 257.40 446.03 253.74 438.00 257.00 C 429.97 260.26 436.23 269.20 434.00 279.00 C 431.77 288.80 421.58 279.10 425.00 272.00 C 428.42 264.90 420.12 250.41 428.03 249.03 C 435.93 247.65 445.23 246.74 453.00 248.00
M 387.00 249.00 
C 391.66 248.78 400.36 248.66 406.00 249.00 C 411.64 249.34 416.83 250.41 419.30 256.70 C 421.77 262.98 418.50 269.07 420.00 277.00 C 421.50 284.93 412.45 285.30 412.00 278.00 C 411.56 270.69 414.24 263.12 410.74 258.26 C 407.25 253.40 398.10 257.76 393.00 257.00 C 387.90 256.24 385.27 268.24 388.00 273.00 C 390.73 277.76 383.50 289.56 380.08 281.92 C 376.67 274.27 381.20 269.58 379.00 262.00 C 376.80 254.42 379.69 249.34 387.00 249.00
M 217.00 286.00 
C 208.80 285.45 200.23 287.44 192.33 285.67 C 184.43 283.90 182.61 274.89 183.00 268.00 C 183.39 261.11 184.49 252.75 193.08 251.08 C 201.66 249.40 208.77 251.28 218.00 251.00 C 227.23 250.72 225.51 263.15 225.00 271.00 C 224.49 278.85 226.95 289.24 222.69 295.69 C 218.44 302.15 207.37 301.55 201.00 301.00 C 194.63 300.45 183.42 301.16 184.03 290.98 C 184.63 280.79 193.10 292.17 198.03 293.97 C 202.95 295.78 218.39 294.83 217.00 286.00
M 239.00 286.00 
C 244.28 294.26 233.21 304.94 231.08 295.92 C 228.94 286.91 231.49 278.54 231.00 271.00 C 230.51 263.45 228.47 250.04 236.67 250.33 C 244.87 250.63 253.69 249.15 262.00 250.00 C 270.31 250.85 272.47 259.10 272.99 266.01 C 273.51 272.91 272.05 282.08 264.32 284.32 C 256.59 286.57 247.40 286.08 239.00 286.00
M 284.00 250.00 
C 288.97 252.04 284.73 264.38 286.00 269.00 C 287.27 273.62 286.85 287.43 280.33 284.67 C 273.80 281.91 279.61 270.57 278.00 266.00 C 276.39 261.43 277.07 247.15 284.00 250.00
M 170.00 264.00 
C 171.14 257.01 153.47 255.54 150.00 258.00 C 146.53 260.46 136.60 270.08 137.01 260.99 C 137.42 251.90 147.95 251.72 154.00 251.00 C 160.05 250.29 170.38 249.41 175.25 255.75 C 180.12 262.10 176.93 271.28 178.00 280.00 C 179.07 288.72 168.04 286.28 161.00 287.00 C 153.96 287.72 144.11 287.51 139.25 281.75 C 134.40 275.98 138.13 268.67 144.70 265.70 C 151.26 262.73 162.45 264.42 170.00 264.00
M 97.00 352.00 
C 86.86 357.24 87.26 341.32 89.00 333.00 C 90.74 324.68 85.33 309.34 89.00 301.00 C 92.67 292.66 106.99 298.47 116.00 297.00 C 125.01 295.53 132.12 305.19 130.00 315.00 C 127.88 324.81 127.75 330.88 130.00 342.00 C 132.25 353.12 120.97 358.95 122.00 344.00 C 123.03 329.05 119.33 330.07 106.00 329.00 C 92.67 327.94 97.76 341.90 97.00 352.00
M 450.00 313.00 
C 454.37 313.44 470.14 310.51 468.66 317.68 C 467.19 324.85 449.94 315.44 449.08 322.08 C 448.23 328.73 447.17 338.55 453.08 341.92 C 458.98 345.30 467.74 341.32 468.00 334.00
C 477.31 333.10 473.49 344.84 468.75 347.75 C 464.02 350.66 452.16 352.13 447.31 348.69 C 442.45 345.25 440.49 335.72 441.07 329.93 C 441.65 324.13 434.17 315.14 441.00 313.00
C 441.40 309.37 439.04 298.00 445.08 298.08 C 451.11 298.15 449.67 309.18 450.00 313.00
M 221.00 300.00 
C 225.21 301.57 219.41 317.36 227.01 314.99 C 234.61 312.63 245.02 316.08 241.24 321.25 C 237.47 326.42 221.28 317.37 222.03 326.03 C 222.78 334.68 219.55 339.82 227.23 344.77 C 234.91 349.72 237.96 339.44 243.08 337.08 C 248.20 334.73 248.98 347.61 242.75 349.75 C 236.53 351.89 228.28 353.38 222.31 350.69 C 216.33 348.01 213.08 340.05 215.00 334.00 C 216.92 327.95 210.12 318.98 212.76 315.75 C 215.39 312.53 214.23 297.48 221.00 300.00
M 363.00 329.00 
C 351.28 313.80 381.43 308.18 390.25 315.75 C 399.07 323.33 393.52 326.33 395.01 335.01 C 396.50 343.69 394.72 351.92 386.32 350.34 C 377.92 348.76 370.28 354.02 363.77 348.23 C 357.26 342.44 360.75 335.25 363.00 329.00
M 425.00 313.00 
C 429.12 314.25 435.32 321.54 433.93 327.07 C 432.54 332.60 438.14 342.84 432.74 348.74 C 427.35 354.65 422.65 345.89 424.00 339.00 C 425.35 332.11 426.53 323.74 418.97 321.03 C 411.41 318.32 405.77 325.48 407.00 332.00 C 408.23 338.52 409.02 348.99 402.92 350.92 C 396.82 352.85 396.96 336.61 398.00 333.00 C 399.04 329.39 394.62 312.78 401.03 313.03 C 407.44 313.28 418.71 311.09 425.00 313.00
M 281.00 351.00 
C 271.13 349.04 254.70 358.35 250.03 343.97 C 245.35 329.60 263.35 325.62 275.00 328.00
C 276.99 320.41 263.26 321.46 260.00 322.00 C 256.74 322.54 252.60 333.96 249.25 327.75 C 245.90 321.54 252.87 317.26 257.23 315.23 C 261.59 313.19 270.28 313.08 275.23 315.77 C 280.18 318.46 283.28 323.56 282.00 330.00 C 280.72 336.44 283.74 344.87 281.00 351.00
M 289.00 314.00 
C 295.98 315.33 295.45 327.22 294.00 334.00 C 292.56 340.78 303.38 349.43 310.00 344.00 C 316.62 338.57 312.69 332.05 313.00 322.00 C 313.31 311.95 322.91 314.44 321.00 324.00 C 319.09 333.56 323.65 341.51 320.22 348.22 C 316.80 354.93 305.69 349.56 299.00 351.00 C 292.31 352.44 286.63 344.47 287.02 337.98 C 287.42 331.49 285.58 320.12 289.00 314.00
M 333.00 323.00 
C 333.42 331.78 332.84 335.03 332.01 344.01 C 331.18 352.99 323.67 349.71 325.00 341.00 C 326.33 332.29 324.54 327.42 325.00 319.00 C 325.46 310.58 336.62 314.70 343.00 314.00 C 349.38 313.30 354.81 314.73 357.77 321.23 C 360.73 327.73 353.26 331.59 350.70 324.30 C 348.13 317.02 337.58 322.33 333.00 323.00
M 193.00 315.00 
C 197.47 315.40 208.27 318.99 205.99 327.01 C 203.72 335.03 198.37 324.43 192.78 322.22 C 187.18 320.01 174.73 327.19 183.01 329.99 C 191.29 332.79 199.06 328.76 203.92 335.08 C 208.77 341.40 205.51 348.85 198.77 351.77 C 192.03 354.69 185.09 353.37 177.31 350.69 C 169.52 348.02 173.62 334.00 178.69 339.31 C 183.77 344.61 188.99 351.28 196.23 344.23 C 203.46 337.18 186.13 337.89 180.78 337.22 C 175.42 336.55 168.77 327.29 173.75 321.75 C 178.74 316.22 185.27 314.31 193.00 315.00
M 165.00 350.00 
C 153.88 353.24 136.06 358.08 133.01 341.99 C 129.96 325.90 137.55 313.22 155.00 316.00 C 172.45 318.78 167.40 337.32 165.00 350.00
M 406.00 363.00 
C 416.58 369.66 407.66 383.12 399.00 373.00
C 399.16 378.01 393.31 385.34 388.00 384.00 C 382.69 382.65 376.38 379.17 378.78 372.78 C 381.18 366.38 391.65 369.60 390.00 377.00
C 397.49 365.76 382.23 361.50 373.78 366.78 C 365.33 372.06 353.93 371.10 345.00 375.00
C 347.52 386.44 338.15 394.92 327.98 394.98 C 317.80 395.03 306.92 387.97 313.32 377.32 C 319.72 366.67 335.98 384.77 321.00 386.00
C 333.74 395.01 345.45 377.29 331.78 373.22 C 318.11 369.15 313.43 360.77 298.00 366.00
C 298.42 372.38 304.73 375.99 307.75 381.25 C 310.77 386.50 312.20 395.27 306.75 399.75 C 301.30 404.22 298.75 406.90 291.77 409.77 C 284.79 412.64 286.98 424.33 293.00 415.00
C 302.74 420.07 288.06 430.14 282.75 422.25 C 277.44 414.35 284.34 407.73 290.70 403.70 C 297.06 399.66 303.42 393.94 298.08 385.92 C 292.73 377.91 290.94 378.58 283.75 370.25 C 276.56 361.91 286.54 360.70 296.01 360.01 C 305.48 359.32 314.37 362.87 324.00 361.00 C 333.63 359.13 338.01 367.70 345.01 369.99 C 352.01 372.28 362.10 365.63 368.00 363.00
C 357.61 360.18 344.01 364.08 334.00 360.00
C 343.01 358.29 350.52 359.86 360.00 360.00 C 369.48 360.14 378.32 358.81 388.00 359.00 C 397.68 359.19 405.14 357.69 415.00 359.00 C 424.86 360.31 430.91 355.54 441.22 356.22 C 451.53 356.90 444.90 367.12 434.99 363.01 C 425.09 358.89 415.85 366.08 406.00 363.00
M 214.00 363.00 
C 206.71 366.58 193.62 360.77 188.00 366.00
C 196.84 367.53 208.43 376.48 215.75 367.75 C 223.07 359.03 238.15 362.63 248.00 362.00 C 257.85 361.37 278.85 359.56 272.08 370.08 C 265.32 380.60 256.18 380.39 256.00 393.00
C 260.79 394.63 258.78 379.12 264.74 384.26 C 270.70 389.40 268.84 391.48 273.92 397.08 C 279.00 402.68 273.39 409.86 269.30 403.70 C 265.21 397.55 262.71 394.20 256.00 396.00
C 259.64 406.31 268.84 402.79 274.75 412.25 C 280.67 421.71 257.92 432.20 262.00 417.00
C 264.84 417.52 266.11 420.92 269.00 421.00
C 272.78 406.32 254.02 408.33 248.08 396.92 C 242.14 385.50 257.46 375.73 260.00 365.00
C 251.70 366.38 238.93 364.20 232.75 369.75 C 226.58 375.30 212.95 374.35 216.33 384.67 C 219.71 394.99 233.88 391.15 237.00 385.00
C 221.09 388.70 235.98 368.33 242.25 379.75 C 248.51 391.17 235.46 395.51 226.00 396.00 C 216.54 396.49 207.68 386.21 210.00 376.00
C 197.54 374.15 190.38 372.47 178.78 366.22 C 167.17 359.98 152.64 382.79 171.00 380.00
C 168.02 378.75 165.36 372.70 171.08 372.08 C 176.80 371.45 176.75 378.99 174.08 382.08 C 171.40 385.16 166.21 387.02 162.32 384.68 C 158.44 382.34 157.72 377.26 156.00 374.00
C 147.05 385.77 139.46 370.97 151.00 365.00
C 138.61 365.22 125.73 365.14 114.00 366.00 C 102.26 366.85 113.47 358.90 117.69 362.31 C 121.92 365.71 131.42 362.16 137.00 363.00 C 142.58 363.84 151.03 363.13 157.00 363.00 C 162.97 362.87 167.88 361.81 174.00 362.00 C 180.13 362.20 187.66 361.68 194.00 362.00 C 200.34 362.32 208.45 360.93 214.00 363.00
M 281.00 373.00 
C 285.44 376.04 291.61 384.44 284.75 389.75 C 277.89 395.06 279.46 377.85 281.00 373.00
M 275.00 374.00 
C 276.88 379.59 275.65 386.02 276.00 392.00
C 266.22 391.20 266.30 376.22 275.00 374.00
M 280.00 406.00 
C 280.68 396.31 284.30 396.60 288.77 387.77 C 293.24 378.94 300.23 388.69 294.23 394.23 C 288.23 399.76 287.52 406.88 280.00 406.00 Z"/>
</g>
<g fill="None" fill-opacity="0.0" stroke="#FFFFFF" stroke-opacity="1.00" stroke-width="0.3"><path d="
M 280.00 54.00 
C 275.60 52.93 276.39 57.63 275.00 60.00
C 270.29 55.91 266.60 63.76 273.00 64.00
C 273.82 66.90 270.67 69.50 273.00 72.00
C 275.28 71.50 276.63 69.03 279.00 69.00
C 279.93 71.21 282.77 72.11 285.00 72.00
C 284.58 67.81 282.71 63.61 288.00 62.00
C 285.60 57.44 279.36 61.10 280.00 54.00 Z"/>
</g>
<g fill="None" fill-opacity="0.0" stroke="#FFFFFF" stroke-opacity="1.00" stroke-width="0.3"><path d="
M 239.00 69.00 
C 237.91 66.76 237.64 63.01 234.00 64.00
C 236.43 71.46 226.06 66.51 226.00 72.00
C 231.27 73.19 230.50 77.85 230.00 82.00
C 234.48 77.93 238.28 79.93 243.00 82.00
C 240.98 77.47 240.18 72.79 246.00 71.00
C 245.07 67.97 241.35 69.26 239.00 69.00 Z"/>
</g>
<g fill="None" fill-opacity="0.0" stroke="#FFFFFF" stroke-opacity="1.00" stroke-width="0.3"><path d="
M 327.00 74.00 
C 326.28 71.79 326.28 67.77 323.00 68.00
C 323.37 74.75 317.17 72.83 314.00 76.00
C 319.06 77.72 319.21 81.46 318.00 86.00
C 320.94 86.57 322.44 83.70 325.00 83.00
C 325.87 85.42 328.54 86.53 331.00 86.00
C 328.98 81.61 328.64 77.76 334.00 76.00
C 333.07 72.97 329.35 74.26 327.00 74.00 Z"/>
</g>
<g fill="None" fill-opacity="0.0" stroke="#FEFEFE" stroke-opacity="1.00" stroke-width="0.3"><path d="
M 291.00 94.00 
C 302.08 90.68 292.75 75.19 284.08 80.08 C 275.41 84.98 279.10 96.25 287.00 99.00
C 278.90 100.80 269.88 98.69 261.00 100.00
C 268.69 97.12 273.97 84.90 264.67 80.33 C 255.37 75.76 246.12 92.25 258.00 94.00
C 249.98 97.68 242.13 101.74 234.00 105.00
C 238.76 102.19 246.45 87.22 238.02 86.02 C 229.60 84.83 225.74 94.45 221.30 99.30 C 216.87 104.16 213.66 112.35 209.00 117.00
C 208.72 111.67 209.77 105.95 208.00 101.00
C 182.76 127.42 198.28 168.24 212.00 197.00
C 203.43 186.53 198.20 172.59 188.25 162.75 C 178.29 152.92 162.54 141.42 150.00 151.00
C 165.83 156.12 165.72 175.24 178.25 183.75 C 190.79 192.25 202.15 200.18 215.00 208.00
C 208.07 215.65 193.94 218.27 186.08 212.92 C 178.21 207.58 165.25 198.89 177.00 193.00
C 175.18 197.03 176.01 205.31 182.75 201.75 C 189.49 198.19 186.31 190.24 181.02 188.98 C 175.74 187.72 169.32 188.84 167.98 194.97 C 166.63 201.11 170.01 203.70 172.00 209.00
C 169.41 209.07 167.72 206.37 165.00 207.00
C 167.61 199.61 153.92 196.70 146.02 192.98 C 138.13 189.25 123.50 187.14 114.00 188.00 C 104.50 188.86 94.26 189.42 87.75 197.75 C 81.25 206.09 75.19 212.13 78.01 224.99 C 80.83 237.85 94.28 226.65 92.01 216.01 C 89.74 205.36 103.66 200.60 110.00 198.00
C 93.97 203.19 88.59 223.83 102.00 235.00
C 95.72 234.90 87.04 235.14 81.00 235.00 C 74.96 234.85 69.67 229.82 66.00 237.00
C 80.28 241.66 96.47 236.69 113.00 238.00 C 129.53 239.31 146.29 236.62 163.00 237.00 C 179.71 237.38 197.18 237.18 214.00 237.00 C 230.82 236.82 247.76 239.03 264.33 237.33 C 280.90 235.63 296.20 236.84 313.00 237.00 C 329.80 237.16 347.15 236.88 364.00 237.00
C 363.42 244.16 361.43 256.92 363.00 264.00 C 364.57 271.07 360.44 285.51 369.33 284.33 C 378.21 283.15 372.07 271.68 373.00 264.00 C 373.93 256.32 373.05 244.60 372.00 237.00
C 381.43 236.79 389.60 237.77 399.00 238.00 C 408.40 238.23 416.49 236.61 426.00 237.00 C 435.51 237.39 443.42 236.51 453.00 236.00 C 462.58 235.49 468.86 237.31 478.99 237.99 C 489.12 238.68 484.43 224.27 475.69 228.69 C 466.96 233.12 459.45 230.13 450.00 231.00
C 459.62 223.62 459.12 210.55 452.00 202.00
C 463.70 206.60 453.49 222.35 463.75 227.24 C 474.02 232.14 474.78 213.62 469.77 206.23 C 464.76 198.84 460.25 191.44 450.67 188.33 C 441.09 185.22 427.81 185.55 418.01 188.01 C 408.21 190.47 399.85 193.49 391.00 198.00
C 393.48 192.49 402.92 189.45 406.77 184.77 C 410.62 180.09 421.24 176.78 418.92 169.08 C 416.60 161.39 405.09 170.87 402.00 174.00
C 410.90 161.47 393.76 158.04 391.77 168.77 C 389.78 179.50 383.61 185.60 388.00 193.00
C 381.96 195.51 389.56 203.88 382.00 205.00
C 389.39 194.81 378.68 181.63 368.00 185.00
C 375.90 181.17 382.26 174.02 384.70 165.70 C 387.13 157.37 397.92 154.47 401.00 147.00
C 373.42 137.84 355.24 169.96 343.00 188.00
C 359.99 161.46 360.66 127.65 346.00 100.00
C 337.53 100.63 344.90 113.42 341.00 118.00
C 336.65 112.56 332.98 103.86 327.75 99.25 C 322.52 94.64 317.61 84.75 309.70 87.70 C 301.79 90.65 311.95 101.58 316.00 105.00
C 307.66 101.33 298.94 98.55 291.00 94.00
M 276.00 105.00 
C 284.10 105.48 293.62 108.34 301.22 111.78 C 308.82 115.21 315.15 118.51 321.25 124.75 C 327.34 131.00 330.15 137.51 332.93 146.07 C 335.71 154.63 335.06 165.66 332.67 174.67 C 330.29 183.69 326.73 188.64 322.25 197.25 C 317.77 205.85 308.95 205.59 300.98 208.98 C 293.00 212.36 287.08 214.37 282.70 223.70 C 278.31 233.03 272.78 233.06 268.23 223.77 C 263.68 214.48 257.58 212.67 249.77 209.23 C 241.96 205.79 232.60 206.67 228.25 197.75 C 223.90 188.84 220.35 184.15 218.02 174.98 C 215.70 165.80 215.97 155.05 218.33 146.33 C 220.68 137.61 225.02 131.96 230.25 125.25 C 235.48 118.53 241.43 114.38 249.08 111.08 C 256.72 107.77 266.33 104.43 275.00 105.00
M 324.00 205.00 
C 328.84 196.35 335.76 187.96 338.00 178.00
C 337.99 186.51 332.90 201.19 324.00 205.00
M 226.00 205.00 
C 217.48 202.06 216.34 189.60 213.00 182.00
C 217.26 189.45 221.71 197.53 226.00 205.00
M 364.00 189.00 
C 354.38 199.10 380.15 207.71 375.00 194.00
C 381.90 200.03 371.20 206.13 364.77 210.77 C 358.34 215.41 346.41 213.53 340.00 208.00
C 345.92 200.45 355.92 194.85 364.00 189.00
M 161.00 204.00 
C 150.31 204.80 138.97 196.12 127.00 197.00
C 138.26 194.35 149.89 201.78 161.00 204.00
M 444.00 212.00 
C 440.71 204.63 429.44 207.63 427.08 215.08 C 424.72 222.52 429.43 230.70 438.00 231.00
C 391.31 232.65 341.28 232.35 295.00 232.00
C 305.46 227.37 327.30 239.24 327.00 220.00
C 339.34 224.42 351.59 218.74 364.02 223.98 C 376.46 229.22 384.95 229.34 399.67 229.67 C 414.39 230.00 415.88 211.33 401.00 213.00 C 386.12 214.67 379.39 220.94 365.00 217.00
C 372.80 214.53 381.04 211.57 388.68 208.68 C 396.32 205.79 405.94 202.36 413.67 200.67 C 421.40 198.99 434.68 195.44 441.08 200.92 C 447.48 206.41 454.80 212.20 449.74 220.74 C 444.69 229.28 429.86 214.94 444.00 212.00
M 187.00 219.00 
C 179.69 220.30 165.22 221.21 158.33 217.67 C 151.43 214.14 134.09 216.07 137.78 225.22 C 141.48 234.38 155.29 232.21 163.22 231.22 C 171.15 230.23 181.22 229.89 189.07 225.07 C 196.93 220.26 204.95 227.38 214.07 223.07 C 223.20 218.76 226.71 231.46 235.00 233.00
C 195.80 233.92 154.00 235.84 115.00 234.00
C 134.00 228.34 120.50 201.54 105.00 214.00
C 104.98 217.37 109.27 218.25 112.00 218.00
C 111.51 235.65 94.65 220.76 100.93 210.93 C 107.20 201.09 118.11 199.57 128.67 200.33 C 139.23 201.09 148.26 206.22 158.22 208.78 C 168.19 211.33 177.51 215.16 187.00 219.00
M 229.00 212.00 
C 221.45 214.61 212.61 220.01 205.00 218.00
C 213.12 217.32 221.19 209.42 229.00 212.00
M 344.00 216.00 
C 337.04 218.59 328.70 214.70 322.00 212.00
C 328.67 210.63 337.06 214.00 344.00 216.00
M 315.00 226.00 
C 321.48 220.82 312.06 213.12 307.31 217.31 C 302.56 221.49 300.88 227.50 294.00 228.00
C 298.32 220.11 302.44 218.14 310.68 214.68 C 318.91 211.22 328.70 225.76 315.00 226.00
M 255.00 228.00 
C 247.60 228.21 249.13 222.00 243.75 218.25 C 238.37 214.50 230.17 220.09 235.00 227.00
C 225.22 224.33 231.16 214.01 239.00 215.00 C 246.85 216.00 253.00 220.27 255.00 228.00
M 391.00 224.00 
C 393.67 221.92 402.97 214.23 406.25 219.75 C 409.52 225.27 393.86 226.83 391.00 224.00
M 254.00 232.00 
C 250.40 233.59 243.53 233.71 240.00 232.00
C 244.40 229.85 249.60 229.20 254.00 232.00 Z"/>
</g>
<g fill="None" fill-opacity="0.0" stroke="#FFFFFF" stroke-opacity="1.00" stroke-width="0.3"><path d="
M 202.00 86.00 
C 201.51 83.38 200.94 80.65 198.00 80.00
C 196.87 83.45 195.74 87.51 191.00 86.00
C 191.84 90.76 195.36 93.38 193.00 99.00
C 197.49 95.64 201.41 96.29 206.00 99.00
C 204.84 94.25 202.81 89.87 209.00 88.00
C 208.07 84.97 204.35 86.26 202.00 86.00 Z"/>
</g>
<g fill="None" fill-opacity="0.0" stroke="#FFFFFF" stroke-opacity="1.00" stroke-width="0.3"><path d="
M 366.00 90.00 
C 359.00 92.71 359.59 85.50 355.00 84.00
C 355.76 90.83 348.90 88.77 346.00 92.00
C 351.15 93.06 351.54 97.94 350.00 102.00
C 352.94 102.57 354.44 99.70 357.00 99.00
C 358.49 100.39 360.55 102.44 363.00 102.00
C 360.45 96.64 363.65 94.01 366.00 90.00 Z"/>
</g>
<g fill="None" fill-opacity="0.0" stroke="#000000" stroke-opacity="0.00" stroke-width="0.3"><path d="
M 275.00 105.00 
C 266.33 104.43 256.72 107.77 249.08 111.08 C 241.43 114.38 235.48 118.53 230.25 125.25 C 225.02 131.96 220.68 137.61 218.33 146.33 C 215.97 155.05 215.70 165.80 218.02 174.98 C 220.35 184.15 223.90 188.84 228.25 197.75 C 232.60 206.67 241.96 205.79 249.77 209.23 C 257.58 212.67 263.68 214.48 268.23 223.77 C 272.78 233.06 278.31 233.03 282.70 223.70 C 287.08 214.37 293.00 212.36 300.98 208.98 C 308.95 205.59 317.77 205.85 322.25 197.25 C 326.73 188.64 330.29 183.69 332.67 174.67 C 335.06 165.66 335.71 154.63 332.93 146.07 C 330.15 137.51 327.34 131.00 321.25 124.75 C 315.15 118.51 308.82 115.21 301.22 111.78 C 293.62 108.34 284.10 105.48 276.00 105.00
M 301.00 147.00 
C 289.12 147.09 283.35 158.59 289.98 169.02 C 296.60 179.46 288.27 190.68 277.00 191.00 C 265.72 191.32 254.84 181.09 260.93 169.93 C 267.02 158.77 264.48 149.21 251.00 148.00
C 251.00 162.33 251.00 176.67 251.00 191.00
C 237.39 193.18 242.72 178.97 242.00 169.00 C 241.28 159.03 242.70 151.08 241.20 140.75 C 239.70 130.43 251.12 133.77 258.25 138.75 C 265.37 143.74 269.67 145.08 273.92 154.08 C 278.17 163.07 264.41 171.47 270.78 180.22 C 277.15 188.97 285.95 175.02 279.23 167.77 C 272.51 160.52 276.57 152.52 282.25 146.25 C 287.94 139.99 291.98 138.55 301.08 134.08 C 310.17 129.61 310.93 140.44 309.00 151.00 C 307.07 161.56 309.49 169.04 310.00 181.00 C 310.50 192.97 298.66 192.37 301.00 179.00 C 303.34 165.63 299.24 159.70 301.00 147.00 Z"/>
</g>
<g fill="None" fill-opacity="0.0" stroke="#FFFFFF" stroke-opacity="1.00" stroke-width="0.3"><path d="
M 301.00 147.00 
C 299.24 159.70 303.34 165.63 301.00 179.00 C 298.66 192.37 310.50 192.97 310.00 181.00 C 309.49 169.04 307.07 161.56 309.00 151.00 C 310.93 140.44 310.17 129.61 301.08 134.08 C 291.98 138.55 287.94 139.99 282.25 146.25 C 276.57 152.52 272.51 160.52 279.23 167.77 C 285.95 175.02 277.15 188.97 270.78 180.22 C 264.41 171.47 278.17 163.07 273.92 154.08 C 269.67 145.08 265.37 143.74 258.25 138.75 C 251.12 133.77 239.70 130.43 241.20 140.75 C 242.70 151.08 241.28 159.03 242.00 169.00 C 242.72 178.97 237.39 193.18 251.00 191.00
C 251.00 176.67 251.00 162.33 251.00 148.00
C 264.48 149.21 267.02 158.77 260.93 169.93 C 254.84 181.09 265.72 191.32 277.00 191.00 C 288.27 190.68 296.60 179.46 289.98 169.02 C 283.35 158.59 289.12 147.09 301.00 147.00 Z"/>
</g>
<g fill="None" fill-opacity="0.0" stroke="#FDFDFD" stroke-opacity="1.00" stroke-width="0.3"><path d="
M 160.00 191.00 
C 168.69 194.25 161.72 182.34 160.32 177.68 C 158.93 173.02 157.44 163.51 150.70 162.36 C 143.95 161.20 144.55 173.42 148.00 177.00
C 146.20 171.77 130.86 165.35 130.01 172.99 C 129.15 180.63 140.01 184.15 144.30 188.70 C 148.60 193.24 158.02 195.03 163.00 199.00
C 165.57 195.82 160.39 194.10 160.00 191.00 Z"/>
</g>
<g fill="None" fill-opacity="0.0" stroke="#000000" stroke-opacity="0.00" stroke-width="0.3"><path d="
M 324.00 205.00 
C 332.90 201.19 337.99 186.51 338.00 178.00
C 335.76 187.96 328.84 196.35 324.00 205.00 Z"/>
</g>
<g fill="None" fill-opacity="0.0" stroke="#000000" stroke-opacity="0.02" stroke-width="0.3"><path d="
M 226.00 205.00 
C 221.71 197.53 217.26 189.45 213.00 182.00
C 216.34 189.60 217.48 202.06 226.00 205.00 Z"/>
</g>
<g fill="None" fill-opacity="0.0" stroke="#000000" stroke-opacity="0.00" stroke-width="0.3"><path d="
M 364.00 189.00 
C 355.92 194.85 345.92 200.45 340.00 208.00
C 346.41 213.53 358.34 215.41 364.77 210.77 C 371.20 206.13 381.90 200.03 375.00 194.00
C 380.15 207.71 354.38 199.10 364.00 189.00 Z"/>
</g>
<g fill="None" fill-opacity="0.0" stroke="#000000" stroke-opacity="0.05" stroke-width="0.3"><path d="
M 161.00 204.00 
C 149.89 201.78 138.26 194.35 127.00 197.00
C 138.97 196.12 150.31 204.80 161.00 204.00 Z"/>
</g>
<g fill="None" fill-opacity="0.0" stroke="#000000" stroke-opacity="0.00" stroke-width="0.3"><path d="
M 444.00 212.00 
C 429.86 214.94 444.69 229.28 449.74 220.74 C 454.80 212.20 447.48 206.41 441.08 200.92 C 434.68 195.44 421.40 198.99 413.67 200.67 C 405.94 202.36 396.32 205.79 388.68 208.68 C 381.04 211.57 372.80 214.53 365.00 217.00
C 379.39 220.94 386.12 214.67 401.00 213.00 C 415.88 211.33 414.39 230.00 399.67 229.67 C 384.95 229.34 376.46 229.22 364.02 223.98 C 351.59 218.74 339.34 224.42 327.00 220.00
C 327.30 239.24 305.46 227.37 295.00 232.00
C 341.28 232.35 391.31 232.65 438.00 231.00
C 429.43 230.70 424.72 222.52 427.08 215.08 C 429.44 207.63 440.71 204.63 444.00 212.00 Z"/>
</g>
<g fill="None" fill-opacity="0.0" stroke="#000000" stroke-opacity="0.00" stroke-width="0.3"><path d="
M 187.00 219.00 
C 177.51 215.16 168.19 211.33 158.22 208.78 C 148.26 206.22 139.23 201.09 128.67 200.33 C 118.11 199.57 107.20 201.09 100.93 210.93 C 94.65 220.76 111.51 235.65 112.00 218.00
C 109.27 218.25 104.98 217.37 105.00 214.00
C 120.50 201.54 134.00 228.34 115.00 234.00
C 154.00 235.84 195.80 233.92 235.00 233.00
C 226.71 231.46 223.20 218.76 214.07 223.07 C 204.95 227.38 196.93 220.26 189.07 225.07 C 181.22 229.89 171.15 230.23 163.22 231.22 C 155.29 232.21 141.48 234.38 137.78 225.22 C 134.09 216.07 151.43 214.14 158.33 217.67 C 165.22 221.21 179.69 220.30 187.00 219.00 Z"/>
</g>
<g fill="None" fill-opacity="0.0" stroke="#000000" stroke-opacity="0.00" stroke-width="0.3"><path d="
M 229.00 212.00 
C 221.19 209.42 213.12 217.32 205.00 218.00
C 212.61 220.01 221.45 214.61 229.00 212.00 Z"/>
</g>
<g fill="None" fill-opacity="0.0" stroke="#000000" stroke-opacity="0.00" stroke-width="0.3"><path d="
M 344.00 216.00 
C 337.06 214.00 328.67 210.63 322.00 212.00
C 328.70 214.70 337.04 218.59 344.00 216.00 Z"/>
</g>
<g fill="None" fill-opacity="0.0" stroke="#000000" stroke-opacity="0.00" stroke-width="0.3"><path d="
M 315.00 226.00 
C 328.70 225.76 318.91 211.22 310.68 214.68 C 302.44 218.14 298.32 220.11 294.00 228.00
C 300.88 227.50 302.56 221.49 307.31 217.31 C 312.06 213.12 321.48 220.82 315.00 226.00 Z"/>
</g>
<g fill="None" fill-opacity="0.0" stroke="#000000" stroke-opacity="0.00" stroke-width="0.3"><path d="
M 255.00 228.00 
C 253.00 220.27 246.85 216.00 239.00 215.00 C 231.16 214.01 225.22 224.33 235.00 227.00
C 230.17 220.09 238.37 214.50 243.75 218.25 C 249.13 222.00 247.60 228.21 255.00 228.00 Z"/>
</g>
<g fill="None" fill-opacity="0.0" stroke="#000000" stroke-opacity="0.00" stroke-width="0.3"><path d="
M 391.00 224.00 
C 393.86 226.83 409.52 225.27 406.25 219.75 C 402.97 214.23 393.67 221.92 391.00 224.00 Z"/>
</g>
<g fill="None" fill-opacity="0.0" stroke="#000000" stroke-opacity="0.00" stroke-width="0.3"><path d="
M 254.00 232.00 
C 249.60 229.20 244.40 229.85 240.00 232.00
C 243.53 233.71 250.40 233.59 254.00 232.00 Z"/>
</g>
<g fill="None" fill-opacity="0.0" stroke="#FFFFFF" stroke-opacity="1.00" stroke-width="0.3"><path d="
M 278.00 247.00 
C 282.42 249.02 290.49 244.25 285.74 239.26 C 281.00 234.26 275.30 241.74 278.00 247.00 Z"/>
</g>
<g fill="None" fill-opacity="0.0" stroke="#FFFFFF" stroke-opacity="1.00" stroke-width="0.3"><path d="
M 110.00 256.00 
C 104.00 251.28 104.56 247.10 98.23 241.77 C 91.90 236.44 88.56 244.62 89.00 252.00 C 89.44 259.38 90.10 269.52 89.00 277.00 C 87.90 284.48 96.26 292.08 98.00 283.00 C 99.74 273.92 96.69 266.90 98.00 258.00
C 103.01 258.34 104.45 267.93 109.97 266.97 C 115.49 266.02 116.93 259.68 120.00 256.00
C 123.12 265.18 119.28 270.37 121.00 281.00 C 122.72 291.62 131.16 284.94 130.00 276.00 C 128.85 267.06 131.33 260.97 130.33 252.67 C 129.33 244.37 128.76 236.07 121.25 242.25 C 113.74 248.43 115.89 249.74 110.00 256.00 Z"/>
</g>
<g fill="None" fill-opacity="0.0" stroke="#FFFFFF" stroke-opacity="1.00" stroke-width="0.3"><path d="
M 314.00 248.00 
C 300.80 247.77 293.22 251.54 293.00 266.00 C 292.78 280.46 297.70 285.24 313.00 285.00 C 328.30 284.76 333.84 282.29 334.00 267.00 C 334.16 251.71 327.85 248.24 314.00 248.00
M 326.00 264.00 
C 317.74 263.39 308.82 265.26 301.00 263.00
C 303.26 253.01 325.50 252.42 326.00 264.00
M 325.00 271.00 
C 324.65 280.19 303.09 280.23 302.00 271.00
C 309.67 271.00 317.33 271.00 325.00 271.00 Z"/>
</g>
<g fill="None" fill-opacity="0.0" stroke="#FFFFFF" stroke-opacity="1.00" stroke-width="0.3"><path d="
M 453.00 248.00 
C 445.23 246.74 435.93 247.65 428.03 249.03 C 420.12 250.41 428.42 264.90 425.00 272.00 C 421.58 279.10 431.77 288.80 434.00 279.00 C 436.23 269.20 429.97 260.26 438.00 257.00 C 446.03 253.74 457.76 257.40 457.00 264.00 C 456.24 270.60 455.48 285.57 462.92 283.92 C 470.36 282.27 464.48 266.82 465.98 261.02 C 467.47 255.23 457.59 248.75 453.00 248.00 Z"/>
</g>
<g fill="None" fill-opacity="0.0" stroke="#FFFFFF" stroke-opacity="1.00" stroke-width="0.3"><path d="
M 387.00 249.00 
C 379.69 249.34 376.80 254.42 379.00 262.00 C 381.20 269.58 376.67 274.27 380.08 281.92 C 383.50 289.56 390.73 277.76 388.00 273.00 C 385.27 268.24 387.90 256.24 393.00 257.00 C 398.10 257.76 407.25 253.40 410.74 258.26 C 414.24 263.12 411.56 270.69 412.00 278.00 C 412.45 285.30 421.50 284.93 420.00 277.00 C 418.50 269.07 421.77 262.98 419.30 256.70 C 416.83 250.41 411.64 249.34 406.00 249.00 C 400.36 248.66 391.66 248.78 387.00 249.00 Z"/>
</g>
<g fill="None" fill-opacity="0.0" stroke="#FFFFFF" stroke-opacity="1.00" stroke-width="0.3"><path d="
M 217.00 286.00 
C 218.39 294.83 202.95 295.78 198.03 293.97 C 193.10 292.17 184.63 280.79 184.03 290.98 C 183.42 301.16 194.63 300.45 201.00 301.00 C 207.37 301.55 218.44 302.15 222.69 295.69 C 226.95 289.24 224.49 278.85 225.00 271.00 C 225.51 263.15 227.23 250.72 218.00 251.00 C 208.77 251.28 201.66 249.40 193.08 251.08 C 184.49 252.75 183.39 261.11 183.00 268.00 C 182.61 274.89 184.43 283.90 192.33 285.67 C 200.23 287.44 208.80 285.45 217.00 286.00
M 212.00 257.00 
C 217.83 258.77 221.25 276.35 212.77 278.77 C 204.29 281.19 191.32 279.91 192.00 269.00 C 192.68 258.09 201.22 253.73 212.00 257.00 Z"/>
</g>
<g fill="None" fill-opacity="0.0" stroke="#FFFFFF" stroke-opacity="1.00" stroke-width="0.3"><path d="
M 239.00 286.00 
C 247.40 286.08 256.59 286.57 264.32 284.32 C 272.05 282.08 273.51 272.91 272.99 266.01 C 272.47 259.10 270.31 250.85 262.00 250.00 C 253.69 249.15 244.87 250.63 236.67 250.33 C 228.47 250.04 230.51 263.45 231.00 271.00 C 231.49 278.54 228.94 286.91 231.08 295.92 C 233.21 304.94 244.28 294.26 239.00 286.00
M 260.00 257.00 
C 266.01 258.82 268.50 276.71 259.32 278.32 C 250.14 279.93 238.86 279.80 239.00 268.00 C 239.14 256.20 250.04 253.98 260.00 257.00 Z"/>
</g>
<g fill="None" fill-opacity="0.0" stroke="#FFFFFF" stroke-opacity="1.00" stroke-width="0.3"><path d="
M 284.00 250.00 
C 277.07 247.15 276.39 261.43 278.00 266.00 C 279.61 270.57 273.80 281.91 280.33 284.67 C 286.85 287.43 287.27 273.62 286.00 269.00 C 284.73 264.38 288.97 252.04 284.00 250.00 Z"/>
</g>
<g fill="None" fill-opacity="0.0" stroke="#FFFFFF" stroke-opacity="1.00" stroke-width="0.3"><path d="
M 170.00 264.00 
C 162.45 264.42 151.26 262.73 144.70 265.70 C 138.13 268.67 134.40 275.98 139.25 281.75 C 144.11 287.51 153.96 287.72 161.00 287.00 C 168.04 286.28 179.07 288.72 178.00 280.00 C 176.93 271.28 180.12 262.10 175.25 255.75 C 170.38 249.41 160.05 250.29 154.00 251.00 C 147.95 251.72 137.42 251.90 137.01 260.99 C 136.60 270.08 146.53 260.46 150.00 258.00 C 153.47 255.54 171.14 257.01 170.00 264.00
M 164.00 271.00 
C 176.10 273.29 162.65 285.17 151.33 279.67 C 140.01 274.17 153.17 268.95 164.00 271.00 Z"/>
</g>
<g fill="None" fill-opacity="0.0" stroke="#000000" stroke-opacity="0.00" stroke-width="0.3"><path d="
M 326.00 264.00 
C 325.50 252.42 303.26 253.01 301.00 263.00
C 308.82 265.26 317.74 263.39 326.00 264.00 Z"/>
</g>
<g fill="None" fill-opacity="0.0" stroke="#000000" stroke-opacity="0.00" stroke-width="0.3"><path d="
M 212.00 257.00 
C 201.22 253.73 192.68 258.09 192.00 269.00 C 191.32 279.91 204.29 281.19 212.77 278.77 C 221.25 276.35 217.83 258.77 212.00 257.00 Z"/>
</g>
<g fill="None" fill-opacity="0.0" stroke="#000000" stroke-opacity="0.00" stroke-width="0.3"><path d="
M 260.00 257.00 
C 250.04 253.98 239.14 256.20 239.00 268.00 C 238.86 279.80 250.14 279.93 259.32 278.32 C 268.50 276.71 266.01 258.82 260.00 257.00 Z"/>
</g>
<g fill="None" fill-opacity="0.0" stroke="#000000" stroke-opacity="0.00" stroke-width="0.3"><path d="
M 164.00 271.00 
C 153.17 268.95 140.01 274.17 151.33 279.67 C 162.65 285.17 176.10 273.29 164.00 271.00 Z"/>
</g>
<g fill="None" fill-opacity="0.0" stroke="#000000" stroke-opacity="0.00" stroke-width="0.3"><path d="
M 325.00 271.00 
C 317.33 271.00 309.67 271.00 302.00 271.00
C 303.09 280.23 324.65 280.19 325.00 271.00 Z"/>
</g>
<g fill="None" fill-opacity="0.0" stroke="#FFFFFF" stroke-opacity="1.00" stroke-width="0.3"><path d="
M 97.00 352.00 
C 97.76 341.90 92.67 327.94 106.00 329.00 C 119.33 330.07 123.03 329.05 122.00 344.00 C 120.97 358.95 132.25 353.12 130.00 342.00 C 127.75 330.88 127.88 324.81 130.00 315.00 C 132.12 305.19 125.01 295.53 116.00 297.00 C 106.99 298.47 92.67 292.66 89.00 301.00 C 85.33 309.34 90.74 324.68 89.00 333.00 C 87.26 341.32 86.86 357.24 97.00 352.00
M 123.00 307.00 
C 127.11 324.64 108.57 321.19 97.00 321.00
C 97.00 315.67 97.00 310.33 97.00 305.00
C 105.88 304.89 114.76 304.55 123.00 307.00 Z"/>
</g>
<g fill="None" fill-opacity="0.0" stroke="#FFFFFF" stroke-opacity="1.00" stroke-width="0.3"><path d="
M 450.00 313.00 
C 449.67 309.18 451.11 298.15 445.08 298.08 C 439.04 298.00 441.40 309.37 441.00 313.00
C 434.17 315.14 441.65 324.13 441.07 329.93 C 440.49 335.72 442.45 345.25 447.31 348.69 C 452.16 352.13 464.02 350.66 468.75 347.75 C 473.49 344.84 477.31 333.10 468.00 334.00
C 467.74 341.32 458.98 345.30 453.08 341.92 C 447.17 338.55 448.23 328.73 449.08 322.08 C 449.94 315.44 467.19 324.85 468.66 317.68 C 470.14 310.51 454.37 313.44 450.00 313.00 Z"/>
</g>
<g fill="None" fill-opacity="0.0" stroke="#FFFFFF" stroke-opacity="1.00" stroke-width="0.3"><path d="
M 221.00 300.00 
C 214.23 297.48 215.39 312.53 212.76 315.75 C 210.12 318.98 216.92 327.95 215.00 334.00 C 213.08 340.05 216.33 348.01 222.31 350.69 C 228.28 353.38 236.53 351.89 242.75 349.75 C 248.98 347.61 248.20 334.73 243.08 337.08 C 237.96 339.44 234.91 349.72 227.23 344.77 C 219.55 339.82 222.78 334.68 222.03 326.03 C 221.28 317.37 237.47 326.42 241.24 321.25 C 245.02 316.08 234.61 312.63 227.01 314.99 C 219.41 317.36 225.21 301.57 221.00 300.00 Z"/>
</g>
<g fill="None" fill-opacity="0.0" stroke="#000000" stroke-opacity="0.00" stroke-width="0.3"><path d="
M 123.00 307.00 
C 114.76 304.55 105.88 304.89 97.00 305.00
C 97.00 310.33 97.00 315.67 97.00 321.00
C 108.57 321.19 127.11 324.64 123.00 307.00 Z"/>
</g>
<g fill="None" fill-opacity="0.0" stroke="#FFFFFF" stroke-opacity="1.00" stroke-width="0.3"><path d="
M 363.00 329.00 
C 360.75 335.25 357.26 342.44 363.77 348.23 C 370.28 354.02 377.92 348.76 386.32 350.34 C 394.72 351.92 396.50 343.69 395.01 335.01 C 393.52 326.33 399.07 323.33 390.25 315.75 C 381.43 308.18 351.28 313.80 363.00 329.00
M 386.00 327.00 
C 380.54 325.36 373.44 325.37 368.00 327.00
C 368.37 319.13 386.07 317.82 386.00 327.00
M 384.00 334.00 
C 390.25 337.23 384.48 343.86 379.00 343.00 C 373.52 342.14 366.81 342.60 368.78 336.78 C 370.75 330.96 380.99 332.44 384.00 334.00 Z"/>
</g>
<g fill="None" fill-opacity="0.0" stroke="#FFFFFF" stroke-opacity="1.00" stroke-width="0.3"><path d="
M 425.00 313.00 
C 418.71 311.09 407.44 313.28 401.03 313.03 C 394.62 312.78 399.04 329.39 398.00 333.00 C 396.96 336.61 396.82 352.85 402.92 350.92 C 409.02 348.99 408.23 338.52 407.00 332.00 C 405.77 325.48 411.41 318.32 418.97 321.03 C 426.53 323.74 425.35 332.11 424.00 339.00 C 422.65 345.89 427.35 354.65 432.74 348.74 C 438.14 342.84 432.54 332.60 433.93 327.07 C 435.32 321.54 429.12 314.25 425.00 313.00 Z"/>
</g>
<g fill="None" fill-opacity="0.0" stroke="#FFFFFF" stroke-opacity="1.00" stroke-width="0.3"><path d="
M 281.00 351.00 
C 283.74 344.87 280.72 336.44 282.00 330.00 C 283.28 323.56 280.18 318.46 275.23 315.77 C 270.28 313.08 261.59 313.19 257.23 315.23 C 252.87 317.26 245.90 321.54 249.25 327.75 C 252.60 333.96 256.74 322.54 260.00 322.00 C 263.26 321.46 276.99 320.41 275.00 328.00
C 263.35 325.62 245.35 329.60 250.03 343.97 C 254.70 358.35 271.13 349.04 281.00 351.00
M 273.00 335.00 
C 278.96 338.08 272.76 345.09 267.99 344.99 C 263.22 344.89 255.28 344.33 256.79 338.77 C 258.29 333.21 269.54 333.21 273.00 335.00 Z"/>
</g>
<g fill="None" fill-opacity="0.0" stroke="#FFFFFF" stroke-opacity="1.00" stroke-width="0.3"><path d="
M 289.00 314.00 
C 285.58 320.12 287.42 331.49 287.02 337.98 C 286.63 344.47 292.31 352.44 299.00 351.00 C 305.69 349.56 316.80 354.93 320.22 348.22 C 323.65 341.51 319.09 333.56 321.00 324.00 C 322.91 314.44 313.31 311.95 313.00 322.00 C 312.69 332.05 316.62 338.57 310.00 344.00 C 303.38 349.43 292.56 340.78 294.00 334.00 C 295.45 327.22 295.98 315.33 289.00 314.00 Z"/>
</g>
<g fill="None" fill-opacity="0.0" stroke="#FFFFFF" stroke-opacity="1.00" stroke-width="0.3"><path d="
M 333.00 323.00 
C 337.58 322.33 348.13 317.02 350.70 324.30 C 353.26 331.59 360.73 327.73 357.77 321.23 C 354.81 314.73 349.38 313.30 343.00 314.00 C 336.62 314.70 325.46 310.58 325.00 319.00 C 324.54 327.42 326.33 332.29 325.00 341.00 C 323.67 349.71 331.18 352.99 332.01 344.01 C 332.84 335.03 333.42 331.78 333.00 323.00 Z"/>
</g>
<g fill="None" fill-opacity="0.0" stroke="#FFFFFF" stroke-opacity="1.00" stroke-width="0.3"><path d="
M 193.00 315.00 
C 185.27 314.31 178.74 316.22 173.75 321.75 C 168.77 327.29 175.42 336.55 180.78 337.22 C 186.13 337.89 203.46 337.18 196.23 344.23 C 188.99 351.28 183.77 344.61 178.69 339.31 C 173.62 334.00 169.52 348.02 177.31 350.69 C 185.09 353.37 192.03 354.69 198.77 351.77 C 205.51 348.85 208.77 341.40 203.92 335.08 C 199.06 328.76 191.29 332.79 183.01 329.99 C 174.73 327.19 187.18 320.01 192.78 322.22 C 198.37 324.43 203.72 335.03 205.99 327.01 C 208.27 318.99 197.47 315.40 193.00 315.00 Z"/>
</g>
<g fill="None" fill-opacity="0.0" stroke="#FFFFFF" stroke-opacity="1.00" stroke-width="0.3"><path d="
M 165.00 350.00 
C 167.40 337.32 172.45 318.78 155.00 316.00 C 137.55 313.22 129.96 325.90 133.01 341.99 C 136.06 358.08 153.88 353.24 165.00 350.00
M 160.00 331.00 
C 153.33 331.00 146.67 331.00 140.00 331.00
C 138.02 319.63 162.38 319.25 160.00 331.00
M 161.00 338.00 
C 160.73 348.46 140.68 349.81 140.00 339.00
C 146.51 336.77 154.08 338.59 161.00 338.00 Z"/>
</g>
<g fill="None" fill-opacity="0.0" stroke="#000000" stroke-opacity="0.00" stroke-width="0.3"><path d="
M 386.00 327.00 
C 386.07 317.82 368.37 319.13 368.00 327.00
C 373.44 325.37 380.54 325.36 386.00 327.00 Z"/>
</g>
<g fill="None" fill-opacity="0.0" stroke="#000000" stroke-opacity="0.00" stroke-width="0.3"><path d="
M 160.00 331.00 
C 162.38 319.25 138.02 319.63 140.00 331.00
C 146.67 331.00 153.33 331.00 160.00 331.00 Z"/>
</g>
<g fill="None" fill-opacity="0.0" stroke="#000000" stroke-opacity="0.00" stroke-width="0.3"><path d="
M 384.00 334.00 
C 380.99 332.44 370.75 330.96 368.78 336.78 C 366.81 342.60 373.52 342.14 379.00 343.00 C 384.48 343.86 390.25 337.23 384.00 334.00 Z"/>
</g>
<g fill="None" fill-opacity="0.0" stroke="#000000" stroke-opacity="0.00" stroke-width="0.3"><path d="
M 273.00 335.00 
C 269.54 333.21 258.29 333.21 256.79 338.77 C 255.28 344.33 263.22 344.89 267.99 344.99 C 272.76 345.09 278.96 338.08 273.00 335.00 Z"/>
</g>
<g fill="None" fill-opacity="0.0" stroke="#000000" stroke-opacity="0.00" stroke-width="0.3"><path d="
M 161.00 338.00 
C 154.08 338.59 146.51 336.77 140.00 339.00
C 140.68 349.81 160.73 348.46 161.00 338.00 Z"/>
</g>
<g fill="None" fill-opacity="0.0" stroke="#FFFFFF" stroke-opacity="1.00" stroke-width="0.3"><path d="
M 406.00 363.00 
C 415.85 366.08 425.09 358.89 434.99 363.01 C 444.90 367.12 451.53 356.90 441.22 356.22 C 430.91 355.54 424.86 360.31 415.00 359.00 C 405.14 357.69 397.68 359.19 388.00 359.00 C 378.32 358.81 369.48 360.14 360.00 360.00 C 350.52 359.86 343.01 358.29 334.00 360.00
C 344.01 364.08 357.61 360.18 368.00 363.00
C 362.10 365.63 352.01 372.28 345.01 369.99 C 338.01 367.70 333.63 359.13 324.00 361.00 C 314.37 362.87 305.48 359.32 296.01 360.01 C 286.54 360.70 276.56 361.91 283.75 370.25 C 290.94 378.58 292.73 377.91 298.08 385.92 C 303.42 393.94 297.06 399.66 290.70 403.70 C 284.34 407.73 277.44 414.35 282.75 422.25 C 288.06 430.14 302.74 420.07 293.00 415.00
C 286.98 424.33 284.79 412.64 291.77 409.77 C 298.75 406.90 301.30 404.22 306.75 399.75 C 312.20 395.27 310.77 386.50 307.75 381.25 C 304.73 375.99 298.42 372.38 298.00 366.00
C 313.43 360.77 318.11 369.15 331.78 373.22 C 345.45 377.29 333.74 395.01 321.00 386.00
C 335.98 384.77 319.72 366.67 313.32 377.32 C 306.92 387.97 317.80 395.03 327.98 394.98 C 338.15 394.92 347.52 386.44 345.00 375.00
C 353.93 371.10 365.33 372.06 373.78 366.78 C 382.23 361.50 397.49 365.76 390.00 377.00
C 391.65 369.60 381.18 366.38 378.78 372.78 C 376.38 379.17 382.69 382.65 388.00 384.00 C 393.31 385.34 399.16 378.01 399.00 373.00
C 407.66 383.12 416.58 369.66 406.00 363.00
M 335.00 370.00 
C 332.79 368.51 329.12 368.93 328.00 366.00
C 330.54 366.17 334.71 367.09 335.00 370.00 Z"/>
</g>
<g fill="None" fill-opacity="0.0" stroke="#FFFFFF" stroke-opacity="1.00" stroke-width="0.3"><path d="
M 214.00 363.00 
C 208.45 360.93 200.34 362.32 194.00 362.00 C 187.66 361.68 180.13 362.20 174.00 362.00 C 167.88 361.81 162.97 362.87 157.00 363.00 C 151.03 363.13 142.58 363.84 137.00 363.00 C 131.42 362.16 121.92 365.71 117.69 362.31 C 113.47 358.90 102.26 366.85 114.00 366.00 C 125.73 365.14 138.61 365.22 151.00 365.00
C 139.46 370.97 147.05 385.77 156.00 374.00
C 157.72 377.26 158.44 382.34 162.32 384.68 C 166.21 387.02 171.40 385.16 174.08 382.08 C 176.75 378.99 176.80 371.45 171.08 372.08 C 165.36 372.70 168.02 378.75 171.00 380.00
C 152.64 382.79 167.17 359.98 178.78 366.22 C 190.38 372.47 197.54 374.15 210.00 376.00
C 207.68 386.21 216.54 396.49 226.00 396.00 C 235.46 395.51 248.51 391.17 242.25 379.75 C 235.98 368.33 221.09 388.70 237.00 385.00
C 233.88 391.15 219.71 394.99 216.33 384.67 C 212.95 374.35 226.58 375.30 232.75 369.75 C 238.93 364.20 251.70 366.38 260.00 365.00
C 257.46 375.73 242.14 385.50 248.08 396.92 C 254.02 408.33 272.78 406.32 269.00 421.00
C 266.11 420.92 264.84 417.52 262.00 417.00
C 257.92 432.20 280.67 421.71 274.75 412.25 C 268.84 402.79 259.64 406.31 256.00 396.00
C 262.71 394.20 265.21 397.55 269.30 403.70 C 273.39 409.86 279.00 402.68 273.92 397.08 C 268.84 391.48 270.70 389.40 264.74 384.26 C 258.78 379.12 260.79 394.63 256.00 393.00
C 256.18 380.39 265.32 380.60 272.08 370.08 C 278.85 359.56 257.85 361.37 248.00 362.00 C 238.15 362.63 223.07 359.03 215.75 367.75 C 208.43 376.48 196.84 367.53 188.00 366.00
C 193.62 360.77 206.71 366.58 214.00 363.00
M 229.00 366.00 
C 228.24 368.85 224.15 371.06 221.00 371.00
C 222.67 368.14 226.39 367.75 229.00 366.00 Z"/>
</g>
<g fill="None" fill-opacity="0.0" stroke="#010101" stroke-opacity="0.07" stroke-width="0.3"><path d="
M 229.00 366.00 
C 226.39 367.75 222.67 368.14 221.00 371.00
C 224.15 371.06 228.24 368.85 229.00 366.00 Z"/>
</g>
<g fill="None" fill-opacity="0.0" stroke="#010101" stroke-opacity="0.08" stroke-width="0.3"><path d="
M 335.00 370.00 
C 334.71 367.09 330.54 366.17 328.00 366.00
C 329.12 368.93 332.79 368.51 335.00 370.00 Z"/>
</g>
<g fill="None" fill-opacity="0.0" stroke="#FFFFFF" stroke-opacity="1.00" stroke-width="0.3"><path d="
M 281.00 373.00 
C 279.46 377.85 277.89 395.06 284.75 389.75 C 291.61 384.44 285.44 376.04 281.00 373.00 Z"/>
</g>
<g fill="None" fill-opacity="0.0" stroke="#FFFFFF" stroke-opacity="1.00" stroke-width="0.3"><path d="
M 275.00 374.00 
C 266.30 376.22 266.22 391.20 276.00 392.00
C 275.65 386.02 276.88 379.59 275.00 374.00 Z"/>
</g>
<g fill="None" fill-opacity="0.0" stroke="#FFFFFF" stroke-opacity="1.00" stroke-width="0.3"><path d="
M 280.00 406.00 
C 287.52 406.88 288.23 399.76 294.23 394.23 C 300.23 388.69 293.24 378.94 288.77 387.77 C 284.30 396.60 280.68 396.31 280.00 406.00 Z"/>
</g>
<g fill="#000000" fill-opacity="0.00" stroke="None">
<path d="
M 0.00 489.00 
L 551.00 489.00
L 551.00 0.00
L 0.00 0.00
L 0.00 489.00
M 280.00 54.00 
C 279.36 61.10 285.60 57.44 288.00 62.00
C 282.71 63.61 284.58 67.81 285.00 72.00
C 282.77 72.11 279.93 71.21 279.00 69.00
C 276.63 69.03 275.28 71.50 273.00 72.00
C 270.67 69.50 273.82 66.90 273.00 64.00
C 266.60 63.76 270.29 55.91 275.00 60.00
C 276.39 57.63 275.60 52.93 280.00 54.00
M 239.00 69.00 
C 241.35 69.26 245.07 67.97 246.00 71.00
C 240.18 72.79 240.98 77.47 243.00 82.00
C 238.28 79.93 234.48 77.93 230.00 82.00
C 230.50 77.85 231.27 73.19 226.00 72.00
C 226.06 66.51 236.43 71.46 234.00 64.00
C 237.64 63.01 237.91 66.76 239.00 69.00
M 327.00 74.00 
C 329.35 74.26 333.07 72.97 334.00 76.00
C 328.64 77.76 328.98 81.61 331.00 86.00
C 328.54 86.53 325.87 85.42 325.00 83.00
C 322.44 83.70 320.94 86.57 318.00 86.00
C 319.21 81.46 319.06 77.72 314.00 76.00
C 317.17 72.83 323.37 74.75 323.00 68.00
C 326.28 67.77 326.28 71.79 327.00 74.00
M 291.00 94.00 
C 298.94 98.55 307.66 101.33 316.00 105.00
C 311.95 101.58 301.79 90.65 309.70 87.70 C 317.61 84.75 322.52 94.64 327.75 99.25 C 332.98 103.86 336.65 112.56 341.00 118.00
C 344.90 113.42 337.53 100.63 346.00 100.00
C 360.66 127.65 359.99 161.46 343.00 188.00
C 355.24 169.96 373.42 137.84 401.00 147.00
C 397.92 154.47 387.13 157.37 384.70 165.70 C 382.26 174.02 375.90 181.17 368.00 185.00
C 378.68 181.63 389.39 194.81 382.00 205.00
C 389.56 203.88 381.96 195.51 388.00 193.00
C 383.61 185.60 389.78 179.50 391.77 168.77 C 393.76 158.04 410.90 161.47 402.00 174.00
C 405.09 170.87 416.60 161.39 418.92 169.08 C 421.24 176.78 410.62 180.09 406.77 184.77 C 402.92 189.45 393.48 192.49 391.00 198.00
C 399.85 193.49 408.21 190.47 418.01 188.01 C 427.81 185.55 441.09 185.22 450.67 188.33 C 460.25 191.44 464.76 198.84 469.77 206.23 C 474.78 213.62 474.02 232.14 463.75 227.24 C 453.49 222.35 463.70 206.60 452.00 202.00
C 459.12 210.55 459.62 223.62 450.00 231.00
C 459.45 230.13 466.96 233.12 475.69 228.69 C 484.43 224.27 489.12 238.68 478.99 237.99 C 468.86 237.31 462.58 235.49 453.00 236.00 C 443.42 236.51 435.51 237.39 426.00 237.00 C 416.49 236.61 408.40 238.23 399.00 238.00 C 389.60 237.77 381.43 236.79 372.00 237.00
C 373.05 244.60 373.93 256.32 373.00 264.00 C 372.07 271.68 378.21 283.15 369.33 284.33 C 360.44 285.51 364.57 271.07 363.00 264.00 C 361.43 256.92 363.42 244.16 364.00 237.00
C 347.15 236.88 329.80 237.16 313.00 237.00 C 296.20 236.84 280.90 235.63 264.33 237.33 C 247.76 239.03 230.82 236.82 214.00 237.00 C 197.18 237.18 179.71 237.38 163.00 237.00 C 146.29 236.62 129.53 239.31 113.00 238.00 C 96.47 236.69 80.28 241.66 66.00 237.00
C 69.67 229.82 74.96 234.85 81.00 235.00 C 87.04 235.14 95.72 234.90 102.00 235.00
C 88.59 223.83 93.97 203.19 110.00 198.00
C 103.66 200.60 89.74 205.36 92.01 216.01 C 94.28 226.65 80.83 237.85 78.01 224.99 C 75.19 212.13 81.25 206.09 87.75 197.75 C 94.26 189.42 104.50 188.86 114.00 188.00 C 123.50 187.14 138.13 189.25 146.02 192.98 C 153.92 196.70 167.61 199.61 165.00 207.00
C 167.72 206.37 169.41 209.07 172.00 209.00
C 170.01 203.70 166.63 201.11 167.98 194.97 C 169.32 188.84 175.74 187.72 181.02 188.98 C 186.31 190.24 189.49 198.19 182.75 201.75 C 176.01 205.31 175.18 197.03 177.00 193.00
C 165.25 198.89 178.21 207.58 186.08 212.92 C 193.94 218.27 208.07 215.65 215.00 208.00
C 202.15 200.18 190.79 192.25 178.25 183.75 C 165.72 175.24 165.83 156.12 150.00 151.00
C 162.54 141.42 178.29 152.92 188.25 162.75 C 198.20 172.59 203.43 186.53 212.00 197.00
C 198.28 168.24 182.76 127.42 208.00 101.00
C 209.77 105.95 208.72 111.67 209.00 117.00
C 213.66 112.35 216.87 104.16 221.30 99.30 C 225.74 94.45 229.60 84.83 238.02 86.02 C 246.45 87.22 238.76 102.19 234.00 105.00
C 242.13 101.74 249.98 97.68 258.00 94.00
C 246.12 92.25 255.37 75.76 264.67 80.33 C 273.97 84.90 268.69 97.12 261.00 100.00
C 269.88 98.69 278.90 100.80 287.00 99.00
C 279.10 96.25 275.41 84.98 284.08 80.08 C 292.75 75.19 302.08 90.68 291.00 94.00
M 202.00 86.00 
C 204.35 86.26 208.07 84.97 209.00 88.00
C 202.81 89.87 204.84 94.25 206.00 99.00
C 201.41 96.29 197.49 95.64 193.00 99.00
C 195.36 93.38 191.84 90.76 191.00 86.00
C 195.74 87.51 196.87 83.45 198.00 80.00
C 200.94 80.65 201.51 83.38 202.00 86.00
M 366.00 90.00 
C 363.65 94.01 360.45 96.64 363.00 102.00
C 360.55 102.44 358.49 100.39 357.00 99.00
C 354.44 99.70 352.94 102.57 350.00 102.00
C 351.54 97.94 351.15 93.06 346.00 92.00
C 348.90 88.77 355.76 90.83 355.00 84.00
C 359.59 85.50 359.00 92.71 366.00 90.00
M 160.00 191.00 
C 160.39 194.10 165.57 195.82 163.00 199.00
C 158.02 195.03 148.60 193.24 144.30 188.70 C 140.01 184.15 129.15 180.63 130.01 172.99 C 130.86 165.35 146.20 171.77 148.00 177.00
C 144.55 173.42 143.95 161.20 150.70 162.36 C 157.44 163.51 158.93 173.02 160.32 177.68 C 161.72 182.34 168.69 194.25 160.00 191.00
M 278.00 247.00 
C 275.30 241.74 281.00 234.26 285.74 239.26 C 290.49 244.25 282.42 249.02 278.00 247.00
M 110.00 256.00 
C 115.89 249.74 113.74 248.43 121.25 242.25 C 128.76 236.07 129.33 244.37 130.33 252.67 C 131.33 260.97 128.85 267.06 130.00 276.00 C 131.16 284.94 122.72 291.62 121.00 281.00 C 119.28 270.37 123.12 265.18 120.00 256.00
C 116.93 259.68 115.49 266.02 109.97 266.97 C 104.45 267.93 103.01 258.34 98.00 258.00
C 96.69 266.90 99.74 273.92 98.00 283.00 C 96.26 292.08 87.90 284.48 89.00 277.00 C 90.10 269.52 89.44 259.38 89.00 252.00 C 88.56 244.62 91.90 236.44 98.23 241.77 C 104.56 247.10 104.00 251.28 110.00 256.00
M 314.00 248.00 
C 327.85 248.24 334.16 251.71 334.00 267.00 C 333.84 282.29 328.30 284.76 313.00 285.00 C 297.70 285.24 292.78 280.46 293.00 266.00 C 293.22 251.54 300.80 247.77 314.00 248.00
M 453.00 248.00 
C 457.59 248.75 467.47 255.23 465.98 261.02 C 464.48 266.82 470.36 282.27 462.92 283.92 C 455.48 285.57 456.24 270.60 457.00 264.00 C 457.76 257.40 446.03 253.74 438.00 257.00 C 429.97 260.26 436.23 269.20 434.00 279.00 C 431.77 288.80 421.58 279.10 425.00 272.00 C 428.42 264.90 420.12 250.41 428.03 249.03 C 435.93 247.65 445.23 246.74 453.00 248.00
M 387.00 249.00 
C 391.66 248.78 400.36 248.66 406.00 249.00 C 411.64 249.34 416.83 250.41 419.30 256.70 C 421.77 262.98 418.50 269.07 420.00 277.00 C 421.50 284.93 412.45 285.30 412.00 278.00 C 411.56 270.69 414.24 263.12 410.74 258.26 C 407.25 253.40 398.10 257.76 393.00 257.00 C 387.90 256.24 385.27 268.24 388.00 273.00 C 390.73 277.76 383.50 289.56 380.08 281.92 C 376.67 274.27 381.20 269.58 379.00 262.00 C 376.80 254.42 379.69 249.34 387.00 249.00
M 217.00 286.00 
C 208.80 285.45 200.23 287.44 192.33 285.67 C 184.43 283.90 182.61 274.89 183.00 268.00 C 183.39 261.11 184.49 252.75 193.08 251.08 C 201.66 249.40 208.77 251.28 218.00 251.00 C 227.23 250.72 225.51 263.15 225.00 271.00 C 224.49 278.85 226.95 289.24 222.69 295.69 C 218.44 302.15 207.37 301.55 201.00 301.00 C 194.63 300.45 183.42 301.16 184.03 290.98 C 184.63 280.79 193.10 292.17 198.03 293.97 C 202.95 295.78 218.39 294.83 217.00 286.00
M 239.00 286.00 
C 244.28 294.26 233.21 304.94 231.08 295.92 C 228.94 286.91 231.49 278.54 231.00 271.00 C 230.51 263.45 228.47 250.04 236.67 250.33 C 244.87 250.63 253.69 249.15 262.00 250.00 C 270.31 250.85 272.47 259.10 272.99 266.01 C 273.51 272.91 272.05 282.08 264.32 284.32 C 256.59 286.57 247.40 286.08 239.00 286.00
M 284.00 250.00 
C 288.97 252.04 284.73 264.38 286.00 269.00 C 287.27 273.62 286.85 287.43 280.33 284.67 C 273.80 281.91 279.61 270.57 278.00 266.00 C 276.39 261.43 277.07 247.15 284.00 250.00
M 170.00 264.00 
C 171.14 257.01 153.47 255.54 150.00 258.00 C 146.53 260.46 136.60 270.08 137.01 260.99 C 137.42 251.90 147.95 251.72 154.00 251.00 C 160.05 250.29 170.38 249.41 175.25 255.75 C 180.12 262.10 176.93 271.28 178.00 280.00 C 179.07 288.72 168.04 286.28 161.00 287.00 C 153.96 287.72 144.11 287.51 139.25 281.75 C 134.40 275.98 138.13 268.67 144.70 265.70 C 151.26 262.73 162.45 264.42 170.00 264.00
M 97.00 352.00 
C 86.86 357.24 87.26 341.32 89.00 333.00 C 90.74 324.68 85.33 309.34 89.00 301.00 C 92.67 292.66 106.99 298.47 116.00 297.00 C 125.01 295.53 132.12 305.19 130.00 315.00 C 127.88 324.81 127.75 330.88 130.00 342.00 C 132.25 353.12 120.97 358.95 122.00 344.00 C 123.03 329.05 119.33 330.07 106.00 329.00 C 92.67 327.94 97.76 341.90 97.00 352.00
M 450.00 313.00 
C 454.37 313.44 470.14 310.51 468.66 317.68 C 467.19 324.85 449.94 315.44 449.08 322.08 C 448.23 328.73 447.17 338.55 453.08 341.92 C 458.98 345.30 467.74 341.32 468.00 334.00
C 477.31 333.10 473.49 344.84 468.75 347.75 C 464.02 350.66 452.16 352.13 447.31 348.69 C 442.45 345.25 440.49 335.72 441.07 329.93 C 441.65 324.13 434.17 315.14 441.00 313.00
C 441.40 309.37 439.04 298.00 445.08 298.08 C 451.11 298.15 449.67 309.18 450.00 313.00
M 221.00 300.00 
C 225.21 301.57 219.41 317.36 227.01 314.99 C 234.61 312.63 245.02 316.08 241.24 321.25 C 237.47 326.42 221.28 317.37 222.03 326.03 C 222.78 334.68 219.55 339.82 227.23 344.77 C 234.91 349.72 237.96 339.44 243.08 337.08 C 248.20 334.73 248.98 347.61 242.75 349.75 C 236.53 351.89 228.28 353.38 222.31 350.69 C 216.33 348.01 213.08 340.05 215.00 334.00 C 216.92 327.95 210.12 318.98 212.76 315.75 C 215.39 312.53 214.23 297.48 221.00 300.00
M 363.00 329.00 
C 351.28 313.80 381.43 308.18 390.25 315.75 C 399.07 323.33 393.52 326.33 395.01 335.01 C 396.50 343.69 394.72 351.92 386.32 350.34 C 377.92 348.76 370.28 354.02 363.77 348.23 C 357.26 342.44 360.75 335.25 363.00 329.00
M 425.00 313.00 
C 429.12 314.25 435.32 321.54 433.93 327.07 C 432.54 332.60 438.14 342.84 432.74 348.74 C 427.35 354.65 422.65 345.89 424.00 339.00 C 425.35 332.11 426.53 323.74 418.97 321.03 C 411.41 318.32 405.77 325.48 407.00 332.00 C 408.23 338.52 409.02 348.99 402.92 350.92 C 396.82 352.85 396.96 336.61 398.00 333.00 C 399.04 329.39 394.62 312.78 401.03 313.03 C 407.44 313.28 418.71 311.09 425.00 313.00
M 281.00 351.00 
C 271.13 349.04 254.70 358.35 250.03 343.97 C 245.35 329.60 263.35 325.62 275.00 328.00
C 276.99 320.41 263.26 321.46 260.00 322.00 C 256.74 322.54 252.60 333.96 249.25 327.75 C 245.90 321.54 252.87 317.26 257.23 315.23 C 261.59 313.19 270.28 313.08 275.23 315.77 C 280.18 318.46 283.28 323.56 282.00 330.00 C 280.72 336.44 283.74 344.87 281.00 351.00
M 289.00 314.00 
C 295.98 315.33 295.45 327.22 294.00 334.00 C 292.56 340.78 303.38 349.43 310.00 344.00 C 316.62 338.57 312.69 332.05 313.00 322.00 C 313.31 311.95 322.91 314.44 321.00 324.00 C 319.09 333.56 323.65 341.51 320.22 348.22 C 316.80 354.93 305.69 349.56 299.00 351.00 C 292.31 352.44 286.63 344.47 287.02 337.98 C 287.42 331.49 285.58 320.12 289.00 314.00
M 333.00 323.00 
C 333.42 331.78 332.84 335.03 332.01 344.01 C 331.18 352.99 323.67 349.71 325.00 341.00 C 326.33 332.29 324.54 327.42 325.00 319.00 C 325.46 310.58 336.62 314.70 343.00 314.00 C 349.38 313.30 354.81 314.73 357.77 321.23 C 360.73 327.73 353.26 331.59 350.70 324.30 C 348.13 317.02 337.58 322.33 333.00 323.00
M 193.00 315.00 
C 197.47 315.40 208.27 318.99 205.99 327.01 C 203.72 335.03 198.37 324.43 192.78 322.22 C 187.18 320.01 174.73 327.19 183.01 329.99 C 191.29 332.79 199.06 328.76 203.92 335.08 C 208.77 341.40 205.51 348.85 198.77 351.77 C 192.03 354.69 185.09 353.37 177.31 350.69 C 169.52 348.02 173.62 334.00 178.69 339.31 C 183.77 344.61 188.99 351.28 196.23 344.23 C 203.46 337.18 186.13 337.89 180.78 337.22 C 175.42 336.55 168.77 327.29 173.75 321.75 C 178.74 316.22 185.27 314.31 193.00 315.00
M 165.00 350.00 
C 153.88 353.24 136.06 358.08 133.01 341.99 C 129.96 325.90 137.55 313.22 155.00 316.00 C 172.45 318.78 167.40 337.32 165.00 350.00
M 406.00 363.00 
C 416.58 369.66 407.66 383.12 399.00 373.00
C 399.16 378.01 393.31 385.34 388.00 384.00 C 382.69 382.65 376.38 379.17 378.78 372.78 C 381.18 366.38 391.65 369.60 390.00 377.00
C 397.49 365.76 382.23 361.50 373.78 366.78 C 365.33 372.06 353.93 371.10 345.00 375.00
C 347.52 386.44 338.15 394.92 327.98 394.98 C 317.80 395.03 306.92 387.97 313.32 377.32 C 319.72 366.67 335.98 384.77 321.00 386.00
C 333.74 395.01 345.45 377.29 331.78 373.22 C 318.11 369.15 313.43 360.77 298.00 366.00
C 298.42 372.38 304.73 375.99 307.75 381.25 C 310.77 386.50 312.20 395.27 306.75 399.75 C 301.30 404.22 298.75 406.90 291.77 409.77 C 284.79 412.64 286.98 424.33 293.00 415.00
C 302.74 420.07 288.06 430.14 282.75 422.25 C 277.44 414.35 284.34 407.73 290.70 403.70 C 297.06 399.66 303.42 393.94 298.08 385.92 C 292.73 377.91 290.94 378.58 283.75 370.25 C 276.56 361.91 286.54 360.70 296.01 360.01 C 305.48 359.32 314.37 362.87 324.00 361.00 C 333.63 359.13 338.01 367.70 345.01 369.99 C 352.01 372.28 362.10 365.63 368.00 363.00
C 357.61 360.18 344.01 364.08 334.00 360.00
C 343.01 358.29 350.52 359.86 360.00 360.00 C 369.48 360.14 378.32 358.81 388.00 359.00 C 397.68 359.19 405.14 357.69 415.00 359.00 C 424.86 360.31 430.91 355.54 441.22 356.22 C 451.53 356.90 444.90 367.12 434.99 363.01 C 425.09 358.89 415.85 366.08 406.00 363.00
M 214.00 363.00 
C 206.71 366.58 193.62 360.77 188.00 366.00
C 196.84 367.53 208.43 376.48 215.75 367.75 C 223.07 359.03 238.15 362.63 248.00 362.00 C 257.85 361.37 278.85 359.56 272.08 370.08 C 265.32 380.60 256.18 380.39 256.00 393.00
C 260.79 394.63 258.78 379.12 264.74 384.26 C 270.70 389.40 268.84 391.48 273.92 397.08 C 279.00 402.68 273.39 409.86 269.30 403.70 C 265.21 397.55 262.71 394.20 256.00 396.00
C 259.64 406.31 268.84 402.79 274.75 412.25 C 280.67 421.71 257.92 432.20 262.00 417.00
C 264.84 417.52 266.11 420.92 269.00 421.00
C 272.78 406.32 254.02 408.33 248.08 396.92 C 242.14 385.50 257.46 375.73 260.00 365.00
C 251.70 366.38 238.93 364.20 232.75 369.75 C 226.58 375.30 212.95 374.35 216.33 384.67 C 219.71 394.99 233.88 391.15 237.00 385.00
C 221.09 388.70 235.98 368.33 242.25 379.75 C 248.51 391.17 235.46 395.51 226.00 396.00 C 216.54 396.49 207.68 386.21 210.00 376.00
C 197.54 374.15 190.38 372.47 178.78 366.22 C 167.17 359.98 152.64 382.79 171.00 380.00
C 168.02 378.75 165.36 372.70 171.08 372.08 C 176.80 371.45 176.75 378.99 174.08 382.08 C 171.40 385.16 166.21 387.02 162.32 384.68 C 158.44 382.34 157.72 377.26 156.00 374.00
C 147.05 385.77 139.46 370.97 151.00 365.00
C 138.61 365.22 125.73 365.14 114.00 366.00 C 102.26 366.85 113.47 358.90 117.69 362.31 C 121.92 365.71 131.42 362.16 137.00 363.00 C 142.58 363.84 151.03 363.13 157.00 363.00 C 162.97 362.87 167.88 361.81 174.00 362.00 C 180.13 362.20 187.66 361.68 194.00 362.00 C 200.34 362.32 208.45 360.93 214.00 363.00
M 281.00 373.00 
C 285.44 376.04 291.61 384.44 284.75 389.75 C 277.89 395.06 279.46 377.85 281.00 373.00
M 275.00 374.00 
C 276.88 379.59 275.65 386.02 276.00 392.00
C 266.22 391.20 266.30 376.22 275.00 374.00
M 280.00 406.00 
C 280.68 396.31 284.30 396.60 288.77 387.77 C 293.24 378.94 300.23 388.69 294.23 394.23 C 288.23 399.76 287.52 406.88 280.00 406.00 Z"/>
</g>
<g fill="#FFFFFF" fill-opacity="1.00" stroke="None">
<path d="
M 280.00 54.00 
C 275.60 52.93 276.39 57.63 275.00 60.00
C 270.29 55.91 266.60 63.76 273.00 64.00
C 273.82 66.90 270.67 69.50 273.00 72.00
C 275.28 71.50 276.63 69.03 279.00 69.00
C 279.93 71.21 282.77 72.11 285.00 72.00
C 284.58 67.81 282.71 63.61 288.00 62.00
C 285.60 57.44 279.36 61.10 280.00 54.00 Z"/>
</g>
<g fill="#FFFFFF" fill-opacity="1.00" stroke="None">
<path d="
M 239.00 69.00 
C 237.91 66.76 237.64 63.01 234.00 64.00
C 236.43 71.46 226.06 66.51 226.00 72.00
C 231.27 73.19 230.50 77.85 230.00 82.00
C 234.48 77.93 238.28 79.93 243.00 82.00
C 240.98 77.47 240.18 72.79 246.00 71.00
C 245.07 67.97 241.35 69.26 239.00 69.00 Z"/>
</g>
<g fill="#FFFFFF" fill-opacity="1.00" stroke="None">
<path d="
M 327.00 74.00 
C 326.28 71.79 326.28 67.77 323.00 68.00
C 323.37 74.75 317.17 72.83 314.00 76.00
C 319.06 77.72 319.21 81.46 318.00 86.00
C 320.94 86.57 322.44 83.70 325.00 83.00
C 325.87 85.42 328.54 86.53 331.00 86.00
C 328.98 81.61 328.64 77.76 334.00 76.00
C 333.07 72.97 329.35 74.26 327.00 74.00 Z"/>
</g>
<g fill="#FEFEFE" fill-opacity="1.00" stroke="None">
<path d="
M 291.00 94.00 
C 302.08 90.68 292.75 75.19 284.08 80.08 C 275.41 84.98 279.10 96.25 287.00 99.00
C 278.90 100.80 269.88 98.69 261.00 100.00
C 268.69 97.12 273.97 84.90 264.67 80.33 C 255.37 75.76 246.12 92.25 258.00 94.00
C 249.98 97.68 242.13 101.74 234.00 105.00
C 238.76 102.19 246.45 87.22 238.02 86.02 C 229.60 84.83 225.74 94.45 221.30 99.30 C 216.87 104.16 213.66 112.35 209.00 117.00
C 208.72 111.67 209.77 105.95 208.00 101.00
C 182.76 127.42 198.28 168.24 212.00 197.00
C 203.43 186.53 198.20 172.59 188.25 162.75 C 178.29 152.92 162.54 141.42 150.00 151.00
C 165.83 156.12 165.72 175.24 178.25 183.75 C 190.79 192.25 202.15 200.18 215.00 208.00
C 208.07 215.65 193.94 218.27 186.08 212.92 C 178.21 207.58 165.25 198.89 177.00 193.00
C 175.18 197.03 176.01 205.31 182.75 201.75 C 189.49 198.19 186.31 190.24 181.02 188.98 C 175.74 187.72 169.32 188.84 167.98 194.97 C 166.63 201.11 170.01 203.70 172.00 209.00
C 169.41 209.07 167.72 206.37 165.00 207.00
C 167.61 199.61 153.92 196.70 146.02 192.98 C 138.13 189.25 123.50 187.14 114.00 188.00 C 104.50 188.86 94.26 189.42 87.75 197.75 C 81.25 206.09 75.19 212.13 78.01 224.99 C 80.83 237.85 94.28 226.65 92.01 216.01 C 89.74 205.36 103.66 200.60 110.00 198.00
C 93.97 203.19 88.59 223.83 102.00 235.00
C 95.72 234.90 87.04 235.14 81.00 235.00 C 74.96 234.85 69.67 229.82 66.00 237.00
C 80.28 241.66 96.47 236.69 113.00 238.00 C 129.53 239.31 146.29 236.62 163.00 237.00 C 179.71 237.38 197.18 237.18 214.00 237.00 C 230.82 236.82 247.76 239.03 264.33 237.33 C 280.90 235.63 296.20 236.84 313.00 237.00 C 329.80 237.16 347.15 236.88 364.00 237.00
C 363.42 244.16 361.43 256.92 363.00 264.00 C 364.57 271.07 360.44 285.51 369.33 284.33 C 378.21 283.15 372.07 271.68 373.00 264.00 C 373.93 256.32 373.05 244.60 372.00 237.00
C 381.43 236.79 389.60 237.77 399.00 238.00 C 408.40 238.23 416.49 236.61 426.00 237.00 C 435.51 237.39 443.42 236.51 453.00 236.00 C 462.58 235.49 468.86 237.31 478.99 237.99 C 489.12 238.68 484.43 224.27 475.69 228.69 C 466.96 233.12 459.45 230.13 450.00 231.00
C 459.62 223.62 459.12 210.55 452.00 202.00
C 463.70 206.60 453.49 222.35 463.75 227.24 C 474.02 232.14 474.78 213.62 469.77 206.23 C 464.76 198.84 460.25 191.44 450.67 188.33 C 441.09 185.22 427.81 185.55 418.01 188.01 C 408.21 190.47 399.85 193.49 391.00 198.00
C 393.48 192.49 402.92 189.45 406.77 184.77 C 410.62 180.09 421.24 176.78 418.92 169.08 C 416.60 161.39 405.09 170.87 402.00 174.00
C 410.90 161.47 393.76 158.04 391.77 168.77 C 389.78 179.50 383.61 185.60 388.00 193.00
C 381.96 195.51 389.56 203.88 382.00 205.00
C 389.39 194.81 378.68 181.63 368.00 185.00
C 375.90 181.17 382.26 174.02 384.70 165.70 C 387.13 157.37 397.92 154.47 401.00 147.00
C 373.42 137.84 355.24 169.96 343.00 188.00
C 359.99 161.46 360.66 127.65 346.00 100.00
C 337.53 100.63 344.90 113.42 341.00 118.00
C 336.65 112.56 332.98 103.86 327.75 99.25 C 322.52 94.64 317.61 84.75 309.70 87.70 C 301.79 90.65 311.95 101.58 316.00 105.00
C 307.66 101.33 298.94 98.55 291.00 94.00
M 276.00 105.00 
C 284.10 105.48 293.62 108.34 301.22 111.78 C 308.82 115.21 315.15 118.51 321.25 124.75 C 327.34 131.00 330.15 137.51 332.93 146.07 C 335.71 154.63 335.06 165.66 332.67 174.67 C 330.29 183.69 326.73 188.64 322.25 197.25 C 317.77 205.85 308.95 205.59 300.98 208.98 C 293.00 212.36 287.08 214.37 282.70 223.70 C 278.31 233.03 272.78 233.06 268.23 223.77 C 263.68 214.48 257.58 212.67 249.77 209.23 C 241.96 205.79 232.60 206.67 228.25 197.75 C 223.90 188.84 220.35 184.15 218.02 174.98 C 215.70 165.80 215.97 155.05 218.33 146.33 C 220.68 137.61 225.02 131.96 230.25 125.25 C 235.48 118.53 241.43 114.38 249.08 111.08 C 256.72 107.77 266.33 104.43 275.00 105.00
M 324.00 205.00 
C 328.84 196.35 335.76 187.96 338.00 178.00
C 337.99 186.51 332.90 201.19 324.00 205.00
M 226.00 205.00 
C 217.48 202.06 216.34 189.60 213.00 182.00
C 217.26 189.45 221.71 197.53 226.00 205.00
M 364.00 189.00 
C 354.38 199.10 380.15 207.71 375.00 194.00
C 381.90 200.03 371.20 206.13 364.77 210.77 C 358.34 215.41 346.41 213.53 340.00 208.00
C 345.92 200.45 355.92 194.85 364.00 189.00
M 161.00 204.00 
C 150.31 204.80 138.97 196.12 127.00 197.00
C 138.26 194.35 149.89 201.78 161.00 204.00
M 444.00 212.00 
C 440.71 204.63 429.44 207.63 427.08 215.08 C 424.72 222.52 429.43 230.70 438.00 231.00
C 391.31 232.65 341.28 232.35 295.00 232.00
C 305.46 227.37 327.30 239.24 327.00 220.00
C 339.34 224.42 351.59 218.74 364.02 223.98 C 376.46 229.22 384.95 229.34 399.67 229.67 C 414.39 230.00 415.88 211.33 401.00 213.00 C 386.12 214.67 379.39 220.94 365.00 217.00
C 372.80 214.53 381.04 211.57 388.68 208.68 C 396.32 205.79 405.94 202.36 413.67 200.67 C 421.40 198.99 434.68 195.44 441.08 200.92 C 447.48 206.41 454.80 212.20 449.74 220.74 C 444.69 229.28 429.86 214.94 444.00 212.00
M 187.00 219.00 
C 179.69 220.30 165.22 221.21 158.33 217.67 C 151.43 214.14 134.09 216.07 137.78 225.22 C 141.48 234.38 155.29 232.21 163.22 231.22 C 171.15 230.23 181.22 229.89 189.07 225.07 C 196.93 220.26 204.95 227.38 214.07 223.07 C 223.20 218.76 226.71 231.46 235.00 233.00
C 195.80 233.92 154.00 235.84 115.00 234.00
C 134.00 228.34 120.50 201.54 105.00 214.00
C 104.98 217.37 109.27 218.25 112.00 218.00
C 111.51 235.65 94.65 220.76 100.93 210.93 C 107.20 201.09 118.11 199.57 128.67 200.33 C 139.23 201.09 148.26 206.22 158.22 208.78 C 168.19 211.33 177.51 215.16 187.00 219.00
M 229.00 212.00 
C 221.45 214.61 212.61 220.01 205.00 218.00
C 213.12 217.32 221.19 209.42 229.00 212.00
M 344.00 216.00 
C 337.04 218.59 328.70 214.70 322.00 212.00
C 328.67 210.63 337.06 214.00 344.00 216.00
M 315.00 226.00 
C 321.48 220.82 312.06 213.12 307.31 217.31 C 302.56 221.49 300.88 227.50 294.00 228.00
C 298.32 220.11 302.44 218.14 310.68 214.68 C 318.91 211.22 328.70 225.76 315.00 226.00
M 255.00 228.00 
C 247.60 228.21 249.13 222.00 243.75 218.25 C 238.37 214.50 230.17 220.09 235.00 227.00
C 225.22 224.33 231.16 214.01 239.00 215.00 C 246.85 216.00 253.00 220.27 255.00 228.00
M 391.00 224.00 
C 393.67 221.92 402.97 214.23 406.25 219.75 C 409.52 225.27 393.86 226.83 391.00 224.00
M 254.00 232.00 
C 250.40 233.59 243.53 233.71 240.00 232.00
C 244.40 229.85 249.60 229.20 254.00 232.00 Z"/>
</g>
<g fill="#FFFFFF" fill-opacity="1.00" stroke="None">
<path d="
M 202.00 86.00 
C 201.51 83.38 200.94 80.65 198.00 80.00
C 196.87 83.45 195.74 87.51 191.00 86.00
C 191.84 90.76 195.36 93.38 193.00 99.00
C 197.49 95.64 201.41 96.29 206.00 99.00
C 204.84 94.25 202.81 89.87 209.00 88.00
C 208.07 84.97 204.35 86.26 202.00 86.00 Z"/>
</g>
<g fill="#FFFFFF" fill-opacity="1.00" stroke="None">
<path d="
M 366.00 90.00 
C 359.00 92.71 359.59 85.50 355.00 84.00
C 355.76 90.83 348.90 88.77 346.00 92.00
C 351.15 93.06 351.54 97.94 350.00 102.00
C 352.94 102.57 354.44 99.70 357.00 99.00
C 358.49 100.39 360.55 102.44 363.00 102.00
C 360.45 96.64 363.65 94.01 366.00 90.00 Z"/>
</g>
<g fill="#000000" fill-opacity="0.00" stroke="None">
<path d="
M 275.00 105.00 
C 266.33 104.43 256.72 107.77 249.08 111.08 C 241.43 114.38 235.48 118.53 230.25 125.25 C 225.02 131.96 220.68 137.61 218.33 146.33 C 215.97 155.05 215.70 165.80 218.02 174.98 C 220.35 184.15 223.90 188.84 228.25 197.75 C 232.60 206.67 241.96 205.79 249.77 209.23 C 257.58 212.67 263.68 214.48 268.23 223.77 C 272.78 233.06 278.31 233.03 282.70 223.70 C 287.08 214.37 293.00 212.36 300.98 208.98 C 308.95 205.59 317.77 205.85 322.25 197.25 C 326.73 188.64 330.29 183.69 332.67 174.67 C 335.06 165.66 335.71 154.63 332.93 146.07 C 330.15 137.51 327.34 131.00 321.25 124.75 C 315.15 118.51 308.82 115.21 301.22 111.78 C 293.62 108.34 284.10 105.48 276.00 105.00
M 301.00 147.00 
C 289.12 147.09 283.35 158.59 289.98 169.02 C 296.60 179.46 288.27 190.68 277.00 191.00 C 265.72 191.32 254.84 181.09 260.93 169.93 C 267.02 158.77 264.48 149.21 251.00 148.00
C 251.00 162.33 251.00 176.67 251.00 191.00
C 237.39 193.18 242.72 178.97 242.00 169.00 C 241.28 159.03 242.70 151.08 241.20 140.75 C 239.70 130.43 251.12 133.77 258.25 138.75 C 265.37 143.74 269.67 145.08 273.92 154.08 C 278.17 163.07 264.41 171.47 270.78 180.22 C 277.15 188.97 285.95 175.02 279.23 167.77 C 272.51 160.52 276.57 152.52 282.25 146.25 C 287.94 139.99 291.98 138.55 301.08 134.08 C 310.17 129.61 310.93 140.44 309.00 151.00 C 307.07 161.56 309.49 169.04 310.00 181.00 C 310.50 192.97 298.66 192.37 301.00 179.00 C 303.34 165.63 299.24 159.70 301.00 147.00 Z"/>
</g>
<g fill="#FFFFFF" fill-opacity="1.00" stroke="None">
<path d="
M 301.00 147.00 
C 299.24 159.70 303.34 165.63 301.00 179.00 C 298.66 192.37 310.50 192.97 310.00 181.00 C 309.49 169.04 307.07 161.56 309.00 151.00 C 310.93 140.44 310.17 129.61 301.08 134.08 C 291.98 138.55 287.94 139.99 282.25 146.25 C 276.57 152.52 272.51 160.52 279.23 167.77 C 285.95 175.02 277.15 188.97 270.78 180.22 C 264.41 171.47 278.17 163.07 273.92 154.08 C 269.67 145.08 265.37 143.74 258.25 138.75 C 251.12 133.77 239.70 130.43 241.20 140.75 C 242.70 151.08 241.28 159.03 242.00 169.00 C 242.72 178.97 237.39 193.18 251.00 191.00
C 251.00 176.67 251.00 162.33 251.00 148.00
C 264.48 149.21 267.02 158.77 260.93 169.93 C 254.84 181.09 265.72 191.32 277.00 191.00 C 288.27 190.68 296.60 179.46 289.98 169.02 C 283.35 158.59 289.12 147.09 301.00 147.00 Z"/>
</g>
<g fill="#FDFDFD" fill-opacity="1.00" stroke="None">
<path d="
M 160.00 191.00 
C 168.69 194.25 161.72 182.34 160.32 177.68 C 158.93 173.02 157.44 163.51 150.70 162.36 C 143.95 161.20 144.55 173.42 148.00 177.00
C 146.20 171.77 130.86 165.35 130.01 172.99 C 129.15 180.63 140.01 184.15 144.30 188.70 C 148.60 193.24 158.02 195.03 163.00 199.00
C 165.57 195.82 160.39 194.10 160.00 191.00 Z"/>
</g>
<g fill="#000000" fill-opacity="0.00" stroke="None">
<path d="
M 324.00 205.00 
C 332.90 201.19 337.99 186.51 338.00 178.00
C 335.76 187.96 328.84 196.35 324.00 205.00 Z"/>
</g>
<g fill="#000000" fill-opacity="0.02" stroke="None">
<path d="
M 226.00 205.00 
C 221.71 197.53 217.26 189.45 213.00 182.00
C 216.34 189.60 217.48 202.06 226.00 205.00 Z"/>
</g>
<g fill="#000000" fill-opacity="0.00" stroke="None">
<path d="
M 364.00 189.00 
C 355.92 194.85 345.92 200.45 340.00 208.00
C 346.41 213.53 358.34 215.41 364.77 210.77 C 371.20 206.13 381.90 200.03 375.00 194.00
C 380.15 207.71 354.38 199.10 364.00 189.00 Z"/>
</g>
<g fill="#000000" fill-opacity="0.05" stroke="None">
<path d="
M 161.00 204.00 
C 149.89 201.78 138.26 194.35 127.00 197.00
C 138.97 196.12 150.31 204.80 161.00 204.00 Z"/>
</g>
<g fill="#000000" fill-opacity="0.00" stroke="None">
<path d="
M 444.00 212.00 
C 429.86 214.94 444.69 229.28 449.74 220.74 C 454.80 212.20 447.48 206.41 441.08 200.92 C 434.68 195.44 421.40 198.99 413.67 200.67 C 405.94 202.36 396.32 205.79 388.68 208.68 C 381.04 211.57 372.80 214.53 365.00 217.00
C 379.39 220.94 386.12 214.67 401.00 213.00 C 415.88 211.33 414.39 230.00 399.67 229.67 C 384.95 229.34 376.46 229.22 364.02 223.98 C 351.59 218.74 339.34 224.42 327.00 220.00
C 327.30 239.24 305.46 227.37 295.00 232.00
C 341.28 232.35 391.31 232.65 438.00 231.00
C 429.43 230.70 424.72 222.52 427.08 215.08 C 429.44 207.63 440.71 204.63 444.00 212.00 Z"/>
</g>
<g fill="#000000" fill-opacity="0.00" stroke="None">
<path d="
M 187.00 219.00 
C 177.51 215.16 168.19 211.33 158.22 208.78 C 148.26 206.22 139.23 201.09 128.67 200.33 C 118.11 199.57 107.20 201.09 100.93 210.93 C 94.65 220.76 111.51 235.65 112.00 218.00
C 109.27 218.25 104.98 217.37 105.00 214.00
C 120.50 201.54 134.00 228.34 115.00 234.00
C 154.00 235.84 195.80 233.92 235.00 233.00
C 226.71 231.46 223.20 218.76 214.07 223.07 C 204.95 227.38 196.93 220.26 189.07 225.07 C 181.22 229.89 171.15 230.23 163.22 231.22 C 155.29 232.21 141.48 234.38 137.78 225.22 C 134.09 216.07 151.43 214.14 158.33 217.67 C 165.22 221.21 179.69 220.30 187.00 219.00 Z"/>
</g>
<g fill="#000000" fill-opacity="0.00" stroke="None">
<path d="
M 229.00 212.00 
C 221.19 209.42 213.12 217.32 205.00 218.00
C 212.61 220.01 221.45 214.61 229.00 212.00 Z"/>
</g>
<g fill="#000000" fill-opacity="0.00" stroke="None">
<path d="
M 344.00 216.00 
C 337.06 214.00 328.67 210.63 322.00 212.00
C 328.70 214.70 337.04 218.59 344.00 216.00 Z"/>
</g>
<g fill="#000000" fill-opacity="0.00" stroke="None">
<path d="
M 315.00 226.00 
C 328.70 225.76 318.91 211.22 310.68 214.68 C 302.44 218.14 298.32 220.11 294.00 228.00
C 300.88 227.50 302.56 221.49 307.31 217.31 C 312.06 213.12 321.48 220.82 315.00 226.00 Z"/>
</g>
<g fill="#000000" fill-opacity="0.00" stroke="None">
<path d="
M 255.00 228.00 
C 253.00 220.27 246.85 216.00 239.00 215.00 C 231.16 214.01 225.22 224.33 235.00 227.00
C 230.17 220.09 238.37 214.50 243.75 218.25 C 249.13 222.00 247.60 228.21 255.00 228.00 Z"/>
</g>
<g fill="#000000" fill-opacity="0.00" stroke="None">
<path d="
M 391.00 224.00 
C 393.86 226.83 409.52 225.27 406.25 219.75 C 402.97 214.23 393.67 221.92 391.00 224.00 Z"/>
</g>
<g fill="#000000" fill-opacity="0.00" stroke="None">
<path d="
M 254.00 232.00 
C 249.60 229.20 244.40 229.85 240.00 232.00
C 243.53 233.71 250.40 233.59 254.00 232.00 Z"/>
</g>
<g fill="#FFFFFF" fill-opacity="1.00" stroke="None">
<path d="
M 278.00 247.00 
C 282.42 249.02 290.49 244.25 285.74 239.26 C 281.00 234.26 275.30 241.74 278.00 247.00 Z"/>
</g>
<g fill="#FFFFFF" fill-opacity="1.00" stroke="None">
<path d="
M 110.00 256.00 
C 104.00 251.28 104.56 247.10 98.23 241.77 C 91.90 236.44 88.56 244.62 89.00 252.00 C 89.44 259.38 90.10 269.52 89.00 277.00 C 87.90 284.48 96.26 292.08 98.00 283.00 C 99.74 273.92 96.69 266.90 98.00 258.00
C 103.01 258.34 104.45 267.93 109.97 266.97 C 115.49 266.02 116.93 259.68 120.00 256.00
C 123.12 265.18 119.28 270.37 121.00 281.00 C 122.72 291.62 131.16 284.94 130.00 276.00 C 128.85 267.06 131.33 260.97 130.33 252.67 C 129.33 244.37 128.76 236.07 121.25 242.25 C 113.74 248.43 115.89 249.74 110.00 256.00 Z"/>
</g>
<g fill="#FFFFFF" fill-opacity="1.00" stroke="None">
<path d="
M 314.00 248.00 
C 300.80 247.77 293.22 251.54 293.00 266.00 C 292.78 280.46 297.70 285.24 313.00 285.00 C 328.30 284.76 333.84 282.29 334.00 267.00 C 334.16 251.71 327.85 248.24 314.00 248.00
M 326.00 264.00 
C 317.74 263.39 308.82 265.26 301.00 263.00
C 303.26 253.01 325.50 252.42 326.00 264.00
M 325.00 271.00 
C 324.65 280.19 303.09 280.23 302.00 271.00
C 309.67 271.00 317.33 271.00 325.00 271.00 Z"/>
</g>
<g fill="#FFFFFF" fill-opacity="1.00" stroke="None">
<path d="
M 453.00 248.00 
C 445.23 246.74 435.93 247.65 428.03 249.03 C 420.12 250.41 428.42 264.90 425.00 272.00 C 421.58 279.10 431.77 288.80 434.00 279.00 C 436.23 269.20 429.97 260.26 438.00 257.00 C 446.03 253.74 457.76 257.40 457.00 264.00 C 456.24 270.60 455.48 285.57 462.92 283.92 C 470.36 282.27 464.48 266.82 465.98 261.02 C 467.47 255.23 457.59 248.75 453.00 248.00 Z"/>
</g>
<g fill="#FFFFFF" fill-opacity="1.00" stroke="None">
<path d="
M 387.00 249.00 
C 379.69 249.34 376.80 254.42 379.00 262.00 C 381.20 269.58 376.67 274.27 380.08 281.92 C 383.50 289.56 390.73 277.76 388.00 273.00 C 385.27 268.24 387.90 256.24 393.00 257.00 C 398.10 257.76 407.25 253.40 410.74 258.26 C 414.24 263.12 411.56 270.69 412.00 278.00 C 412.45 285.30 421.50 284.93 420.00 277.00 C 418.50 269.07 421.77 262.98 419.30 256.70 C 416.83 250.41 411.64 249.34 406.00 249.00 C 400.36 248.66 391.66 248.78 387.00 249.00 Z"/>
</g>
<g fill="#FFFFFF" fill-opacity="1.00" stroke="None">
<path d="
M 217.00 286.00 
C 218.39 294.83 202.95 295.78 198.03 293.97 C 193.10 292.17 184.63 280.79 184.03 290.98 C 183.42 301.16 194.63 300.45 201.00 301.00 C 207.37 301.55 218.44 302.15 222.69 295.69 C 226.95 289.24 224.49 278.85 225.00 271.00 C 225.51 263.15 227.23 250.72 218.00 251.00 C 208.77 251.28 201.66 249.40 193.08 251.08 C 184.49 252.75 183.39 261.11 183.00 268.00 C 182.61 274.89 184.43 283.90 192.33 285.67 C 200.23 287.44 208.80 285.45 217.00 286.00
M 212.00 257.00 
C 217.83 258.77 221.25 276.35 212.77 278.77 C 204.29 281.19 191.32 279.91 192.00 269.00 C 192.68 258.09 201.22 253.73 212.00 257.00 Z"/>
</g>
<g fill="#FFFFFF" fill-opacity="1.00" stroke="None">
<path d="
M 239.00 286.00 
C 247.40 286.08 256.59 286.57 264.32 284.32 C 272.05 282.08 273.51 272.91 272.99 266.01 C 272.47 259.10 270.31 250.85 262.00 250.00 C 253.69 249.15 244.87 250.63 236.67 250.33 C 228.47 250.04 230.51 263.45 231.00 271.00 C 231.49 278.54 228.94 286.91 231.08 295.92 C 233.21 304.94 244.28 294.26 239.00 286.00
M 260.00 257.00 
C 266.01 258.82 268.50 276.71 259.32 278.32 C 250.14 279.93 238.86 279.80 239.00 268.00 C 239.14 256.20 250.04 253.98 260.00 257.00 Z"/>
</g>
<g fill="#FFFFFF" fill-opacity="1.00" stroke="None">
<path d="
M 284.00 250.00 
C 277.07 247.15 276.39 261.43 278.00 266.00 C 279.61 270.57 273.80 281.91 280.33 284.67 C 286.85 287.43 287.27 273.62 286.00 269.00 C 284.73 264.38 288.97 252.04 284.00 250.00 Z"/>
</g>
<g fill="#FFFFFF" fill-opacity="1.00" stroke="None">
<path d="
M 170.00 264.00 
C 162.45 264.42 151.26 262.73 144.70 265.70 C 138.13 268.67 134.40 275.98 139.25 281.75 C 144.11 287.51 153.96 287.72 161.00 287.00 C 168.04 286.28 179.07 288.72 178.00 280.00 C 176.93 271.28 180.12 262.10 175.25 255.75 C 170.38 249.41 160.05 250.29 154.00 251.00 C 147.95 251.72 137.42 251.90 137.01 260.99 C 136.60 270.08 146.53 260.46 150.00 258.00 C 153.47 255.54 171.14 257.01 170.00 264.00
M 164.00 271.00 
C 176.10 273.29 162.65 285.17 151.33 279.67 C 140.01 274.17 153.17 268.95 164.00 271.00 Z"/>
</g>
<g fill="#000000" fill-opacity="0.00" stroke="None">
<path d="
M 326.00 264.00 
C 325.50 252.42 303.26 253.01 301.00 263.00
C 308.82 265.26 317.74 263.39 326.00 264.00 Z"/>
</g>
<g fill="#000000" fill-opacity="0.00" stroke="None">
<path d="
M 212.00 257.00 
C 201.22 253.73 192.68 258.09 192.00 269.00 C 191.32 279.91 204.29 281.19 212.77 278.77 C 221.25 276.35 217.83 258.77 212.00 257.00 Z"/>
</g>
<g fill="#000000" fill-opacity="0.00" stroke="None">
<path d="
M 260.00 257.00 
C 250.04 253.98 239.14 256.20 239.00 268.00 C 238.86 279.80 250.14 279.93 259.32 278.32 C 268.50 276.71 266.01 258.82 260.00 257.00 Z"/>
</g>
<g fill="#000000" fill-opacity="0.00" stroke="None">
<path d="
M 164.00 271.00 
C 153.17 268.95 140.01 274.17 151.33 279.67 C 162.65 285.17 176.10 273.29 164.00 271.00 Z"/>
</g>
<g fill="#000000" fill-opacity="0.00" stroke="None">
<path d="
M 325.00 271.00 
C 317.33 271.00 309.67 271.00 302.00 271.00
C 303.09 280.23 324.65 280.19 325.00 271.00 Z"/>
</g>
<g fill="#FFFFFF" fill-opacity="1.00" stroke="None">
<path d="
M 97.00 352.00 
C 97.76 341.90 92.67 327.94 106.00 329.00 C 119.33 330.07 123.03 329.05 122.00 344.00 C 120.97 358.95 132.25 353.12 130.00 342.00 C 127.75 330.88 127.88 324.81 130.00 315.00 C 132.12 305.19 125.01 295.53 116.00 297.00 C 106.99 298.47 92.67 292.66 89.00 301.00 C 85.33 309.34 90.74 324.68 89.00 333.00 C 87.26 341.32 86.86 357.24 97.00 352.00
M 123.00 307.00 
C 127.11 324.64 108.57 321.19 97.00 321.00
C 97.00 315.67 97.00 310.33 97.00 305.00
C 105.88 304.89 114.76 304.55 123.00 307.00 Z"/>
</g>
<g fill="#FFFFFF" fill-opacity="1.00" stroke="None">
<path d="
M 450.00 313.00 
C 449.67 309.18 451.11 298.15 445.08 298.08 C 439.04 298.00 441.40 309.37 441.00 313.00
C 434.17 315.14 441.65 324.13 441.07 329.93 C 440.49 335.72 442.45 345.25 447.31 348.69 C 452.16 352.13 464.02 350.66 468.75 347.75 C 473.49 344.84 477.31 333.10 468.00 334.00
C 467.74 341.32 458.98 345.30 453.08 341.92 C 447.17 338.55 448.23 328.73 449.08 322.08 C 449.94 315.44 467.19 324.85 468.66 317.68 C 470.14 310.51 454.37 313.44 450.00 313.00 Z"/>
</g>
<g fill="#FFFFFF" fill-opacity="1.00" stroke="None">
<path d="
M 221.00 300.00 
C 214.23 297.48 215.39 312.53 212.76 315.75 C 210.12 318.98 216.92 327.95 215.00 334.00 C 213.08 340.05 216.33 348.01 222.31 350.69 C 228.28 353.38 236.53 351.89 242.75 349.75 C 248.98 347.61 248.20 334.73 243.08 337.08 C 237.96 339.44 234.91 349.72 227.23 344.77 C 219.55 339.82 222.78 334.68 222.03 326.03 C 221.28 317.37 237.47 326.42 241.24 321.25 C 245.02 316.08 234.61 312.63 227.01 314.99 C 219.41 317.36 225.21 301.57 221.00 300.00 Z"/>
</g>
<g fill="#000000" fill-opacity="0.00" stroke="None">
<path d="
M 123.00 307.00 
C 114.76 304.55 105.88 304.89 97.00 305.00
C 97.00 310.33 97.00 315.67 97.00 321.00
C 108.57 321.19 127.11 324.64 123.00 307.00 Z"/>
</g>
<g fill="#FFFFFF" fill-opacity="1.00" stroke="None">
<path d="
M 363.00 329.00 
C 360.75 335.25 357.26 342.44 363.77 348.23 C 370.28 354.02 377.92 348.76 386.32 350.34 C 394.72 351.92 396.50 343.69 395.01 335.01 C 393.52 326.33 399.07 323.33 390.25 315.75 C 381.43 308.18 351.28 313.80 363.00 329.00
M 386.00 327.00 
C 380.54 325.36 373.44 325.37 368.00 327.00
C 368.37 319.13 386.07 317.82 386.00 327.00
M 384.00 334.00 
C 390.25 337.23 384.48 343.86 379.00 343.00 C 373.52 342.14 366.81 342.60 368.78 336.78 C 370.75 330.96 380.99 332.44 384.00 334.00 Z"/>
</g>
<g fill="#FFFFFF" fill-opacity="1.00" stroke="None">
<path d="
M 425.00 313.00 
C 418.71 311.09 407.44 313.28 401.03 313.03 C 394.62 312.78 399.04 329.39 398.00 333.00 C 396.96 336.61 396.82 352.85 402.92 350.92 C 409.02 348.99 408.23 338.52 407.00 332.00 C 405.77 325.48 411.41 318.32 418.97 321.03 C 426.53 323.74 425.35 332.11 424.00 339.00 C 422.65 345.89 427.35 354.65 432.74 348.74 C 438.14 342.84 432.54 332.60 433.93 327.07 C 435.32 321.54 429.12 314.25 425.00 313.00 Z"/>
</g>
<g fill="#FFFFFF" fill-opacity="1.00" stroke="None">
<path d="
M 281.00 351.00 
C 283.74 344.87 280.72 336.44 282.00 330.00 C 283.28 323.56 280.18 318.46 275.23 315.77 C 270.28 313.08 261.59 313.19 257.23 315.23 C 252.87 317.26 245.90 321.54 249.25 327.75 C 252.60 333.96 256.74 322.54 260.00 322.00 C 263.26 321.46 276.99 320.41 275.00 328.00
C 263.35 325.62 245.35 329.60 250.03 343.97 C 254.70 358.35 271.13 349.04 281.00 351.00
M 273.00 335.00 
C 278.96 338.08 272.76 345.09 267.99 344.99 C 263.22 344.89 255.28 344.33 256.79 338.77 C 258.29 333.21 269.54 333.21 273.00 335.00 Z"/>
</g>
<g fill="#FFFFFF" fill-opacity="1.00" stroke="None">
<path d="
M 289.00 314.00 
C 285.58 320.12 287.42 331.49 287.02 337.98 C 286.63 344.47 292.31 352.44 299.00 351.00 C 305.69 349.56 316.80 354.93 320.22 348.22 C 323.65 341.51 319.09 333.56 321.00 324.00 C 322.91 314.44 313.31 311.95 313.00 322.00 C 312.69 332.05 316.62 338.57 310.00 344.00 C 303.38 349.43 292.56 340.78 294.00 334.00 C 295.45 327.22 295.98 315.33 289.00 314.00 Z"/>
</g>
<g fill="#FFFFFF" fill-opacity="1.00" stroke="None">
<path d="
M 333.00 323.00 
C 337.58 322.33 348.13 317.02 350.70 324.30 C 353.26 331.59 360.73 327.73 357.77 321.23 C 354.81 314.73 349.38 313.30 343.00 314.00 C 336.62 314.70 325.46 310.58 325.00 319.00 C 324.54 327.42 326.33 332.29 325.00 341.00 C 323.67 349.71 331.18 352.99 332.01 344.01 C 332.84 335.03 333.42 331.78 333.00 323.00 Z"/>
</g>
<g fill="#FFFFFF" fill-opacity="1.00" stroke="None">
<path d="
M 193.00 315.00 
C 185.27 314.31 178.74 316.22 173.75 321.75 C 168.77 327.29 175.42 336.55 180.78 337.22 C 186.13 337.89 203.46 337.18 196.23 344.23 C 188.99 351.28 183.77 344.61 178.69 339.31 C 173.62 334.00 169.52 348.02 177.31 350.69 C 185.09 353.37 192.03 354.69 198.77 351.77 C 205.51 348.85 208.77 341.40 203.92 335.08 C 199.06 328.76 191.29 332.79 183.01 329.99 C 174.73 327.19 187.18 320.01 192.78 322.22 C 198.37 324.43 203.72 335.03 205.99 327.01 C 208.27 318.99 197.47 315.40 193.00 315.00 Z"/>
</g>
<g fill="#FFFFFF" fill-opacity="1.00" stroke="None">
<path d="
M 165.00 350.00 
C 167.40 337.32 172.45 318.78 155.00 316.00 C 137.55 313.22 129.96 325.90 133.01 341.99 C 136.06 358.08 153.88 353.24 165.00 350.00
M 160.00 331.00 
C 153.33 331.00 146.67 331.00 140.00 331.00
C 138.02 319.63 162.38 319.25 160.00 331.00
M 161.00 338.00 
C 160.73 348.46 140.68 349.81 140.00 339.00
C 146.51 336.77 154.08 338.59 161.00 338.00 Z"/>
</g>
<g fill="#000000" fill-opacity="0.00" stroke="None">
<path d="
M 386.00 327.00 
C 386.07 317.82 368.37 319.13 368.00 327.00
C 373.44 325.37 380.54 325.36 386.00 327.00 Z"/>
</g>
<g fill="#000000" fill-opacity="0.00" stroke="None">
<path d="
M 160.00 331.00 
C 162.38 319.25 138.02 319.63 140.00 331.00
C 146.67 331.00 153.33 331.00 160.00 331.00 Z"/>
</g>
<g fill="#000000" fill-opacity="0.00" stroke="None">
<path d="
M 384.00 334.00 
C 380.99 332.44 370.75 330.96 368.78 336.78 C 366.81 342.60 373.52 342.14 379.00 343.00 C 384.48 343.86 390.25 337.23 384.00 334.00 Z"/>
</g>
<g fill="#000000" fill-opacity="0.00" stroke="None">
<path d="
M 273.00 335.00 
C 269.54 333.21 258.29 333.21 256.79 338.77 C 255.28 344.33 263.22 344.89 267.99 344.99 C 272.76 345.09 278.96 338.08 273.00 335.00 Z"/>
</g>
<g fill="#000000" fill-opacity="0.00" stroke="None">
<path d="
M 161.00 338.00 
C 154.08 338.59 146.51 336.77 140.00 339.00
C 140.68 349.81 160.73 348.46 161.00 338.00 Z"/>
</g>
<g fill="#FFFFFF" fill-opacity="1.00" stroke="None">
<path d="
M 406.00 363.00 
C 415.85 366.08 425.09 358.89 434.99 363.01 C 444.90 367.12 451.53 356.90 441.22 356.22 C 430.91 355.54 424.86 360.31 415.00 359.00 C 405.14 357.69 397.68 359.19 388.00 359.00 C 378.32 358.81 369.48 360.14 360.00 360.00 C 350.52 359.86 343.01 358.29 334.00 360.00
C 344.01 364.08 357.61 360.18 368.00 363.00
C 362.10 365.63 352.01 372.28 345.01 369.99 C 338.01 367.70 333.63 359.13 324.00 361.00 C 314.37 362.87 305.48 359.32 296.01 360.01 C 286.54 360.70 276.56 361.91 283.75 370.25 C 290.94 378.58 292.73 377.91 298.08 385.92 C 303.42 393.94 297.06 399.66 290.70 403.70 C 284.34 407.73 277.44 414.35 282.75 422.25 C 288.06 430.14 302.74 420.07 293.00 415.00
C 286.98 424.33 284.79 412.64 291.77 409.77 C 298.75 406.90 301.30 404.22 306.75 399.75 C 312.20 395.27 310.77 386.50 307.75 381.25 C 304.73 375.99 298.42 372.38 298.00 366.00
C 313.43 360.77 318.11 369.15 331.78 373.22 C 345.45 377.29 333.74 395.01 321.00 386.00
C 335.98 384.77 319.72 366.67 313.32 377.32 C 306.92 387.97 317.80 395.03 327.98 394.98 C 338.15 394.92 347.52 386.44 345.00 375.00
C 353.93 371.10 365.33 372.06 373.78 366.78 C 382.23 361.50 397.49 365.76 390.00 377.00
C 391.65 369.60 381.18 366.38 378.78 372.78 C 376.38 379.17 382.69 382.65 388.00 384.00 C 393.31 385.34 399.16 378.01 399.00 373.00
C 407.66 383.12 416.58 369.66 406.00 363.00
M 335.00 370.00 
C 332.79 368.51 329.12 368.93 328.00 366.00
C 330.54 366.17 334.71 367.09 335.00 370.00 Z"/>
</g>
<g fill="#FFFFFF" fill-opacity="1.00" stroke="None">
<path d="
M 214.00 363.00 
C 208.45 360.93 200.34 362.32 194.00 362.00 C 187.66 361.68 180.13 362.20 174.00 362.00 C 167.88 361.81 162.97 362.87 157.00 363.00 C 151.03 363.13 142.58 363.84 137.00 363.00 C 131.42 362.16 121.92 365.71 117.69 362.31 C 113.47 358.90 102.26 366.85 114.00 366.00 C 125.73 365.14 138.61 365.22 151.00 365.00
C 139.46 370.97 147.05 385.77 156.00 374.00
C 157.72 377.26 158.44 382.34 162.32 384.68 C 166.21 387.02 171.40 385.16 174.08 382.08 C 176.75 378.99 176.80 371.45 171.08 372.08 C 165.36 372.70 168.02 378.75 171.00 380.00
C 152.64 382.79 167.17 359.98 178.78 366.22 C 190.38 372.47 197.54 374.15 210.00 376.00
C 207.68 386.21 216.54 396.49 226.00 396.00 C 235.46 395.51 248.51 391.17 242.25 379.75 C 235.98 368.33 221.09 388.70 237.00 385.00
C 233.88 391.15 219.71 394.99 216.33 384.67 C 212.95 374.35 226.58 375.30 232.75 369.75 C 238.93 364.20 251.70 366.38 260.00 365.00
C 257.46 375.73 242.14 385.50 248.08 396.92 C 254.02 408.33 272.78 406.32 269.00 421.00
C 266.11 420.92 264.84 417.52 262.00 417.00
C 257.92 432.20 280.67 421.71 274.75 412.25 C 268.84 402.79 259.64 406.31 256.00 396.00
C 262.71 394.20 265.21 397.55 269.30 403.70 C 273.39 409.86 279.00 402.68 273.92 397.08 C 268.84 391.48 270.70 389.40 264.74 384.26 C 258.78 379.12 260.79 394.63 256.00 393.00
C 256.18 380.39 265.32 380.60 272.08 370.08 C 278.85 359.56 257.85 361.37 248.00 362.00 C 238.15 362.63 223.07 359.03 215.75 367.75 C 208.43 376.48 196.84 367.53 188.00 366.00
C 193.62 360.77 206.71 366.58 214.00 363.00
M 229.00 366.00 
C 228.24 368.85 224.15 371.06 221.00 371.00
C 222.67 368.14 226.39 367.75 229.00 366.00 Z"/>
</g>
<g fill="#010101" fill-opacity="0.07" stroke="None">
<path d="
M 229.00 366.00 
C 226.39 367.75 222.67 368.14 221.00 371.00
C 224.15 371.06 228.24 368.85 229.00 366.00 Z"/>
</g>
<g fill="#010101" fill-opacity="0.08" stroke="None">
<path d="
M 335.00 370.00 
C 334.71 367.09 330.54 366.17 328.00 366.00
C 329.12 368.93 332.79 368.51 335.00 370.00 Z"/>
</g>
<g fill="#FFFFFF" fill-opacity="1.00" stroke="None">
<path d="
M 281.00 373.00 
C 279.46 377.85 277.89 395.06 284.75 389.75 C 291.61 384.44 285.44 376.04 281.00 373.00 Z"/>
</g>
<g fill="#FFFFFF" fill-opacity="1.00" stroke="None">
<path d="
M 275.00 374.00 
C 266.30 376.22 266.22 391.20 276.00 392.00
C 275.65 386.02 276.88 379.59 275.00 374.00 Z"/>
</g>
<g fill="#FFFFFF" fill-opacity="1.00" stroke="None">
<path d="
M 280.00 406.00 
C 287.52 406.88 288.23 399.76 294.23 394.23 C 300.23 388.69 293.24 378.94 288.77 387.77 C 284.30 396.60 280.68 396.31 280.00 406.00 Z"/>
</g>
</svg>