<svg id="svg" version="1.1" xmlns="http://www.w3.org/2000/svg" xmlns:xlink="http://www.w3.org/1999/xlink" width="400" height="288.81650380021716" viewBox="0, 0, 400,288.81650380021716"><g id="svgg"><path id="path1" d="M185.309 65.535 C 185.390 66.499,185.259 67.085,184.998 66.924 C 184.854 66.835,184.809 67.042,184.899 67.385 C 185.052 67.970,184.988 67.996,183.853 67.814 C 182.212 67.552,181.935 68.217,183.203 69.375 C 184.018 70.120,184.095 70.328,183.934 71.339 C 183.755 72.459,184.223 73.285,184.648 72.598 C 185.093 71.878,186.531 71.611,186.991 72.163 C 187.423 72.682,188.228 72.851,188.580 72.499 C 188.680 72.399,188.556 71.824,188.305 71.222 C 187.848 70.130,187.850 70.124,188.721 69.328 C 190.004 68.157,189.894 67.541,188.429 67.681 C 187.268 67.791,187.259 67.785,186.771 66.410 C 186.281 65.030,185.213 64.391,185.309 65.535 M167.351 70.028 C 167.337 71.193,166.167 72.254,164.898 72.254 C 163.635 72.254,163.599 72.598,164.775 73.435 C 165.625 74.041,165.667 74.158,165.511 75.478 C 165.322 77.070,165.491 77.176,166.591 76.156 C 167.565 75.253,167.776 75.256,168.995 76.185 C 170.200 77.105,170.369 76.989,169.801 75.632 C 169.233 74.272,169.198 74.400,170.448 73.253 L 171.532 72.257 170.429 72.256 C 169.086 72.254,168.212 71.825,168.198 71.160 C 168.192 70.888,168.002 70.340,167.775 69.942 L 167.362 69.220 167.351 70.028 M205.249 72.412 C 205.064 72.817,204.913 73.324,204.913 73.538 C 204.913 74.029,204.274 74.277,203.011 74.277 C 201.748 74.277,201.767 74.559,203.107 75.724 C 203.733 76.268,204.045 76.718,203.846 76.791 C 203.656 76.860,203.567 77.089,203.649 77.302 C 203.730 77.514,203.658 77.773,203.488 77.878 C 203.087 78.126,203.086 79.191,203.487 79.191 C 203.657 79.191,204.233 78.857,204.767 78.450 C 205.755 77.696,207.037 77.896,207.658 78.900 C 208.095 79.607,208.423 79.133,208.241 78.057 C 208.044 76.895,208.531 75.726,209.533 74.951 C 210.155 74.471,209.689 74.149,208.486 74.230 C 207.213 74.316,206.716 73.927,206.478 72.659 C 206.260 71.495,205.716 71.386,205.249 72.412 M151.335 77.030 C 151.078 77.287,150.867 77.729,150.867 78.011 C 150.867 78.734,149.947 79.480,149.055 79.480 C 147.935 79.480,147.849 79.946,148.836 80.676 C 149.705 81.318,150.069 82.659,149.374 82.659 C 149.188 82.659,149.122 82.745,149.227 82.849 C 149.331 82.954,149.264 83.224,149.077 83.449 C 148.484 84.164,149.663 84.689,150.341 84.012 C 151.190 83.164,152.904 83.257,153.508 84.184 C 153.610 84.340,153.837 84.378,154.014 84.269 C 154.377 84.044,154.445 83.154,154.123 82.832 C 153.754 82.463,153.800 80.925,154.180 80.925 C 154.544 80.925,155.491 80.021,155.491 79.674 C 155.491 79.567,154.991 79.480,154.380 79.480 C 153.349 79.480,152.063 78.669,152.461 78.271 C 152.544 78.188,152.430 77.770,152.207 77.341 C 151.835 76.623,151.766 76.599,151.335 77.030 M178.251 76.916 C 175.934 77.104,175.064 77.488,175.337 78.200 C 175.424 78.427,175.384 78.613,175.248 78.613 C 174.609 78.614,174.846 80.942,175.557 81.653 C 176.505 82.601,176.661 82.567,177.401 81.251 C 178.098 80.010,178.783 79.330,178.978 79.682 C 179.226 80.131,178.591 81.792,178.171 81.792 C 177.937 81.792,177.746 81.973,177.746 82.195 C 177.746 82.646,176.967 83.037,176.564 82.787 C 176.419 82.698,176.301 82.815,176.301 83.047 C 176.301 83.458,174.785 84.231,174.061 84.189 C 173.862 84.178,173.699 84.264,173.699 84.381 C 173.699 84.665,170.605 85.979,170.159 85.884 C 170.040 85.859,169.942 85.968,169.942 86.127 C 169.942 86.286,169.805 86.416,169.636 86.416 C 169.468 86.416,168.089 87.197,166.572 88.150 C 165.054 89.104,163.737 89.884,163.646 89.884 C 163.554 89.884,164.705 88.640,166.205 87.118 C 169.735 83.536,169.525 83.787,169.754 82.873 C 169.864 82.437,170.081 82.081,170.237 82.081 C 170.820 82.081,170.492 80.872,169.725 80.198 C 168.696 79.292,167.949 79.305,166.103 80.260 C 165.274 80.689,164.488 81.011,164.357 80.976 C 164.226 80.940,164.195 81.033,164.288 81.184 C 164.380 81.334,164.112 81.727,163.692 82.058 C 163.272 82.388,163.016 82.659,163.123 82.659 C 163.230 82.659,162.986 83.017,162.581 83.454 C 162.175 83.891,161.771 84.476,161.683 84.754 C 161.594 85.033,161.328 85.260,161.091 85.260 C 160.854 85.260,160.733 85.380,160.824 85.526 C 160.914 85.672,160.823 85.965,160.621 86.176 C 160.419 86.388,160.093 86.922,159.898 87.364 C 159.703 87.805,159.347 88.242,159.108 88.333 C 158.869 88.425,158.740 88.607,158.822 88.739 C 158.903 88.870,158.739 89.150,158.459 89.361 C 158.178 89.572,157.562 90.491,157.091 91.404 C 155.957 93.600,155.908 93.544,156.024 90.174 C 156.097 88.050,156.031 87.283,155.774 87.283 C 155.566 87.283,155.485 87.048,155.575 86.705 C 155.864 85.599,154.681 86.048,153.862 87.355 C 153.439 88.031,152.989 88.625,152.863 88.675 C 152.737 88.725,152.705 88.952,152.793 89.181 C 152.880 89.409,152.808 89.595,152.632 89.595 C 152.456 89.595,152.312 89.790,152.312 90.029 C 152.312 90.267,152.174 90.462,152.006 90.462 C 151.838 90.462,151.784 90.598,151.886 90.764 C 151.989 90.930,151.943 91.223,151.785 91.414 C 151.626 91.606,151.405 92.252,151.294 92.850 C 151.182 93.448,150.975 94.008,150.834 94.095 C 150.693 94.182,150.578 94.709,150.578 95.265 C 150.578 95.822,150.480 96.217,150.361 96.143 C 149.852 95.828,149.843 107.432,150.352 107.815 C 150.466 107.901,150.587 108.421,150.620 108.971 C 150.653 109.521,150.803 110.133,150.952 110.331 C 151.102 110.529,151.158 110.945,151.076 111.256 C 150.995 111.567,151.041 111.861,151.178 111.908 C 151.316 111.955,151.478 112.254,151.538 112.572 C 151.598 112.890,151.743 113.372,151.861 113.642 C 151.978 113.913,151.990 114.270,151.887 114.437 C 151.784 114.604,151.817 114.740,151.960 114.740 C 152.350 114.740,152.899 116.116,152.707 116.615 C 152.615 116.855,152.687 117.052,152.866 117.052 C 153.046 117.052,153.328 117.410,153.492 117.847 C 153.657 118.284,154.172 119.406,154.636 120.339 C 155.101 121.273,155.411 122.151,155.325 122.290 C 155.239 122.429,155.274 122.543,155.404 122.543 C 155.533 122.543,155.816 122.966,156.033 123.483 C 156.249 123.999,156.816 125.242,157.291 126.245 C 157.767 127.247,158.088 128.136,158.004 128.219 C 157.762 128.461,155.780 126.172,155.780 125.651 C 155.780 125.518,155.455 125.058,155.058 124.629 C 154.660 124.200,154.335 123.686,154.335 123.486 C 154.335 123.285,154.205 123.121,154.046 123.121 C 153.887 123.121,153.757 122.942,153.757 122.723 C 153.757 122.504,153.556 122.158,153.311 121.954 C 153.065 121.751,152.931 121.409,153.012 121.196 C 153.094 120.983,153.035 120.809,152.881 120.809 C 152.727 120.809,152.601 120.625,152.601 120.400 C 152.601 120.175,152.504 119.947,152.384 119.894 C 151.940 119.697,150.283 117.007,150.444 116.746 C 150.537 116.596,150.418 116.474,150.181 116.474 C 149.944 116.474,149.676 116.246,149.585 115.968 C 149.185 114.737,141.437 107.803,140.462 107.803 C 140.303 107.803,140.173 107.688,140.173 107.547 C 140.173 107.405,139.718 107.204,139.162 107.100 C 138.605 106.996,138.150 106.786,138.150 106.634 C 138.150 106.483,137.695 106.358,137.139 106.358 C 136.582 106.358,136.127 106.261,136.127 106.142 C 136.127 106.022,135.282 105.915,134.249 105.904 C 133.215 105.892,132.370 105.990,132.370 106.121 C 132.370 106.251,132.059 106.358,131.678 106.358 C 130.334 106.358,130.575 107.169,132.235 108.231 C 133.104 108.787,133.815 109.381,133.815 109.551 C 133.815 109.721,133.937 109.785,134.087 109.693 C 134.675 109.329,136.346 111.273,136.995 113.077 C 137.864 115.490,139.842 119.520,139.871 118.934 C 139.888 118.574,141.329 120.106,141.329 120.484 C 141.329 120.637,141.782 121.000,142.335 121.291 C 143.314 121.807,150.868 126.823,151.156 127.149 C 151.236 127.239,151.561 127.469,151.879 127.661 C 152.197 127.853,153.270 128.498,154.263 129.094 C 155.257 129.690,156.069 130.281,156.069 130.407 C 156.069 130.533,156.269 130.636,156.512 130.636 C 156.755 130.636,157.029 130.831,157.121 131.069 C 157.212 131.308,157.526 131.503,157.817 131.503 C 158.904 131.503,158.816 132.774,157.705 133.120 C 157.362 133.227,157.016 133.404,156.936 133.513 C 156.720 133.809,153.935 135.115,153.685 135.038 C 153.566 135.001,153.468 135.073,153.468 135.197 C 153.468 135.909,148.859 136.317,148.629 135.625 C 148.567 135.442,148.344 135.359,148.132 135.441 C 147.617 135.638,144.730 134.159,144.947 133.808 C 145.040 133.657,144.947 133.593,144.740 133.666 C 144.260 133.836,142.775 132.540,142.775 131.950 C 142.775 131.704,142.655 131.535,142.509 131.575 C 142.158 131.671,140.173 129.512,140.173 129.034 C 140.173 128.829,140.042 128.617,139.882 128.564 C 139.195 128.335,139.312 127.037,140.078 126.379 C 140.863 125.704,142.312 125.497,142.632 126.014 C 142.895 126.440,142.507 127.457,142.081 127.457 C 141.618 127.457,141.569 128.272,141.979 129.118 C 142.175 129.524,142.555 129.769,142.985 129.769 C 143.372 129.769,143.597 129.642,143.497 129.480 C 143.399 129.321,143.515 129.191,143.754 129.191 C 144.345 129.191,145.665 127.932,145.665 127.368 C 145.665 127.118,145.795 126.832,145.954 126.734 C 146.723 126.259,145.843 125.034,144.068 124.107 C 142.601 123.341,138.863 124.384,138.542 125.650 C 138.451 126.008,138.270 126.301,138.140 126.301 C 138.009 126.301,137.926 126.755,137.954 127.311 C 137.983 127.866,138.103 128.322,138.223 128.322 C 138.342 128.323,138.439 128.596,138.439 128.929 C 138.439 129.262,138.681 129.880,138.976 130.302 C 140.516 132.502,139.174 133.683,137.283 131.792 C 137.204 131.712,137.009 131.640,136.850 131.631 C 136.501 131.612,134.995 131.228,134.393 131.005 C 133.917 130.829,133.556 130.742,132.153 130.466 C 131.637 130.364,131.214 130.160,131.214 130.012 C 131.214 129.864,131.051 129.767,130.853 129.795 C 130.217 129.885,128.613 129.417,128.613 129.142 C 128.613 128.996,128.450 128.898,128.251 128.923 C 127.538 129.016,127.136 128.897,127.295 128.640 C 127.385 128.496,127.199 128.445,126.883 128.528 C 126.568 128.610,126.080 128.578,125.799 128.455 C 125.519 128.332,125.178 128.257,125.042 128.288 C 124.622 128.383,123.684 128.004,123.815 127.792 C 123.884 127.681,123.446 127.638,122.842 127.695 C 122.238 127.753,121.658 127.661,121.553 127.491 C 121.437 127.303,120.868 127.250,120.096 127.356 C 118.652 127.554,116.763 127.276,116.763 126.866 C 116.763 126.711,117.911 126.590,119.381 126.590 C 121.261 126.590,121.942 126.682,121.797 126.918 C 121.650 127.154,121.961 127.191,122.910 127.048 C 123.728 126.926,124.297 126.965,124.413 127.154 C 124.516 127.320,125.048 127.457,125.595 127.457 C 126.142 127.457,126.590 127.589,126.590 127.751 C 126.590 127.917,126.891 127.970,127.281 127.872 C 127.661 127.777,128.059 127.839,128.165 128.011 C 128.271 128.183,128.675 128.324,129.063 128.324 C 129.451 128.324,129.769 128.461,129.769 128.630 C 129.769 128.798,129.877 128.869,130.010 128.787 C 130.346 128.579,132.370 129.230,132.370 129.545 C 132.370 129.687,132.485 129.732,132.626 129.645 C 132.961 129.437,134.682 130.041,134.682 130.366 C 134.682 130.504,134.864 130.548,135.086 130.463 C 135.309 130.377,135.577 130.446,135.681 130.616 C 135.786 130.786,136.199 130.925,136.599 130.925 C 137.474 130.925,137.451 130.148,136.561 129.655 C 136.243 129.479,135.916 129.248,135.835 129.141 C 135.754 129.035,135.331 128.858,134.896 128.749 C 134.460 128.639,134.104 128.434,134.104 128.292 C 134.104 128.151,134.007 128.049,133.887 128.066 C 133.451 128.129,132.370 127.671,132.370 127.423 C 132.370 127.283,132.175 127.168,131.936 127.168 C 131.698 127.168,131.503 127.070,131.503 126.951 C 131.503 126.832,131.210 126.713,130.852 126.688 C 130.495 126.662,129.682 126.412,129.046 126.131 C 128.410 125.850,127.697 125.585,127.462 125.543 C 127.226 125.500,126.993 125.342,126.942 125.191 C 126.892 125.040,126.597 124.983,126.287 125.064 C 125.976 125.146,125.723 125.076,125.723 124.910 C 125.723 124.744,124.975 124.527,124.061 124.429 C 123.147 124.330,122.188 124.135,121.931 123.996 C 121.296 123.652,111.507 123.713,111.058 124.064 C 110.860 124.218,110.330 124.290,109.880 124.224 C 109.426 124.157,108.902 124.274,108.704 124.486 C 108.508 124.696,108.225 124.793,108.075 124.700 C 107.926 124.608,107.803 124.660,107.803 124.815 C 107.803 124.971,107.413 125.184,106.936 125.289 C 106.460 125.394,106.069 125.599,106.069 125.746 C 106.069 125.892,105.884 126.012,105.656 126.012 C 105.429 126.012,105.069 126.186,104.856 126.399 C 104.396 126.860,103.104 127.598,102.870 127.535 C 102.779 127.511,102.543 127.939,102.345 128.485 C 102.147 129.032,101.864 129.480,101.715 129.480 C 101.567 129.480,101.445 129.666,101.445 129.893 C 101.445 130.120,101.273 130.478,101.062 130.688 C 100.486 131.264,99.422 134.643,99.422 135.894 C 99.422 136.499,99.292 136.994,99.133 136.994 C 98.974 136.994,98.844 137.645,98.844 138.439 C 98.844 139.234,98.974 139.884,99.133 139.884 C 99.292 139.884,99.422 140.122,99.422 140.412 C 99.422 142.751,103.424 142.588,104.176 140.219 C 104.285 139.876,104.509 139.595,104.673 139.595 C 104.869 139.595,104.903 138.912,104.772 137.605 C 104.639 136.277,104.677 135.551,104.887 135.421 C 105.061 135.314,105.202 134.844,105.202 134.376 C 105.202 133.909,105.346 133.526,105.522 133.526 C 105.698 133.526,105.767 133.331,105.676 133.092 C 105.584 132.854,105.621 132.659,105.758 132.659 C 105.895 132.659,106.081 132.364,106.171 132.004 C 106.489 130.738,111.072 127.410,111.843 127.886 C 111.978 127.970,112.135 127.902,112.190 127.735 C 112.246 127.569,112.615 127.395,113.010 127.350 C 113.405 127.305,113.948 127.169,114.217 127.049 C 114.815 126.781,115.617 126.921,115.694 127.307 C 115.726 127.463,115.296 127.673,114.740 127.773 C 114.184 127.873,113.360 128.104,112.909 128.286 C 112.459 128.468,111.951 128.531,111.781 128.426 C 111.598 128.312,111.556 128.371,111.678 128.568 C 111.791 128.752,111.737 128.902,111.557 128.902 C 111.377 128.902,111.035 129.097,110.797 129.335 C 110.558 129.574,110.113 129.769,109.806 129.769 C 109.499 129.769,109.249 129.943,109.249 130.156 C 109.249 130.369,108.826 130.947,108.309 131.441 C 106.964 132.726,106.647 133.152,106.647 133.675 C 106.647 133.930,106.536 134.069,106.400 133.985 C 106.264 133.901,106.211 134.138,106.283 134.512 C 106.354 134.886,106.271 135.280,106.097 135.388 C 105.679 135.646,105.687 137.572,106.105 137.572 C 106.314 137.572,106.367 137.889,106.254 138.454 C 106.154 138.957,106.191 139.265,106.342 139.172 C 106.596 139.015,107.111 140.091,106.994 140.535 C 106.962 140.654,107.099 140.755,107.298 140.759 C 107.496 140.764,107.984 141.227,108.382 141.788 C 108.779 142.350,109.275 142.995,109.484 143.223 C 110.265 144.075,109.515 144.220,104.299 144.220 C 99.180 144.220,97.333 143.943,98.299 143.322 C 98.550 143.161,98.332 143.135,97.715 143.254 C 97.007 143.390,96.789 143.349,96.937 143.109 C 97.051 142.925,97.006 142.775,96.838 142.775 C 96.670 142.775,96.532 142.890,96.532 143.031 C 96.532 143.172,95.947 143.375,95.231 143.482 C 93.712 143.710,93.659 143.855,94.725 144.864 C 95.466 145.564,99.356 146.253,98.957 145.613 C 98.765 145.305,99.938 145.028,100.578 145.231 C 100.910 145.336,101.156 145.283,101.156 145.106 C 101.156 144.892,104.963 144.798,113.567 144.798 C 121.529 144.798,126.041 144.694,126.156 144.509 C 126.273 144.320,124.425 144.220,120.826 144.220 C 114.359 144.220,114.329 144.199,117.015 141.644 C 117.948 140.756,118.803 139.736,118.913 139.379 C 119.024 139.021,119.235 138.728,119.384 138.728 C 119.532 138.728,119.653 138.338,119.653 137.861 C 119.653 137.384,119.523 136.994,119.364 136.994 C 119.205 136.994,119.074 136.832,119.073 136.633 C 119.071 136.361,117.287 134.207,116.962 134.083 C 116.480 133.900,112.428 133.718,112.428 133.880 C 112.428 134.003,112.241 134.104,112.014 134.104 C 110.769 134.104,111.299 135.955,112.573 136.061 C 114.739 136.240,114.285 140.173,112.098 140.173 C 111.829 140.173,111.559 140.322,111.499 140.504 C 111.342 140.973,110.116 140.286,110.116 139.730 C 110.116 139.497,109.943 139.306,109.732 139.306 C 107.431 139.306,107.727 131.913,110.033 131.808 C 110.226 131.799,110.529 131.521,110.707 131.189 C 111.040 130.567,112.874 129.612,113.512 129.728 C 113.710 129.764,113.873 129.674,113.873 129.527 C 113.873 129.119,116.446 128.561,117.381 128.766 C 117.892 128.878,118.208 128.829,118.208 128.636 C 118.208 128.464,118.468 128.324,118.786 128.324 C 119.104 128.324,119.364 128.456,119.364 128.618 C 119.364 128.785,120.019 128.895,120.882 128.873 C 122.719 128.826,124.389 129.098,124.513 129.466 C 124.563 129.615,124.791 129.665,125.019 129.577 C 125.247 129.490,125.661 129.519,125.939 129.643 C 126.217 129.767,126.768 129.906,127.164 129.951 C 127.559 129.996,127.923 130.155,127.972 130.304 C 128.022 130.453,128.302 130.512,128.594 130.435 C 128.886 130.359,129.213 130.438,129.320 130.611 C 129.426 130.783,129.839 130.925,130.236 130.925 C 130.634 130.925,130.886 131.043,130.797 131.187 C 130.708 131.331,130.881 131.385,131.181 131.306 C 131.481 131.228,131.814 131.305,131.921 131.478 C 132.028 131.651,132.400 131.793,132.748 131.794 C 133.097 131.795,133.754 131.990,134.209 132.227 C 134.665 132.465,135.347 132.659,135.727 132.659 C 136.106 132.659,136.416 132.785,136.416 132.939 C 136.416 133.093,136.598 133.149,136.820 133.064 C 137.043 132.978,137.311 133.047,137.416 133.217 C 137.521 133.387,137.826 133.527,138.095 133.528 C 138.364 133.529,138.956 133.724,139.412 133.961 C 139.867 134.199,140.492 134.393,140.802 134.393 C 141.111 134.393,141.284 134.522,141.187 134.679 C 141.088 134.838,141.196 134.893,141.430 134.804 C 141.660 134.715,141.935 134.782,142.040 134.951 C 142.145 135.121,142.483 135.260,142.792 135.260 C 143.100 135.260,143.353 135.380,143.353 135.526 C 143.353 135.672,143.743 135.878,144.220 135.983 C 144.697 136.087,145.087 136.293,145.087 136.439 C 145.087 136.585,145.184 136.685,145.303 136.659 C 145.728 136.569,146.526 137.059,146.369 137.314 C 146.136 137.689,139.884 137.646,139.884 137.269 C 139.884 137.069,139.293 137.032,138.150 137.162 C 136.972 137.295,136.416 137.257,136.416 137.043 C 136.416 136.870,136.059 136.731,135.621 136.735 C 134.739 136.741,133.039 136.464,132.370 136.205 C 131.717 135.952,126.879 135.867,126.879 136.109 C 126.879 136.224,126.553 136.493,126.156 136.705 C 125.759 136.918,125.434 137.265,125.434 137.477 C 125.434 137.688,125.335 137.861,125.214 137.861 C 124.541 137.861,125.052 139.774,125.867 140.307 C 126.344 140.619,126.799 140.946,126.879 141.034 C 127.089 141.266,130.768 142.197,131.478 142.197 C 131.810 142.197,132.081 142.327,132.081 142.486 C 132.081 142.645,132.479 142.775,132.965 142.775 C 133.481 142.775,133.775 142.654,133.671 142.486 C 133.566 142.316,133.888 142.189,134.448 142.178 C 134.974 142.168,135.860 142.088,136.416 141.999 C 136.973 141.911,137.915 141.828,138.512 141.815 C 139.108 141.802,139.595 141.687,139.595 141.560 C 139.595 141.433,140.043 141.329,140.590 141.329 C 141.137 141.329,141.672 141.187,141.780 141.013 C 141.887 140.839,142.285 140.756,142.664 140.829 C 143.043 140.901,143.353 140.848,143.353 140.711 C 143.353 140.574,143.670 140.462,144.058 140.462 C 144.446 140.462,144.849 140.324,144.954 140.154 C 145.059 139.984,145.319 139.912,145.531 139.993 C 145.743 140.074,145.960 140.011,146.013 139.852 C 146.065 139.694,146.367 139.516,146.682 139.457 C 146.997 139.399,147.319 139.325,147.399 139.294 C 147.478 139.263,147.641 139.253,147.760 139.272 C 147.879 139.291,147.977 139.176,147.977 139.017 C 147.977 138.858,148.215 138.728,148.507 138.728 C 148.798 138.728,149.131 138.634,149.246 138.519 C 149.566 138.199,151.410 138.149,151.600 138.456 C 151.693 138.606,152.086 138.728,152.474 138.728 C 152.862 138.728,153.179 138.858,153.179 139.017 C 153.179 139.180,153.812 139.279,154.624 139.244 C 155.419 139.209,156.069 139.092,156.069 138.984 C 156.069 138.798,158.024 138.466,159.465 138.405 C 159.823 138.390,160.116 138.254,160.116 138.102 C 160.116 137.262,162.288 138.041,162.876 139.091 C 163.805 140.754,165.941 142.922,166.298 142.565 C 166.387 142.476,166.666 142.575,166.919 142.784 C 167.405 143.188,169.661 142.590,170.946 141.717 C 171.764 141.161,172.906 141.238,174.564 141.962 C 176.580 142.842,176.443 142.916,172.760 142.940 C 170.972 142.952,162.160 143.013,153.179 143.075 L 136.850 143.189 151.879 143.347 L 166.908 143.505 151.590 143.635 C 143.165 143.707,135.771 143.745,135.160 143.719 C 134.405 143.686,133.853 143.853,133.439 144.239 C 132.752 144.878,180.319 145.132,181.089 144.492 C 181.537 144.121,189.855 144.066,209.971 144.302 C 229.947 144.536,245.201 144.611,259.249 144.546 C 265.051 144.519,270.773 144.571,271.965 144.662 C 274.378 144.846,276.261 144.129,275.891 143.167 C 275.519 142.196,274.390 141.072,273.772 141.056 C 273.414 141.048,273.119 140.878,273.117 140.679 C 273.114 140.400,273.062 140.397,272.890 140.668 C 272.616 141.100,270.508 142.038,270.014 141.948 C 269.816 141.912,269.653 142.018,269.653 142.184 C 269.653 142.380,268.093 142.486,265.173 142.486 C 260.203 142.486,259.892 142.343,261.519 140.807 C 262.364 140.010,263.295 138.367,263.295 137.672 C 263.295 137.458,263.412 137.283,263.555 137.283 C 263.698 137.283,263.796 136.646,263.772 135.866 C 263.748 135.087,263.631 134.509,263.512 134.583 C 263.392 134.656,263.295 134.261,263.295 133.705 C 263.295 133.148,263.163 132.611,263.001 132.512 C 262.840 132.412,262.782 132.209,262.874 132.061 C 262.965 131.913,262.902 131.792,262.734 131.792 C 262.565 131.792,262.428 131.653,262.428 131.482 C 262.428 131.312,262.265 130.991,262.066 130.770 C 261.868 130.548,261.521 130.135,261.296 129.851 C 261.070 129.567,260.615 129.026,260.284 128.648 L 259.682 127.961 260.587 128.421 C 261.085 128.674,261.834 129.308,262.253 129.831 C 262.672 130.353,263.149 130.945,263.314 131.145 C 263.479 131.346,263.534 131.639,263.437 131.796 C 263.340 131.953,263.398 132.081,263.567 132.081 C 263.735 132.081,263.873 132.276,263.873 132.514 C 263.873 132.753,264.019 132.948,264.198 132.948 C 264.404 132.948,264.461 133.261,264.352 133.801 C 264.251 134.307,264.353 134.984,264.603 135.463 C 264.864 135.963,264.958 136.631,264.850 137.211 C 264.738 137.812,264.791 138.150,264.997 138.150 C 265.173 138.150,265.318 138.391,265.318 138.684 C 265.318 139.984,268.167 141.479,268.982 140.607 C 269.988 139.530,270.289 138.347,270.117 136.157 C 269.877 133.120,269.849 132.948,269.591 132.948 C 269.466 132.948,269.364 132.696,269.364 132.387 C 269.364 132.078,269.232 131.744,269.070 131.644 C 268.909 131.545,268.852 131.342,268.943 131.194 C 269.034 131.046,268.972 130.925,268.803 130.925 C 268.635 130.925,268.497 130.741,268.497 130.515 C 268.497 130.290,268.400 130.063,268.280 130.010 C 268.161 129.957,267.697 129.373,267.249 128.713 C 266.358 127.401,264.353 125.434,263.906 125.434 C 263.752 125.434,263.453 125.266,263.243 125.061 C 263.033 124.857,262.243 124.456,261.488 124.170 C 260.733 123.885,260.116 123.536,260.116 123.394 C 260.116 123.252,259.725 123.214,259.249 123.309 C 258.772 123.405,258.382 123.359,258.382 123.208 C 258.382 123.057,257.374 122.908,256.142 122.876 C 254.910 122.845,253.858 122.692,253.805 122.537 C 253.676 122.157,252.098 122.175,251.970 122.558 C 251.914 122.725,251.156 122.874,250.284 122.888 C 249.413 122.903,248.569 123.009,248.410 123.125 C 248.168 123.301,246.593 123.701,245.520 123.857 C 245.361 123.881,245.036 123.965,244.798 124.045 C 244.559 124.126,243.726 124.407,242.946 124.671 C 242.166 124.935,241.468 125.090,241.394 125.017 C 241.321 124.943,241.071 125.073,240.838 125.305 C 240.606 125.538,240.296 125.654,240.150 125.564 C 240.004 125.473,239.884 125.527,239.884 125.683 C 239.884 125.838,239.469 126.057,238.961 126.168 C 238.454 126.280,237.859 126.550,237.640 126.769 C 237.421 126.988,236.991 127.168,236.685 127.168 C 236.378 127.168,236.127 127.312,236.127 127.488 C 236.127 127.664,235.932 127.733,235.694 127.641 C 235.455 127.550,235.260 127.608,235.260 127.772 C 235.260 127.935,235.130 127.988,234.971 127.890 C 234.534 127.620,234.625 127.168,235.116 127.168 C 235.354 127.168,235.549 126.979,235.549 126.748 C 235.549 126.390,237.817 124.566,238.261 124.566 C 238.345 124.566,238.757 124.222,239.178 123.802 C 239.794 123.186,239.992 123.116,240.198 123.440 C 240.394 123.749,240.455 123.703,240.458 123.242 C 240.461 122.885,240.780 122.475,241.245 122.231 C 242.533 121.557,247.399 116.546,247.399 115.895 C 247.399 115.449,246.180 114.162,245.757 114.162 C 245.547 114.162,245.376 114.006,245.376 113.815 C 245.376 113.545,245.299 113.545,245.029 113.815 C 244.838 114.006,244.518 114.162,244.318 114.162 C 243.934 114.162,242.891 115.038,241.138 116.835 C 240.556 117.431,239.841 117.919,239.549 117.919 C 239.210 117.919,239.017 118.129,239.017 118.499 C 239.017 118.817,238.199 120.020,237.200 121.172 C 236.200 122.324,234.901 123.916,234.314 124.711 C 233.726 125.506,233.146 126.286,233.025 126.445 C 232.673 126.904,232.625 128.946,232.956 129.345 C 233.242 129.689,232.672 130.598,232.133 130.657 C 232.025 130.669,231.644 130.733,231.286 130.800 C 230.609 130.926,230.366 130.485,230.997 130.275 C 231.864 129.986,231.632 125.093,230.706 124.133 C 228.400 121.742,226.368 121.640,224.115 123.804 C 221.579 126.240,223.831 129.946,227.317 129.071 C 228.139 128.865,228.120 128.997,227.697 126.445 C 227.555 125.586,228.826 125.468,229.138 126.311 C 229.415 127.059,229.233 128.613,228.869 128.613 C 228.728 128.613,228.613 128.860,228.613 129.162 C 228.613 130.254,222.908 134.511,221.893 134.176 C 221.774 134.136,221.676 134.249,221.676 134.427 C 221.676 134.607,221.421 134.683,221.098 134.598 C 220.780 134.515,220.590 134.561,220.676 134.701 C 220.762 134.840,220.491 135.040,220.073 135.145 C 219.271 135.346,217.052 134.760,217.052 134.347 C 217.052 134.213,216.954 134.118,216.835 134.135 C 216.384 134.200,215.318 133.736,215.318 133.475 C 215.318 133.325,215.197 133.278,215.049 133.369 C 214.901 133.461,214.698 133.403,214.598 133.242 C 214.498 133.080,214.184 132.948,213.901 132.948 C 213.411 132.948,212.428 132.113,212.428 131.697 C 212.428 131.590,212.688 131.503,213.006 131.503 C 213.324 131.503,213.568 131.405,213.550 131.286 C 213.457 130.697,213.633 130.370,214.128 130.213 C 214.428 130.118,215.082 129.649,215.583 129.171 C 216.083 128.692,216.618 128.379,216.772 128.474 C 216.926 128.569,217.052 128.453,217.052 128.216 C 217.052 127.979,217.297 127.707,217.596 127.612 C 217.896 127.517,218.550 127.048,219.051 126.569 C 219.551 126.091,220.087 125.778,220.240 125.873 C 220.394 125.968,220.520 125.852,220.520 125.615 C 220.520 125.377,220.753 125.110,221.038 125.019 C 221.323 124.929,222.136 124.329,222.844 123.687 C 223.553 123.045,224.419 122.448,224.768 122.359 C 225.117 122.271,225.616 121.874,225.876 121.477 C 226.195 120.991,226.531 120.802,226.903 120.899 C 227.300 121.003,227.457 120.894,227.457 120.513 C 227.457 120.220,227.717 119.899,228.035 119.798 C 228.353 119.697,228.613 119.497,228.613 119.354 C 228.613 119.210,228.780 119.158,228.985 119.236 C 229.212 119.323,229.495 119.001,229.706 118.416 C 229.898 117.887,230.315 117.174,230.634 116.831 C 230.953 116.489,231.218 116.041,231.224 115.836 C 231.229 115.630,231.485 114.942,231.792 114.306 C 232.099 113.671,232.355 113.047,232.360 112.921 C 232.392 112.180,236.030 108.651,236.554 108.853 C 236.849 108.966,236.997 108.845,237.003 108.485 C 237.013 107.886,238.299 106.815,238.706 107.067 C 239.121 107.324,238.855 105.864,238.409 105.441 C 238.018 105.069,233.284 104.864,232.948 105.204 C 232.592 105.564,230.606 106.085,230.304 105.898 C 230.095 105.770,230.047 105.817,230.175 106.025 C 230.288 106.208,230.250 106.358,230.089 106.358 C 229.929 106.358,229.053 106.807,228.143 107.355 C 227.232 107.904,226.395 108.295,226.282 108.226 C 226.170 108.156,226.016 108.334,225.941 108.622 C 225.865 108.909,225.363 109.357,224.824 109.616 C 223.898 110.063,222.254 111.578,222.254 111.986 C 222.254 112.089,221.832 112.736,221.315 113.423 C 220.798 114.111,220.181 114.965,219.942 115.320 C 219.704 115.676,219.346 116.137,219.147 116.344 C 218.949 116.552,218.786 116.852,218.786 117.011 C 218.786 117.170,218.619 117.472,218.414 117.682 C 218.209 117.892,217.729 118.584,217.345 119.220 C 216.962 119.855,216.567 120.441,216.467 120.520 C 216.368 120.600,216.040 121.087,215.740 121.604 C 215.439 122.121,215.105 122.543,214.998 122.543 C 214.890 122.543,214.721 122.868,214.621 123.266 C 214.521 123.663,214.312 123.988,214.156 123.988 C 214.000 123.988,213.873 124.131,213.873 124.305 C 213.873 124.683,212.701 126.381,212.546 126.226 C 212.487 126.167,213.017 124.957,213.725 123.536 C 214.432 122.116,215.015 120.791,215.020 120.592 C 215.025 120.394,215.159 120.231,215.318 120.231 C 215.477 120.231,215.593 120.134,215.576 120.014 C 215.511 119.564,215.975 118.497,216.236 118.497 C 216.386 118.497,216.433 118.376,216.342 118.228 C 216.250 118.080,216.308 117.877,216.469 117.777 C 216.631 117.678,216.763 117.344,216.763 117.035 C 216.763 116.726,216.893 116.474,217.052 116.474 C 217.211 116.474,217.341 116.206,217.341 115.879 C 217.341 115.552,217.459 115.357,217.603 115.446 C 217.747 115.535,217.797 115.347,217.714 115.029 C 217.631 114.711,217.696 114.451,217.860 114.451 C 218.023 114.451,218.245 113.931,218.353 113.295 C 218.460 112.659,218.650 112.139,218.775 112.139 C 218.901 112.139,219.003 111.786,219.003 111.356 C 219.003 110.925,219.142 110.527,219.312 110.470 C 219.482 110.414,219.549 110.181,219.462 109.952 C 219.374 109.724,219.405 109.310,219.532 109.032 C 219.875 108.274,219.924 99.629,219.587 99.209 C 219.429 99.013,219.353 98.395,219.419 97.836 C 219.484 97.278,219.443 96.821,219.329 96.821 C 219.007 96.821,218.424 94.827,218.606 94.352 C 218.695 94.120,218.658 93.931,218.523 93.931 C 218.185 93.931,217.543 92.311,217.699 91.850 C 217.768 91.643,217.629 91.330,217.390 91.153 C 217.150 90.977,216.944 90.359,216.931 89.781 C 216.918 89.203,216.810 88.730,216.691 88.729 C 216.572 88.729,216.474 88.533,216.474 88.295 C 216.474 88.056,216.330 87.861,216.154 87.861 C 215.978 87.861,215.909 87.666,216.000 87.428 C 216.092 87.189,216.038 86.994,215.880 86.994 C 215.722 86.994,215.469 86.669,215.318 86.272 C 214.660 84.540,214.162 85.428,214.162 88.334 C 214.162 91.223,213.717 93.445,213.174 93.264 C 213.002 93.207,212.861 92.982,212.861 92.764 C 212.861 92.546,212.601 92.094,212.283 91.759 C 211.965 91.425,211.510 90.851,211.272 90.484 C 211.033 90.118,210.602 89.509,210.314 89.131 C 210.025 88.754,209.870 88.314,209.969 88.153 C 210.069 87.993,209.979 87.858,209.771 87.853 C 209.563 87.849,209.068 87.400,208.671 86.855 C 208.273 86.310,207.135 84.983,206.142 83.906 C 205.148 82.829,204.335 81.710,204.335 81.419 C 204.335 81.126,204.201 80.974,204.034 81.077 C 203.868 81.180,203.403 81.048,203.000 80.784 C 200.967 79.452,198.457 79.998,198.382 81.789 C 198.343 82.746,200.552 85.224,204.170 88.281 C 205.102 89.068,205.717 89.761,205.538 89.821 C 205.210 89.930,203.408 88.804,203.227 88.377 C 203.174 88.253,202.994 88.150,202.826 88.150 C 202.658 88.150,201.892 87.763,201.124 87.291 C 200.355 86.818,199.387 86.346,198.973 86.242 C 198.558 86.138,198.154 85.883,198.074 85.675 C 197.994 85.467,197.767 85.359,197.569 85.435 C 197.106 85.612,195.588 85.041,195.763 84.755 C 195.837 84.635,195.498 84.523,195.011 84.504 C 194.523 84.486,193.971 84.261,193.782 84.003 C 193.594 83.746,193.358 83.617,193.258 83.717 C 193.069 83.906,190.751 82.494,190.751 82.190 C 190.751 82.096,191.089 82.103,191.502 82.207 C 192.289 82.404,193.353 81.559,193.353 80.736 C 193.353 80.522,193.483 80.347,193.642 80.347 C 193.801 80.347,193.931 80.087,193.931 79.769 C 193.931 79.451,193.809 79.191,193.661 79.191 C 193.512 79.191,193.350 78.848,193.300 78.428 C 193.099 76.759,188.573 75.855,187.730 77.315 C 187.564 77.604,187.233 78.046,186.994 78.298 C 185.578 79.797,187.000 82.829,189.957 84.615 C 192.015 85.859,191.033 85.971,184.249 85.267 C 183.136 85.152,182.160 85.152,182.081 85.269 C 182.001 85.385,181.026 85.540,179.913 85.615 C 178.801 85.689,177.663 85.848,177.384 85.969 C 177.086 86.099,176.879 86.066,176.879 85.888 C 176.879 85.722,177.334 85.422,177.890 85.221 C 178.447 85.020,178.902 84.751,178.902 84.624 C 178.902 84.497,179.038 84.393,179.205 84.393 C 179.371 84.393,179.829 84.035,180.223 83.598 C 182.028 81.593,182.336 79.737,181.178 77.851 L 180.491 76.734 178.251 76.916 M219.261 79.050 C 219.353 79.290,219.268 79.681,219.072 79.917 C 218.876 80.153,218.829 80.351,218.968 80.356 C 219.106 80.361,218.967 80.556,218.659 80.790 C 218.014 81.277,216.763 81.359,216.763 80.913 C 216.763 80.739,216.598 80.767,216.369 80.981 C 215.873 81.444,216.231 82.075,217.353 82.720 C 218.247 83.232,218.265 84.389,217.380 84.397 C 217.020 84.401,216.997 84.459,217.284 84.641 C 217.491 84.772,217.638 84.998,217.611 85.142 C 217.443 86.035,217.696 86.106,218.597 85.419 C 219.795 84.505,220.086 84.503,221.252 85.392 C 221.764 85.783,222.264 86.021,222.363 85.922 C 222.656 85.629,222.568 84.393,222.254 84.393 C 221.589 84.393,221.994 82.944,222.832 82.324 C 224.216 81.301,223.997 80.636,222.277 80.636 C 220.907 80.636,220.842 80.598,220.520 79.624 C 220.295 78.943,220.008 78.613,219.640 78.613 C 219.271 78.613,219.148 78.755,219.261 79.050 M190.569 79.841 C 190.848 80.880,190.779 81.792,190.422 81.792 C 189.667 81.792,188.953 79.929,189.499 79.383 C 189.891 78.992,190.400 79.210,190.569 79.841 M187.972 87.483 C 188.407 87.605,188.436 87.686,188.116 87.888 C 187.795 88.092,187.811 88.142,188.198 88.146 C 188.463 88.148,188.728 88.006,188.787 87.829 C 189.064 87.000,196.132 89.637,200.289 92.121 C 207.077 96.177,210.983 103.266,210.983 111.532 C 210.983 115.618,208.397 123.571,205.952 127.006 C 203.847 129.963,202.723 131.086,201.529 131.424 C 200.926 131.595,199.393 132.016,198.121 132.361 C 193.021 133.745,189.574 136.347,187.572 140.325 C 185.527 144.389,184.438 144.445,182.094 140.607 C 179.285 136.009,175.962 133.635,170.743 132.501 C 167.863 131.875,167.228 131.596,166.277 130.538 C 159.829 123.362,157.259 113.995,159.487 105.780 C 159.853 104.429,160.274 103.200,160.423 103.049 C 160.572 102.898,160.694 102.591,160.694 102.367 C 160.694 99.733,170.190 89.884,172.729 89.884 C 172.803 89.884,173.449 89.618,174.165 89.292 C 174.929 88.944,175.727 88.773,176.100 88.877 C 176.586 89.014,176.634 88.987,176.309 88.763 C 175.805 88.416,175.831 88.404,178.468 87.779 C 180.156 87.378,186.857 87.170,187.972 87.483 M169.653 89.295 C 169.653 89.429,168.970 90.010,168.136 90.586 C 161.554 95.126,158.331 99.990,156.890 107.557 C 156.562 109.282,156.185 110.694,156.054 110.694 C 155.557 110.694,155.439 110.030,155.729 108.864 C 155.893 108.201,156.246 106.574,156.512 105.249 C 157.272 101.467,159.536 97.105,162.340 94.022 C 163.434 92.819,167.114 89.890,167.547 89.878 C 167.672 89.874,168.096 89.624,168.489 89.323 C 169.176 88.794,169.653 88.783,169.653 89.295 M205.953 92.995 C 207.968 94.677,210.375 97.890,211.950 101.000 C 214.131 105.308,214.110 117.676,211.912 122.656 C 208.839 129.621,206.372 132.803,205.601 130.794 C 205.413 130.304,206.880 128.255,207.254 128.486 C 207.394 128.572,207.437 128.458,207.350 128.231 C 207.263 128.005,207.395 127.618,207.642 127.370 C 207.890 127.122,208.092 126.824,208.092 126.708 C 208.092 126.591,208.447 125.899,208.880 125.170 C 211.549 120.674,212.476 117.494,212.638 112.272 C 212.862 105.051,209.778 96.934,205.590 93.722 C 203.200 91.889,202.691 91.347,203.352 91.338 C 203.685 91.333,204.855 92.079,205.953 92.995 M196.821 99.855 C 196.423 100.083,195.871 100.273,195.592 100.279 C 195.314 100.284,195.087 100.388,195.087 100.510 C 195.087 100.631,194.404 101.049,193.569 101.439 C 192.735 101.829,191.987 102.227,191.908 102.324 C 191.828 102.421,191.271 102.830,190.671 103.234 C 190.070 103.637,188.947 104.564,188.177 105.294 C 187.406 106.024,186.687 106.533,186.580 106.426 C 186.473 106.319,186.473 106.459,186.580 106.737 C 186.702 107.057,186.573 107.426,186.229 107.740 C 185.917 108.024,185.725 108.516,185.781 108.887 C 185.834 109.245,185.772 109.538,185.641 109.538 C 185.389 109.538,185.305 111.895,185.549 112.139 C 185.921 112.510,187.119 115.222,187.080 115.603 C 187.056 115.839,187.159 116.108,187.309 116.201 C 187.694 116.439,187.728 120.480,187.348 120.860 C 186.855 121.353,183.514 121.403,183.329 120.920 C 183.244 120.700,183.010 120.520,182.808 120.520 C 182.606 120.520,182.314 120.022,182.159 119.412 C 181.846 118.180,181.998 116.474,182.420 116.474 C 182.570 116.474,182.622 116.358,182.534 116.217 C 182.366 115.944,183.769 113.218,184.162 113.054 C 184.502 112.912,184.446 109.249,184.104 109.249 C 183.945 109.249,183.815 108.923,183.815 108.526 C 183.815 108.129,183.674 107.803,183.502 107.803 C 183.330 107.803,183.238 107.657,183.297 107.478 C 183.639 106.453,177.277 101.735,174.205 100.736 C 173.291 100.438,172.543 100.115,172.543 100.018 C 172.543 99.920,172.008 99.891,171.353 99.954 L 170.162 100.067 170.344 103.574 C 170.444 105.503,170.606 110.943,170.703 115.664 L 170.881 124.247 171.706 124.428 C 173.646 124.855,173.699 124.729,173.700 119.706 C 173.702 113.681,174.023 106.192,174.300 105.745 C 174.603 105.254,178.113 106.750,179.237 107.849 C 180.884 109.459,181.007 110.791,179.756 113.467 C 176.716 119.968,178.950 124.291,185.341 124.271 C 190.390 124.256,192.738 120.915,191.023 116.185 C 189.582 112.211,189.295 111.114,189.470 110.267 C 190.013 107.656,192.471 105.393,194.798 105.363 L 196.098 105.347 196.175 114.683 L 196.251 124.018 197.757 123.931 L 199.263 123.844 199.170 111.850 C 199.119 105.253,199.017 99.758,198.943 99.639 C 198.730 99.292,197.606 99.407,196.821 99.855 M236.609 113.563 C 235.867 114.346,235.260 115.127,235.260 115.297 C 235.260 115.467,235.148 115.607,235.011 115.607 C 234.874 115.607,234.825 115.933,234.901 116.331 C 234.977 116.729,234.902 117.221,234.734 117.423 C 234.566 117.626,234.441 118.236,234.456 118.779 C 234.472 119.323,234.347 119.813,234.180 119.869 C 234.013 119.924,233.943 120.224,234.024 120.534 C 234.105 120.845,234.027 121.098,233.849 121.098 C 233.671 121.098,233.525 121.326,233.524 121.604 C 233.523 121.882,233.329 122.481,233.093 122.934 C 232.317 124.422,232.994 124.880,234.148 123.649 C 236.673 120.954,237.252 120.256,238.303 118.642 C 238.923 117.688,239.556 116.820,239.710 116.714 C 240.158 116.402,240.298 113.071,239.884 112.572 C 239.171 111.713,238.035 112.056,236.609 113.563 M129.109 113.267 C 127.904 115.307,129.499 118.819,133.486 122.905 C 135.867 125.346,137.105 125.581,135.965 123.376 C 135.717 122.897,135.565 122.352,135.627 122.165 C 135.689 121.979,135.557 121.643,135.333 121.419 C 135.109 121.195,134.989 120.771,135.066 120.477 C 135.143 120.183,135.104 119.942,134.980 119.942 C 134.751 119.942,134.278 118.361,134.311 117.702 C 134.321 117.504,134.229 117.341,134.108 117.341 C 133.987 117.341,133.813 116.983,133.723 116.546 C 133.346 114.723,131.094 112.428,129.681 112.428 C 129.639 112.428,129.381 112.805,129.109 113.267 M156.764 114.984 C 157.214 115.713,157.284 117.630,156.860 117.630 C 156.320 117.630,156.069 117.026,156.069 115.728 C 156.069 114.804,156.421 114.428,156.764 114.984 M122.471 115.901 C 122.193 116.073,121.965 116.467,121.965 116.777 C 121.965 117.087,121.836 117.341,121.678 117.341 C 121.376 117.341,122.147 118.349,123.483 119.698 C 123.920 120.139,124.277 120.626,124.277 120.780 C 124.277 120.934,124.505 121.133,124.783 121.223 C 125.061 121.312,125.705 121.776,126.213 122.254 C 126.721 122.731,127.214 123.121,127.308 123.121 C 127.555 123.121,129.317 124.381,129.432 124.639 C 129.485 124.758,129.712 124.855,129.937 124.855 C 130.163 124.855,130.347 124.986,130.347 125.145 C 130.347 125.303,130.444 125.419,130.564 125.402 C 131.000 125.339,132.081 125.797,132.081 126.045 C 132.081 126.186,132.267 126.301,132.494 126.301 C 132.721 126.301,133.111 126.505,133.361 126.755 C 133.611 127.005,133.817 127.102,133.819 126.972 C 133.822 126.841,133.919 126.877,134.036 127.051 C 134.332 127.492,135.838 127.833,135.838 127.458 C 135.838 127.045,135.210 125.983,134.647 125.447 C 134.390 125.201,133.093 123.699,131.766 122.110 C 126.808 116.172,124.511 114.637,122.471 115.901 M158.815 121.727 C 159.610 123.496,161.073 126.218,162.066 127.775 C 163.905 130.656,164.077 131.054,163.608 131.343 C 163.232 131.576,161.826 130.993,161.352 130.408 C 160.015 128.755,156.369 119.470,156.790 118.789 C 157.149 118.208,157.394 118.563,158.815 121.727 M256.052 128.315 C 258.207 129.414,260.983 132.735,260.983 134.214 C 260.983 134.471,261.113 134.682,261.272 134.682 C 261.929 134.682,261.567 136.883,260.766 137.757 C 258.881 139.814,257.882 140.028,256.291 138.716 C 254.318 137.090,254.584 134.833,256.836 134.090 L 257.912 133.735 257.247 133.197 C 255.117 131.472,251.500 133.041,250.843 135.976 C 250.233 138.701,251.356 140.289,254.934 141.763 C 258.010 143.030,253.285 143.256,231.792 142.867 C 218.983 142.636,218.818 142.626,225.434 142.477 C 230.416 142.366,228.646 142.319,218.786 142.304 C 211.395 142.293,205.932 142.374,206.647 142.486 L 207.948 142.688 206.647 142.749 C 205.932 142.782,202.973 142.794,200.072 142.776 C 196.540 142.753,194.798 142.843,194.798 143.047 C 194.798 143.215,194.333 143.353,193.765 143.353 C 192.946 143.353,192.752 143.250,192.827 142.858 C 192.999 141.965,197.048 141.109,198.760 141.603 C 203.261 142.904,206.639 141.562,206.652 138.469 C 206.660 136.591,206.844 136.519,209.801 137.230 C 211.847 137.723,213.303 137.861,216.439 137.861 C 219.931 137.861,220.770 137.958,222.872 138.604 C 224.201 139.012,226.590 139.734,228.179 140.208 C 234.816 142.189,243.125 141.319,243.815 138.573 C 244.686 135.102,241.899 133.946,236.231 135.427 C 227.095 137.814,218.684 137.415,225.578 134.921 C 228.424 133.892,230.897 132.983,234.104 131.787 C 244.856 127.777,252.598 126.553,256.052 128.315 M165.173 133.526 C 165.173 134.063,162.757 135.328,162.066 135.153 C 161.788 135.083,161.561 135.143,161.561 135.287 C 161.561 135.431,161.308 135.549,161.000 135.549 C 160.691 135.549,160.351 135.691,160.245 135.863 C 160.138 136.036,159.805 136.113,159.505 136.035 C 159.205 135.956,158.960 135.996,158.960 136.123 C 158.960 136.361,157.277 136.714,156.142 136.712 C 155.784 136.712,155.491 136.840,155.491 136.997 C 155.491 137.155,155.025 137.283,154.456 137.283 C 153.208 137.283,153.237 136.689,154.503 136.304 C 154.967 136.164,155.542 135.980,155.780 135.898 C 156.019 135.815,156.376 135.773,156.575 135.805 C 156.774 135.837,156.936 135.749,156.936 135.609 C 156.936 135.469,157.684 135.105,158.598 134.801 C 159.512 134.497,160.780 133.954,161.416 133.594 C 162.779 132.823,165.173 132.780,165.173 133.526 M207.901 133.420 C 208.635 133.520,209.166 133.714,209.082 133.850 C 208.998 133.986,209.136 134.018,209.388 133.921 C 210.441 133.518,215.401 135.358,215.249 136.096 C 215.065 136.991,209.193 136.148,205.925 134.757 C 203.217 133.604,204.233 132.917,207.901 133.420 M202.944 134.692 C 205.009 135.266,206.153 137.685,205.049 139.145 C 204.815 139.453,204.624 139.591,204.624 139.451 C 204.624 139.311,204.462 139.404,204.263 139.658 C 203.812 140.234,202.309 140.552,201.746 140.191 C 201.379 139.955,201.384 139.851,201.784 139.396 C 202.657 138.403,202.695 137.639,201.910 136.855 C 200.601 135.545,198.914 135.951,197.682 137.870 C 195.850 140.726,191.374 142.611,192.974 139.854 C 193.716 138.574,197.135 135.497,197.612 135.680 C 197.829 135.763,197.937 135.718,197.851 135.579 C 197.765 135.441,198.051 135.189,198.486 135.021 C 200.186 134.363,201.428 134.271,202.944 134.692 M171.676 135.499 C 172.664 135.881,174.596 137.580,174.401 137.895 C 174.314 138.035,174.414 138.151,174.622 138.152 C 175.146 138.155,175.894 139.602,175.778 140.390 C 175.683 141.033,175.145 141.326,175.145 140.734 C 175.145 140.566,175.013 140.509,174.853 140.609 C 174.242 140.986,173.360 140.363,172.320 138.821 C 170.911 136.730,170.135 136.278,168.398 136.539 C 167.513 136.671,167.052 136.883,167.052 137.156 C 167.052 137.385,166.922 137.572,166.763 137.572 C 166.330 137.572,166.415 138.132,166.924 138.642 C 167.172 138.889,167.306 139.270,167.222 139.488 C 167.139 139.706,167.196 139.884,167.350 139.884 C 167.504 139.884,167.630 140.145,167.630 140.462 C 167.630 141.336,167.104 141.164,165.862 139.884 C 162.883 136.814,167.018 133.696,171.676 135.499 M241.561 136.633 C 243.752 138.527,241.907 139.863,237.084 139.877 C 233.810 139.887,233.599 138.989,236.503 137.408 C 239.001 136.049,240.602 135.803,241.561 136.633 M225.000 144.940 C 224.841 144.993,224.353 145.115,223.916 145.211 C 223.212 145.367,223.121 145.517,223.121 146.537 C 223.121 147.170,222.991 147.688,222.832 147.688 C 222.467 147.688,222.441 153.382,222.806 153.516 C 223.028 153.598,223.318 157.688,223.507 163.439 C 223.564 165.149,224.071 165.511,225.689 164.993 C 226.264 164.809,226.879 164.622,227.057 164.578 C 227.411 164.491,227.792 163.006,227.461 163.006 C 227.348 163.006,227.320 161.361,227.397 159.351 C 227.501 156.657,227.451 155.750,227.208 155.900 C 226.966 156.049,226.879 154.694,226.879 150.786 L 226.879 145.469 226.142 145.133 C 225.738 144.949,225.380 144.808,225.348 144.821 C 225.315 144.833,225.159 144.887,225.000 144.940 M186.793 145.520 C 186.070 146.026,186.104 148.502,186.840 148.914 C 187.395 149.224,188.642 148.981,189.125 148.468 C 189.482 148.088,189.584 145.926,189.234 146.143 C 189.115 146.216,189.017 146.152,189.017 145.999 C 189.017 145.458,187.384 145.106,186.793 145.520 M104.857 146.253 C 104.348 146.554,104.062 166.238,104.568 166.132 C 104.678 166.109,105.127 166.191,105.566 166.314 C 106.126 166.471,106.579 166.396,107.093 166.059 L 107.824 165.580 107.803 159.596 C 107.792 156.305,107.787 153.493,107.793 153.346 C 107.809 152.930,109.249 154.387,109.249 154.819 C 109.249 155.030,109.351 155.202,109.477 155.202 C 109.602 155.202,110.280 155.723,110.983 156.358 C 112.547 157.774,112.986 157.792,114.413 156.503 C 115.029 155.947,115.679 155.491,115.859 155.491 C 116.038 155.491,116.185 155.251,116.185 154.958 C 116.185 154.664,116.438 154.132,116.748 153.775 C 117.057 153.418,117.373 152.975,117.448 152.791 C 117.970 151.524,118.205 153.854,118.137 159.614 C 118.070 165.388,118.105 165.917,118.569 166.064 C 118.848 166.152,119.075 166.345,119.075 166.493 C 119.075 167.051,119.967 166.731,120.778 165.883 C 121.348 165.287,121.664 165.123,121.757 165.377 C 121.833 165.583,121.878 161.943,121.858 157.287 C 121.838 152.632,121.745 149.121,121.652 149.484 C 121.528 149.968,121.424 149.733,121.261 148.609 C 121.139 147.764,121.115 146.996,121.209 146.903 C 121.501 146.611,120.412 145.973,119.605 145.963 C 118.535 145.950,117.919 146.229,117.919 146.724 C 117.919 146.955,117.791 147.064,117.633 146.967 C 117.476 146.870,117.408 146.960,117.482 147.167 C 117.637 147.602,115.188 150.352,114.901 150.065 C 114.796 149.959,114.779 150.064,114.865 150.298 C 115.062 150.836,113.293 152.890,112.632 152.890 C 112.361 152.890,112.139 152.782,112.139 152.649 C 112.139 152.517,111.752 152.029,111.280 151.566 C 110.807 151.102,110.417 150.560,110.413 150.361 C 110.408 150.163,110.283 150.000,110.135 150.000 C 109.987 150.000,109.790 149.761,109.697 149.469 C 109.128 147.677,105.984 145.588,104.857 146.253 M198.266 150.057 C 198.266 150.190,197.889 150.269,197.428 150.234 C 196.967 150.199,196.378 150.346,196.120 150.560 C 195.862 150.774,195.573 150.872,195.479 150.777 C 195.384 150.683,195.118 150.794,194.887 151.025 C 194.656 151.256,194.209 151.445,193.893 151.445 C 193.567 151.445,193.399 151.576,193.505 151.747 C 193.608 151.913,193.485 152.363,193.233 152.748 C 192.981 153.133,192.775 153.702,192.775 154.012 C 192.775 154.322,192.612 154.642,192.413 154.722 C 192.124 154.839,192.124 154.872,192.413 154.890 C 192.861 154.919,192.933 159.249,192.486 159.249 C 192.327 159.249,192.197 159.444,192.197 159.682 C 192.197 159.921,192.327 160.116,192.486 160.116 C 192.645 160.116,192.775 160.588,192.775 161.165 C 192.775 163.904,194.910 165.294,199.233 165.368 C 202.017 165.415,202.071 165.427,200.289 165.607 C 198.465 165.791,198.492 165.798,201.228 165.846 C 202.948 165.877,204.046 165.783,204.046 165.607 C 204.046 165.448,204.389 165.318,204.808 165.318 C 206.202 165.318,207.896 164.628,208.854 163.670 L 209.801 162.723 209.886 157.662 C 209.933 154.878,209.906 152.599,209.827 152.598 C 209.747 152.597,209.226 152.164,208.669 151.635 C 208.111 151.107,207.461 150.656,207.224 150.632 C 205.465 150.462,204.176 150.211,204.050 150.015 C 203.852 149.708,198.266 149.748,198.266 150.057 M236.272 150.000 C 236.386 150.185,235.423 150.289,233.589 150.289 C 229.963 150.289,230.040 150.160,230.059 156.169 C 230.074 161.198,230.508 164.740,231.109 164.740 C 231.326 164.740,231.503 164.870,231.503 165.029 C 231.503 165.563,232.285 165.324,233.053 164.556 C 233.815 163.795,233.815 163.791,233.815 159.044 C 233.815 154.064,233.845 153.936,235.197 153.213 C 236.049 152.757,242.109 152.844,242.584 153.319 C 242.771 153.506,243.069 153.611,243.246 153.552 C 243.968 153.311,244.509 156.230,244.509 160.370 C 244.509 162.791,244.626 164.489,244.802 164.598 C 245.419 164.979,246.845 164.817,247.205 164.324 C 247.608 163.774,247.712 154.841,247.320 154.449 C 247.204 154.333,247.110 154.000,247.110 153.709 C 247.110 153.073,244.978 150.867,244.364 150.867 C 244.126 150.867,243.931 150.737,243.931 150.578 C 243.931 150.419,243.475 150.289,242.919 150.289 C 242.363 150.289,241.908 150.159,241.908 150.000 C 241.908 149.826,240.746 149.711,239.000 149.711 C 237.136 149.711,236.157 149.815,236.272 150.000 M251.179 149.928 C 251.166 150.126,250.975 150.289,250.753 150.289 C 250.090 150.289,250.003 150.964,249.938 156.599 L 249.875 161.994 249.711 156.647 L 249.547 151.301 249.484 157.315 C 249.450 160.623,249.524 163.266,249.650 163.188 C 249.775 163.111,250.046 163.428,250.252 163.894 C 250.458 164.359,250.800 164.740,251.012 164.740 C 251.224 164.740,251.473 164.902,251.566 165.101 C 251.700 165.390,251.768 165.390,251.903 165.101 C 251.995 164.902,252.241 164.740,252.447 164.740 C 253.521 164.740,253.782 163.439,253.742 158.301 L 253.703 153.324 254.959 153.128 C 255.649 153.021,257.555 152.923,259.194 152.912 C 263.579 152.880,263.463 152.728,263.346 158.310 C 263.281 161.435,263.346 162.719,263.563 162.585 C 263.846 162.410,263.900 162.546,263.988 163.656 C 264.004 163.855,264.440 164.315,264.957 164.678 C 266.949 166.079,267.947 163.043,267.386 157.286 C 267.222 155.601,267.152 154.118,267.231 153.990 C 267.310 153.862,267.237 153.757,267.069 153.757 C 266.901 153.757,266.763 153.572,266.763 153.346 C 266.763 152.735,265.137 151.223,263.842 150.629 C 263.217 150.342,262.773 150.040,262.856 149.957 C 262.940 149.874,261.192 149.806,258.974 149.807 C 256.755 149.808,255.007 149.917,255.088 150.049 C 255.170 150.181,254.394 150.289,253.365 150.289 C 252.138 150.289,251.443 150.165,251.347 149.928 C 251.231 149.639,251.197 149.639,251.179 149.928 M150.476 150.936 C 150.592 151.124,149.168 151.302,148.472 151.187 C 148.019 151.112,145.376 154.034,145.376 154.611 C 145.376 154.936,145.278 155.202,145.159 155.203 C 145.040 155.203,144.942 156.699,144.942 158.527 C 144.942 160.355,145.034 161.850,145.146 161.850 C 145.258 161.850,145.435 162.305,145.539 162.861 C 145.644 163.418,145.873 163.873,146.049 163.873 C 146.225 163.873,146.644 164.193,146.980 164.584 C 148.023 165.798,152.248 166.250,157.691 165.729 C 159.747 165.532,160.086 165.872,159.421 167.464 C 158.710 169.165,158.126 169.364,153.846 169.364 L 150.018 169.364 148.259 167.600 C 146.582 165.918,146.475 165.858,145.960 166.324 C 144.643 167.515,146.644 172.067,148.338 171.734 C 148.616 171.679,148.844 171.752,148.844 171.897 C 148.844 172.042,149.462 172.184,150.217 172.212 C 150.972 172.240,151.633 172.392,151.686 172.548 C 151.813 172.922,154.335 172.918,154.335 172.543 C 154.335 172.384,154.758 172.254,155.275 172.254 C 159.462 172.252,161.829 170.852,162.430 168.022 C 163.035 165.170,162.686 151.872,161.989 151.223 C 161.384 150.660,150.132 150.379,150.476 150.936 M167.266 150.875 C 166.668 150.980,166.121 151.124,166.051 151.194 C 165.622 151.622,165.282 157.218,165.474 160.690 C 165.592 162.838,165.703 166.111,165.720 167.964 C 165.737 169.816,165.840 171.277,165.948 171.210 C 166.056 171.144,166.227 171.221,166.327 171.383 C 166.426 171.544,166.956 171.676,167.503 171.676 L 168.497 171.676 168.497 168.803 C 168.497 165.316,168.019 165.601,174.053 165.492 C 178.897 165.404,179.592 165.347,180.202 164.986 C 180.361 164.893,180.984 164.657,181.586 164.463 C 182.468 164.178,182.647 164.002,182.506 163.558 C 182.408 163.250,182.467 163.006,182.639 163.006 C 182.809 163.006,182.948 162.616,182.948 162.139 C 182.948 161.662,183.046 161.272,183.165 161.272 C 183.284 161.272,183.382 159.972,183.382 158.382 C 183.382 156.793,183.284 155.492,183.165 155.492 C 183.046 155.492,182.948 155.036,182.948 154.480 C 182.948 153.923,182.847 153.468,182.725 153.468 C 182.602 153.468,182.256 153.013,181.957 152.457 C 181.650 151.886,181.189 151.445,180.900 151.445 C 180.618 151.445,180.216 151.273,180.006 151.064 C 179.593 150.651,169.405 150.500,167.266 150.875 M186.777 151.058 C 186.502 151.169,186.416 152.875,186.416 158.208 L 186.416 165.212 187.645 165.048 L 188.873 164.884 188.954 158.526 C 189.057 150.536,188.953 150.180,186.777 151.058 M129.986 151.441 C 127.394 151.904,125.145 153.867,125.145 155.667 C 125.145 157.376,126.962 157.286,127.869 155.532 C 129.313 152.740,137.762 152.496,139.164 155.206 C 139.995 156.814,139.842 156.868,134.488 156.851 C 126.271 156.824,122.535 160.327,126.472 164.366 C 127.944 165.876,136.134 166.897,137.915 165.793 C 138.249 165.586,138.951 165.582,140.146 165.779 L 141.890 166.068 142.070 164.866 C 142.517 161.881,142.088 154.827,141.391 153.705 C 140.049 151.547,135.000 150.545,129.986 151.441 M205.521 153.267 C 206.841 154.146,207.458 155.623,206.805 156.344 C 206.197 157.015,197.387 157.260,196.224 156.637 C 194.968 155.965,196.200 153.477,198.073 152.903 C 199.600 152.435,204.641 152.681,205.521 153.267 M158.084 153.608 C 160.314 154.762,160.569 160.820,158.464 162.645 C 157.639 163.360,150.612 163.643,149.427 163.009 C 147.951 162.219,147.648 155.816,149.016 154.305 C 150.127 153.077,156.161 152.614,158.084 153.608 M178.440 153.293 C 180.625 154.206,181.342 160.148,179.514 162.195 C 177.929 163.969,170.851 163.780,169.438 161.926 C 168.480 160.669,168.258 156.297,169.075 154.767 C 169.994 153.044,175.697 152.147,178.440 153.293 M138.316 159.958 C 139.494 160.730,139.272 163.331,138.062 162.928 C 137.875 162.866,137.581 162.955,137.410 163.127 C 137.160 163.377,132.290 163.490,129.263 163.316 C 129.064 163.304,128.642 163.035,128.324 162.717 C 126.949 161.342,128.362 159.345,130.502 159.639 C 131.300 159.748,131.840 159.693,131.966 159.490 C 132.256 159.020,137.472 159.406,138.316 159.958 M206.647 160.133 C 206.647 160.509,206.525 160.652,206.314 160.522 C 206.111 160.396,206.058 160.442,206.180 160.638 C 206.458 161.089,205.313 162.163,204.775 161.957 C 204.533 161.864,204.335 161.932,204.335 162.108 C 204.335 162.320,203.365 162.428,201.445 162.428 C 199.510 162.428,198.555 162.321,198.555 162.105 C 198.555 161.928,198.304 161.848,197.997 161.928 C 197.304 162.109,196.098 160.911,196.339 160.282 C 196.480 159.915,197.331 159.826,201.361 159.754 C 204.030 159.706,206.311 159.638,206.431 159.602 C 206.550 159.567,206.647 159.805,206.647 160.133 M132.590 166.678 C 132.950 166.748,133.470 166.745,133.746 166.673 C 134.022 166.600,133.728 166.544,133.092 166.547 C 132.457 166.550,132.231 166.609,132.590 166.678 M113.247 170.788 C 113.194 170.936,111.175 171.098,108.761 171.148 L 104.372 171.240 104.345 182.873 C 104.330 189.272,104.248 194.689,104.162 194.912 C 104.052 195.200,104.221 195.305,104.749 195.274 C 105.157 195.251,105.491 195.134,105.491 195.014 C 105.491 194.895,105.764 194.798,106.096 194.798 C 106.458 194.798,106.762 194.565,106.853 194.220 C 106.936 193.902,107.125 193.642,107.272 193.642 C 107.427 193.642,107.525 191.780,107.503 189.234 C 107.469 185.246,107.512 184.835,107.953 184.918 C 108.239 184.972,108.361 184.883,108.249 184.701 C 108.144 184.532,108.196 184.393,108.364 184.393 C 108.533 184.393,108.671 184.537,108.671 184.713 C 108.671 184.938,109.951 185.003,112.961 184.930 C 117.384 184.823,118.460 185.054,118.086 186.029 C 118.004 186.242,118.072 186.416,118.238 186.416 C 118.436 186.416,118.506 187.931,118.445 190.896 L 118.353 195.377 119.372 195.376 C 119.933 195.376,120.664 195.185,120.996 194.952 C 121.328 194.720,121.701 194.622,121.824 194.736 C 121.946 194.849,121.947 194.552,121.825 194.075 C 121.703 193.598,121.633 193.078,121.670 192.919 C 121.920 191.822,121.935 185.178,121.686 185.549 C 121.393 185.988,121.236 185.461,121.366 184.465 C 121.392 184.267,121.292 184.104,121.145 184.104 C 120.661 184.104,120.557 182.929,120.944 181.845 C 121.153 181.259,121.468 180.813,121.645 180.853 C 121.865 180.902,121.965 179.920,121.965 177.729 C 121.965 175.802,121.857 174.599,121.693 174.701 C 121.543 174.793,121.206 174.417,120.944 173.864 C 120.682 173.311,120.316 172.737,120.132 172.587 C 119.102 171.752,117.613 171.177,116.476 171.177 C 115.774 171.177,115.150 171.029,115.090 170.849 C 114.959 170.456,113.384 170.405,113.247 170.788 M257.501 172.126 C 257.262 172.414,257.042 173.642,256.947 175.213 C 256.809 177.501,256.710 177.874,256.140 178.252 C 255.298 178.811,255.317 179.580,256.192 180.407 C 256.828 181.009,256.932 181.480,257.333 185.575 C 258.044 192.843,258.486 193.353,264.077 193.353 C 267.642 193.353,269.653 192.563,269.653 191.164 C 269.653 190.937,269.757 190.751,269.884 190.751 C 270.871 190.751,270.834 187.724,269.843 187.458 C 268.841 187.190,268.792 187.223,268.227 188.540 C 267.569 190.075,266.535 190.930,265.033 191.184 C 263.782 191.396,262.615 191.150,262.874 190.731 C 262.965 190.583,262.902 190.462,262.734 190.462 C 262.565 190.462,262.428 190.592,262.428 190.751 C 262.428 191.239,261.937 191.076,260.980 190.271 C 260.314 189.711,260.101 189.321,260.194 188.835 C 260.264 188.464,260.201 188.242,260.050 188.335 C 259.885 188.437,259.817 187.018,259.875 184.703 C 259.991 180.122,259.758 180.357,264.189 180.351 C 267.065 180.347,267.608 180.272,268.019 179.818 C 269.161 178.556,268.573 178.325,264.210 178.319 C 259.967 178.314,260.043 178.365,260.164 175.641 C 260.217 174.439,260.209 173.507,260.147 173.570 C 260.086 173.633,259.825 173.265,259.569 172.752 C 259.042 171.697,258.095 171.410,257.501 172.126 M159.538 173.121 C 159.058 173.601,158.960 174.085,158.960 175.964 C 158.960 178.115,158.916 178.267,158.092 179.001 C 156.963 180.007,157.075 181.091,158.356 181.549 C 158.507 181.603,158.703 183.682,158.792 186.168 C 158.881 188.654,159.043 190.930,159.152 191.226 C 159.407 191.915,161.392 193.931,161.816 193.931 C 161.993 193.931,162.139 194.033,162.139 194.158 C 162.139 194.465,162.917 194.560,165.318 194.545 C 167.993 194.528,169.364 194.405,169.364 194.181 C 169.364 194.009,170.315 193.623,170.950 193.536 C 171.752 193.427,172.632 189.650,172.121 188.512 C 171.580 187.309,170.737 187.759,169.691 189.811 C 168.883 191.393,168.870 191.399,165.590 191.411 C 162.645 191.421,161.655 191.098,161.986 190.235 C 162.076 190.002,161.984 189.613,161.783 189.371 C 161.551 189.091,161.379 187.716,161.312 185.604 C 161.172 181.200,161.139 181.229,166.252 181.220 C 170.388 181.213,171.011 180.828,169.752 179.053 L 169.220 178.302 165.318 178.382 L 161.416 178.462 161.463 175.877 C 161.501 173.770,161.421 173.225,161.030 172.927 C 160.376 172.430,160.207 172.452,159.538 173.121 M114.954 174.198 C 115.011 174.367,115.320 174.436,115.642 174.352 C 116.305 174.179,118.532 174.820,118.854 175.277 C 119.361 175.996,118.737 179.934,117.999 180.672 C 117.775 180.895,116.063 180.982,112.620 180.946 C 109.278 180.910,107.504 180.997,107.377 181.202 C 107.272 181.373,107.077 181.445,106.944 181.363 C 106.641 181.176,106.912 180.058,107.259 180.058 C 107.400 180.058,107.514 179.790,107.514 179.463 C 107.514 179.135,107.384 178.948,107.225 179.046 C 106.885 179.257,106.826 174.899,107.162 174.370 C 107.575 173.720,114.742 173.562,114.954 174.198 M243.497 177.746 C 243.610 177.929,242.849 178.036,241.419 178.039 C 238.237 178.045,238.336 177.907,238.412 182.219 C 238.449 184.334,238.354 186.026,238.187 186.227 C 238.002 186.451,237.982 187.709,238.132 189.747 C 238.260 191.492,238.309 193.017,238.241 193.136 C 238.172 193.255,238.319 193.353,238.567 193.353 C 238.815 193.353,239.017 193.483,239.017 193.642 C 239.017 194.103,240.665 193.976,241.164 193.476 C 241.414 193.227,241.618 192.771,241.618 192.465 C 241.618 192.158,241.759 191.908,241.931 191.908 C 242.148 191.908,242.215 190.348,242.148 186.860 C 242.042 181.273,242.185 180.858,244.053 181.327 C 244.488 181.436,244.798 181.392,244.798 181.219 C 244.798 181.057,245.131 180.925,245.537 180.925 C 245.981 180.925,246.202 181.047,246.089 181.229 C 245.967 181.427,246.351 181.509,247.196 181.465 C 249.458 181.348,249.552 181.591,249.657 187.833 C 249.759 193.809,249.798 193.931,251.612 193.931 C 252.800 193.931,252.872 193.882,253.020 192.991 C 253.250 191.607,253.355 182.658,253.141 182.659 C 253.040 182.659,252.888 182.366,252.803 182.009 C 252.359 180.142,251.759 179.055,251.042 178.816 C 250.628 178.677,250.289 178.445,250.289 178.300 C 250.289 178.154,249.826 178.035,249.260 178.035 C 248.648 178.035,248.304 177.918,248.410 177.746 C 248.524 177.561,247.637 177.457,245.954 177.457 C 244.271 177.457,243.383 177.561,243.497 177.746 M202.444 178.343 C 202.340 178.513,202.072 178.582,201.849 178.497 C 201.513 178.368,201.445 179.163,201.445 183.246 C 201.445 186.703,201.349 188.150,201.118 188.150 C 200.906 188.150,200.843 188.537,200.938 189.250 C 201.113 190.549,200.688 191.226,199.783 191.095 C 199.426 191.043,199.133 191.139,199.133 191.309 C 199.133 191.497,198.396 191.618,197.254 191.618 C 196.195 191.618,195.376 191.493,195.376 191.329 C 195.376 191.171,195.116 191.040,194.798 191.040 C 194.480 191.040,194.220 190.941,194.220 190.820 C 194.220 190.699,193.927 190.471,193.570 190.314 C 193.190 190.147,192.844 189.669,192.737 189.162 C 192.440 187.754,192.462 185.549,192.775 185.549 C 192.948 185.549,193.064 184.393,193.064 182.659 C 193.064 181.069,192.949 179.769,192.808 179.769 C 192.668 179.769,192.485 179.509,192.402 179.191 C 192.310 178.840,192.008 178.613,191.632 178.613 C 190.476 178.613,190.215 179.966,190.390 185.032 C 190.506 188.369,190.459 189.595,190.217 189.595 C 190.034 189.595,189.884 189.790,189.884 190.029 C 189.884 190.267,189.994 190.462,190.127 190.462 C 190.467 190.462,191.083 191.894,190.883 192.218 C 190.792 192.365,190.920 192.486,191.168 192.486 C 191.441 192.486,191.620 192.741,191.623 193.136 C 191.626 193.553,191.707 193.660,191.851 193.435 C 192.023 193.163,192.260 193.180,192.891 193.507 C 194.409 194.294,203.346 194.109,203.819 193.280 C 205.126 190.993,203.765 176.207,202.444 178.343 M224.422 178.337 C 224.263 178.501,223.695 179.013,223.160 179.474 C 221.791 180.656,221.437 184.393,222.693 184.393 C 223.249 184.393,223.245 185.384,222.688 185.941 C 222.449 186.180,222.254 186.514,222.254 186.685 C 222.254 186.855,222.157 186.994,222.038 186.994 C 221.665 186.994,221.795 190.580,222.182 190.989 C 222.381 191.199,222.543 191.590,222.543 191.858 C 222.543 193.328,224.821 193.931,230.379 193.931 C 235.796 193.931,236.416 193.799,236.416 192.651 C 236.416 192.401,236.563 192.197,236.742 192.197 C 237.236 192.197,236.974 184.091,236.462 183.551 C 236.239 183.316,236.122 182.735,236.187 182.179 C 236.249 181.648,236.185 181.214,236.045 181.214 C 235.905 181.214,235.840 181.063,235.902 180.878 C 235.999 180.587,235.012 179.471,233.744 178.438 C 233.228 178.018,224.821 177.927,224.422 178.337 M177.564 179.011 C 175.122 179.803,173.993 181.160,173.990 183.309 C 173.988 185.338,175.045 185.300,176.012 183.237 C 176.494 182.208,176.861 181.785,177.289 181.768 C 177.906 181.743,183.824 181.751,184.130 181.777 C 184.393 181.800,184.971 183.198,184.971 183.812 C 184.971 184.659,184.578 184.754,180.819 184.813 C 175.285 184.902,173.827 185.922,174.021 189.571 C 174.078 190.642,173.980 191.158,173.684 191.345 C 173.395 191.528,173.378 191.611,173.627 191.614 C 173.826 191.617,173.991 191.781,173.995 191.980 C 174.001 192.373,176.052 193.931,176.564 193.931 C 176.737 193.931,176.879 194.028,176.879 194.147 C 176.879 194.382,178.063 194.501,180.347 194.497 C 183.223 194.492,184.104 194.371,184.104 193.983 C 184.104 193.729,184.304 193.666,184.707 193.794 C 185.039 193.899,185.754 193.902,186.297 193.800 L 187.283 193.615 187.283 187.906 L 187.283 182.197 186.498 180.986 C 185.134 178.882,180.869 177.939,177.564 179.011 M206.602 181.864 C 206.567 184.391,206.512 184.793,206.358 183.671 C 206.204 182.547,206.156 182.901,206.144 185.260 C 206.133 187.166,206.213 188.026,206.358 187.572 C 206.507 187.107,206.600 187.964,206.619 189.977 C 206.651 193.526,206.922 194.156,208.166 193.569 C 208.975 193.187,209.249 191.047,209.249 185.092 L 209.249 182.123 210.187 181.655 C 210.836 181.331,211.470 181.245,212.247 181.377 C 213.034 181.510,213.309 181.471,213.170 181.245 C 213.036 181.028,213.403 180.925,214.306 180.925 C 215.040 180.925,215.568 181.043,215.479 181.187 C 215.390 181.331,215.580 181.380,215.902 181.296 C 216.548 181.127,217.919 182.368,217.919 183.121 C 217.919 183.358,218.251 183.884,218.656 184.289 L 219.393 185.026 219.961 184.372 C 220.575 183.664,220.509 182.351,219.789 180.924 C 218.801 178.969,217.526 178.613,211.518 178.613 L 206.647 178.613 206.602 181.864 M128.324 179.227 C 128.324 179.432,128.013 179.490,127.483 179.384 C 126.870 179.261,126.594 179.341,126.464 179.678 C 126.367 179.932,126.211 180.065,126.119 179.972 C 125.848 179.702,124.986 180.662,124.019 182.310 C 122.721 184.523,122.887 191.728,124.270 193.200 C 124.592 193.543,124.855 193.978,124.855 194.166 C 124.855 194.354,124.993 194.509,125.162 194.509 C 125.330 194.509,125.373 194.346,125.256 194.147 C 125.140 193.949,125.295 193.996,125.601 194.253 C 126.378 194.907,133.219 195.027,134.521 194.410 C 135.007 194.180,135.746 193.835,136.162 193.643 C 136.579 193.451,136.904 193.080,136.885 192.818 C 136.866 192.556,136.999 192.369,137.181 192.403 C 137.378 192.440,137.452 192.234,137.364 191.896 C 137.282 191.583,137.381 191.126,137.584 190.882 C 137.863 190.546,137.871 190.357,137.618 190.103 C 137.209 189.694,137.169 186.705,137.572 186.705 C 137.731 186.705,137.861 186.120,137.861 185.405 C 137.861 184.689,137.731 184.104,137.572 184.104 C 137.413 184.104,137.283 183.616,137.283 183.020 C 137.283 181.915,135.788 179.769,135.018 179.769 C 134.833 179.769,134.682 179.657,134.682 179.520 C 134.682 179.383,134.357 179.333,133.960 179.409 C 133.538 179.490,133.237 179.413,133.237 179.224 C 133.237 179.012,132.396 178.902,130.780 178.902 C 129.153 178.902,128.324 179.012,128.324 179.227 M144.336 179.236 C 144.245 179.383,143.937 179.429,143.652 179.338 C 143.323 179.234,143.064 179.351,142.946 179.657 C 142.844 179.923,142.680 180.059,142.580 179.960 C 142.398 179.777,141.591 180.578,140.870 181.657 C 140.370 182.407,140.272 184.942,140.712 185.764 C 141.651 187.519,142.873 187.984,146.965 188.145 C 151.038 188.305,151.734 188.540,151.734 189.753 C 151.734 190.784,150.339 192.273,149.520 192.117 C 149.148 192.046,148.844 192.100,148.844 192.237 C 148.844 193.376,143.695 192.110,143.046 190.811 C 142.408 189.534,141.859 189.017,141.140 189.017 C 139.770 189.017,140.415 192.303,142.036 193.578 C 142.432 193.889,142.686 194.212,142.601 194.297 C 142.516 194.382,142.618 194.440,142.828 194.426 C 143.609 194.375,145.665 194.881,145.665 195.124 C 145.665 195.468,148.194 195.445,148.314 195.099 C 148.367 194.947,148.898 194.791,149.494 194.751 C 150.090 194.712,150.578 194.576,150.578 194.450 C 150.578 194.323,150.816 194.220,151.108 194.220 C 151.923 194.220,153.721 192.248,153.932 191.123 C 154.663 187.228,152.818 185.845,146.884 185.840 C 143.964 185.838,142.775 185.311,142.775 184.019 C 142.775 180.976,150.323 180.557,151.801 183.518 C 152.307 184.532,153.255 185.115,153.958 184.845 C 154.367 184.688,154.382 182.085,153.974 182.082 C 153.855 182.082,153.757 181.921,153.757 181.726 C 153.757 181.170,151.586 179.325,151.055 179.429 C 150.793 179.480,150.578 179.415,150.578 179.284 C 150.578 178.953,144.540 178.907,144.336 179.236 M231.586 181.239 C 232.323 181.574,233.412 183.158,233.112 183.458 C 232.816 183.754,232.081 183.785,232.081 183.500 C 232.081 183.356,230.780 183.237,229.191 183.237 C 227.457 183.237,226.301 183.353,226.301 183.526 C 226.301 183.685,225.910 183.815,225.434 183.815 C 224.855 183.815,224.566 183.671,224.566 183.382 C 224.566 183.143,224.697 182.948,224.855 182.948 C 225.014 182.948,225.145 182.756,225.145 182.522 C 225.145 181.928,226.653 181.209,227.458 181.419 C 227.921 181.541,228.062 181.492,227.918 181.259 C 227.646 180.818,230.627 180.801,231.586 181.239 M133.527 182.081 C 134.981 182.859,135.674 185.018,134.647 185.568 C 134.182 185.817,134.085 185.814,134.244 185.557 C 134.402 185.301,133.374 185.241,130.088 185.311 L 125.722 185.405 125.722 184.497 C 125.723 182.094,130.682 180.559,133.527 182.081 M260.205 183.092 C 260.207 184.046,260.261 184.402,260.325 183.882 C 260.389 183.363,260.388 182.582,260.322 182.148 C 260.256 181.714,260.204 182.139,260.205 183.092 M232.655 187.136 C 233.748 187.812,233.025 190.462,231.747 190.462 C 231.454 190.462,231.214 190.592,231.214 190.751 C 231.214 190.921,230.202 191.040,228.757 191.040 C 227.406 191.040,226.301 190.919,226.301 190.772 C 226.301 190.624,226.028 190.461,225.695 190.410 C 224.989 190.303,224.642 187.820,225.262 187.306 C 225.861 186.808,231.900 186.670,232.655 187.136 M184.204 187.523 C 184.468 187.815,184.599 188.137,184.497 188.239 C 184.395 188.341,184.465 188.611,184.653 188.838 C 185.056 189.323,184.809 190.576,184.212 191.070 C 183.658 191.530,177.309 191.518,176.752 191.056 C 175.596 190.096,176.662 187.008,178.025 187.364 C 178.348 187.449,178.613 187.400,178.613 187.256 C 178.613 186.708,183.686 186.950,184.204 187.523 M135.271 188.623 C 135.813 189.166,134.191 191.885,133.559 191.494 C 133.415 191.405,133.232 191.504,133.152 191.713 C 133.045 191.990,132.527 192.058,131.242 191.966 C 130.049 191.879,129.331 191.960,129.023 192.215 C 128.665 192.513,128.522 192.517,128.347 192.235 C 128.226 192.038,128.008 191.905,127.864 191.938 C 126.289 192.305,124.909 188.972,126.370 188.329 C 127.066 188.023,134.931 188.282,135.271 188.623 M255.694 196.935 C 255.644 197.086,254.809 197.180,253.839 197.145 C 252.869 197.110,252.000 197.202,251.909 197.350 C 251.815 197.502,248.949 197.615,245.277 197.610 C 241.720 197.606,238.638 197.710,238.428 197.840 C 238.217 197.970,234.494 198.068,230.153 198.059 C 225.617 198.049,222.327 198.150,222.419 198.298 C 222.506 198.439,223.147 198.555,223.844 198.555 C 224.540 198.555,225.196 198.693,225.300 198.862 C 225.557 199.278,224.554 200.346,224.079 200.164 C 223.870 200.084,223.699 200.200,223.699 200.423 C 223.699 200.928,222.798 201.236,222.103 200.969 C 221.744 200.831,221.647 200.874,221.790 201.107 C 222.001 201.448,221.679 201.556,220.737 201.460 C 220.459 201.432,220.231 201.534,220.231 201.687 C 220.231 202.300,214.864 202.524,213.574 201.965 C 213.171 201.791,212.520 201.216,212.129 200.687 C 211.737 200.159,211.263 199.723,211.076 199.719 C 210.888 199.715,210.531 199.507,210.281 199.257 C 210.031 199.007,209.822 198.909,209.817 199.040 C 209.812 199.171,209.620 199.029,209.391 198.726 C 208.995 198.203,208.663 198.184,203.041 198.365 C 199.142 198.491,197.110 198.457,197.110 198.267 C 197.110 198.107,196.525 197.977,195.809 197.977 C 195.094 197.977,194.509 198.093,194.509 198.234 C 194.509 198.565,192.497 198.807,192.306 198.499 C 192.001 198.005,188.177 198.238,187.645 198.784 C 187.092 199.349,186.804 200.867,187.249 200.867 C 187.402 200.867,187.607 201.236,187.706 201.687 C 187.880 202.479,193.577 208.671,194.132 208.671 C 194.598 208.671,195.417 210.397,195.230 210.986 C 195.126 211.315,195.180 211.561,195.356 211.561 C 195.526 211.561,195.665 211.886,195.665 212.283 C 195.665 212.681,195.526 213.006,195.356 213.006 C 195.182 213.006,195.126 213.251,195.227 213.570 C 195.393 214.093,193.197 216.703,192.867 216.374 C 192.805 216.312,192.383 216.608,191.929 217.032 C 191.475 217.456,190.569 218.044,189.916 218.338 C 189.263 218.633,188.728 219.053,188.728 219.273 C 188.728 219.492,188.533 219.746,188.295 219.838 C 188.056 219.929,187.861 220.185,187.861 220.407 C 187.861 220.628,187.762 220.809,187.640 220.809 C 187.479 220.809,187.653 225.069,187.838 225.650 C 187.851 225.690,188.056 225.723,188.295 225.723 C 188.533 225.723,188.728 225.820,188.728 225.939 C 188.728 226.059,189.639 226.156,190.751 226.156 C 192.177 226.156,192.775 226.049,192.775 225.795 C 192.775 225.596,192.905 225.434,193.064 225.434 C 193.223 225.434,193.353 225.238,193.353 225.000 C 193.353 224.762,193.483 224.566,193.642 224.566 C 194.096 224.566,193.980 223.763,193.433 223.125 C 192.900 222.503,192.197 222.346,192.197 222.849 C 192.197 223.018,192.068 223.076,191.911 222.979 C 191.754 222.882,191.693 222.980,191.776 223.197 C 192.084 223.998,190.532 224.461,189.881 223.762 C 188.842 222.647,189.243 221.424,191.037 220.231 C 191.396 219.993,191.872 219.622,192.095 219.408 C 192.318 219.194,192.721 219.104,192.990 219.207 C 193.259 219.310,193.392 219.307,193.285 219.201 C 193.007 218.922,193.869 218.136,194.217 218.351 C 194.378 218.450,194.509 218.393,194.509 218.225 C 194.509 218.057,194.704 217.919,194.942 217.919 C 195.181 217.919,195.376 217.783,195.376 217.617 C 195.376 217.451,195.547 217.354,195.757 217.401 C 196.410 217.546,199.089 214.546,199.297 213.435 C 199.401 212.884,199.584 212.494,199.705 212.569 C 199.827 212.644,199.912 212.187,199.895 211.555 C 199.879 210.922,199.766 210.405,199.644 210.405 C 199.522 210.405,199.422 210.190,199.422 209.927 C 199.422 209.664,198.934 208.610,198.338 207.584 C 197.742 206.559,197.085 205.409,196.877 205.028 C 196.670 204.647,196.378 204.335,196.229 204.335 C 195.831 204.335,194.220 202.019,194.220 201.447 C 194.220 200.800,196.216 200.204,197.546 200.453 C 198.207 200.577,198.555 200.532,198.555 200.321 C 198.555 200.145,199.010 200.000,199.566 200.000 C 200.123 200.000,200.578 200.140,200.578 200.310 C 200.578 200.500,201.138 200.591,202.020 200.544 C 203.302 200.476,203.552 200.565,204.260 201.336 C 204.699 201.813,205.578 202.403,206.214 202.645 C 206.850 202.888,207.344 203.218,207.312 203.379 C 207.280 203.541,207.570 203.611,207.962 203.536 C 208.372 203.458,208.671 203.537,208.671 203.724 C 208.671 203.901,209.003 204.046,209.410 204.046 C 209.890 204.046,210.078 204.162,209.946 204.375 C 209.801 204.610,210.034 204.650,210.756 204.514 C 211.742 204.329,212.696 204.838,212.233 205.301 C 212.128 205.406,212.179 205.491,212.346 205.491 C 212.794 205.491,212.992 206.553,212.721 207.499 C 212.327 208.873,210.533 210.321,209.434 210.151 C 209.108 210.101,208.973 210.192,209.090 210.381 C 209.216 210.586,208.877 210.694,208.110 210.694 C 207.444 210.694,206.936 210.555,206.936 210.373 C 206.936 210.176,206.660 210.122,206.218 210.233 C 205.290 210.466,204.234 209.552,204.811 209.014 C 205.293 208.563,206.274 208.574,206.444 209.032 C 206.519 209.234,206.720 209.036,206.900 208.584 C 207.446 207.213,205.974 204.624,204.648 204.624 C 204.344 204.624,204.029 204.462,203.949 204.263 C 203.832 203.974,203.798 203.974,203.780 204.263 C 203.767 204.462,203.432 204.624,203.035 204.624 C 202.637 204.624,202.312 204.723,202.312 204.844 C 202.312 204.965,201.980 205.422,201.575 205.859 C 201.169 206.296,200.911 206.774,201.001 206.920 C 201.092 207.066,201.033 207.267,200.872 207.367 C 200.710 207.467,200.578 208.053,200.578 208.671 C 200.578 209.288,200.710 209.874,200.872 209.974 C 201.033 210.074,201.099 210.263,201.018 210.394 C 200.937 210.526,201.065 210.708,201.302 210.799 C 201.540 210.890,201.734 211.164,201.734 211.407 C 201.734 211.651,201.969 211.850,202.257 211.850 C 202.544 211.850,203.027 212.030,203.329 212.251 C 203.631 212.472,204.044 212.588,204.248 212.510 C 204.452 212.432,204.687 212.544,204.770 212.759 C 204.934 213.185,209.827 213.358,209.827 212.938 C 209.827 212.816,210.217 212.717,210.694 212.717 C 211.171 212.717,211.561 212.573,211.561 212.397 C 211.561 212.221,211.731 212.142,211.940 212.222 C 212.148 212.302,212.571 211.991,212.879 211.532 C 213.187 211.072,213.610 210.695,213.818 210.694 C 214.026 210.694,214.116 210.564,214.017 210.405 C 213.919 210.246,213.954 210.116,214.095 210.116 C 214.236 210.116,214.293 209.725,214.223 209.249 C 214.154 208.772,214.209 208.381,214.346 208.381 C 214.483 208.381,214.632 207.506,214.677 206.436 C 214.775 204.086,214.947 203.885,216.778 203.963 C 217.657 204.000,218.208 203.902,218.208 203.708 C 218.208 203.506,218.626 203.448,219.364 203.547 C 220.021 203.635,220.451 203.589,220.359 203.441 C 220.200 203.184,220.602 203.065,221.315 203.158 C 221.514 203.183,221.676 203.069,221.676 202.903 C 221.676 202.737,222.059 202.601,222.526 202.601 C 222.994 202.601,223.449 202.483,223.538 202.339 C 223.627 202.195,223.960 202.145,224.278 202.228 C 224.601 202.313,224.855 202.237,224.855 202.057 C 224.855 201.879,225.040 201.734,225.266 201.734 C 225.491 201.734,226.109 201.517,226.638 201.252 C 228.447 200.345,228.590 200.299,229.035 200.469 C 229.280 200.563,229.480 200.496,229.480 200.320 C 229.480 200.114,230.255 200.000,231.647 200.000 C 232.840 200.000,233.815 200.121,233.815 200.270 C 233.815 200.418,234.063 200.618,234.365 200.714 C 235.630 201.115,236.206 203.726,235.276 204.841 C 234.577 205.679,234.393 205.661,234.393 204.752 C 234.393 204.332,234.268 204.089,234.104 204.191 C 233.945 204.289,233.815 204.184,233.815 203.958 C 233.815 203.292,232.664 202.023,232.060 202.023 C 231.754 202.023,231.503 202.164,231.503 202.336 C 231.503 202.508,231.352 202.599,231.168 202.538 C 229.628 202.024,229.271 205.471,230.734 206.728 C 231.157 207.091,231.503 207.543,231.503 207.731 C 231.503 207.920,231.698 207.999,231.936 207.908 C 232.175 207.816,232.370 207.867,232.370 208.020 C 232.370 208.828,235.814 208.241,236.600 207.298 C 237.031 206.781,237.589 206.356,237.839 206.354 C 238.224 206.350,238.231 206.309,237.880 206.087 C 237.549 205.878,237.537 205.738,237.818 205.399 C 238.012 205.165,238.145 204.863,238.115 204.727 C 238.027 204.340,238.473 203.468,238.759 203.468 C 238.901 203.468,239.017 203.750,239.017 204.094 C 239.017 204.439,239.096 204.642,239.193 204.545 C 239.401 204.337,240.160 204.979,240.007 205.233 C 239.949 205.329,240.237 205.344,240.646 205.266 C 241.100 205.179,241.490 205.280,241.645 205.524 C 241.792 205.757,241.901 205.788,241.903 205.597 C 241.906 205.417,242.177 205.199,242.507 205.113 C 242.837 205.027,243.177 204.688,243.262 204.360 C 243.348 204.032,243.534 203.835,243.674 203.922 C 243.815 204.009,243.931 203.726,243.931 203.293 C 243.931 202.859,243.849 202.586,243.749 202.686 C 243.571 202.864,242.504 201.065,242.375 200.370 C 242.339 200.176,242.198 199.915,242.062 199.792 C 241.926 199.668,241.908 199.729,242.023 199.928 C 242.137 200.126,242.107 200.289,241.955 200.289 C 241.721 200.289,241.329 199.641,241.329 199.254 C 241.329 199.187,244.256 199.133,247.832 199.133 C 251.409 199.133,254.335 199.237,254.335 199.364 C 254.335 199.722,258.757 199.669,259.095 199.307 C 259.567 198.803,259.444 197.906,258.815 197.265 C 258.207 196.646,255.873 196.398,255.694 196.935 M211.370 198.432 C 211.368 198.823,220.529 198.620,220.954 198.219 C 221.135 198.049,219.404 197.980,216.307 198.034 C 213.037 198.092,211.371 198.226,211.370 198.432 M136.127 199.166 C 136.127 199.387,135.640 199.428,134.575 199.295 C 133.315 199.137,132.990 199.185,132.850 199.550 C 132.745 199.823,132.326 200.000,131.784 200.000 C 131.290 200.000,130.967 200.123,131.061 200.276 C 131.155 200.428,130.578 201.275,129.778 202.158 C 127.818 204.321,127.791 205.679,129.697 206.145 C 130.055 206.233,130.445 206.154,130.564 205.970 C 130.996 205.302,133.249 203.731,133.528 203.903 C 133.686 204.001,133.817 204.495,133.820 205.003 C 133.825 206.092,134.874 208.049,135.694 208.498 C 136.012 208.673,136.337 208.880,136.416 208.960 C 136.671 209.214,138.728 209.179,138.728 208.920 C 138.728 208.783,138.922 208.671,139.158 208.671 C 139.607 208.671,140.855 206.942,141.164 205.893 C 141.574 204.495,139.313 203.229,138.486 204.395 C 137.930 205.177,138.243 205.738,139.139 205.566 C 139.702 205.459,139.884 205.543,139.884 205.912 C 139.884 207.447,137.028 208.009,135.883 206.700 C 134.358 204.956,136.216 200.280,138.223 200.810 C 138.342 200.841,138.439 200.737,138.439 200.578 C 138.439 200.418,139.204 200.289,140.156 200.289 C 141.101 200.289,141.954 200.419,142.052 200.578 C 142.150 200.737,142.548 200.867,142.936 200.867 C 143.324 200.867,143.642 201.006,143.642 201.176 C 143.642 201.353,143.888 201.406,144.220 201.301 C 144.551 201.195,144.798 201.249,144.798 201.426 C 144.798 201.595,144.941 201.734,145.115 201.734 C 145.462 201.734,147.455 202.618,147.688 202.875 C 147.767 202.963,147.962 203.042,148.121 203.051 C 148.843 203.091,150.000 203.557,150.000 203.808 C 150.000 203.960,150.259 204.003,150.575 203.903 C 151.293 203.675,151.963 204.015,151.437 204.340 C 151.240 204.462,151.681 204.494,152.418 204.411 C 153.183 204.325,153.757 204.379,153.757 204.537 C 153.757 204.689,154.133 204.758,154.592 204.691 C 156.118 204.467,156.830 205.249,157.028 207.364 C 157.222 209.445,158.000 211.218,159.096 212.081 C 159.498 212.397,159.827 212.795,159.827 212.966 C 159.827 213.137,160.022 213.202,160.260 213.110 C 160.499 213.019,160.694 213.096,160.694 213.281 C 160.694 213.466,160.831 213.533,160.999 213.429 C 161.435 213.159,162.775 213.546,162.567 213.881 C 162.467 214.043,162.837 214.162,163.439 214.162 C 164.014 214.162,164.411 214.042,164.321 213.896 C 164.124 213.578,165.755 213.173,166.178 213.435 C 166.341 213.536,166.474 213.495,166.474 213.346 C 166.474 213.096,167.366 212.679,168.064 212.604 C 169.633 212.433,170.993 209.663,170.394 207.858 C 169.299 204.562,165.318 204.818,165.318 208.184 C 165.318 208.902,166.780 209.553,167.004 208.936 C 167.134 208.578,168.129 208.598,168.354 208.962 C 168.834 209.738,167.473 210.998,166.040 211.106 C 165.882 211.117,165.584 211.285,165.379 211.479 C 165.174 211.672,164.654 211.775,164.223 211.707 C 163.792 211.639,162.822 211.505,162.066 211.410 C 161.311 211.314,160.694 211.129,160.694 210.999 C 160.694 210.868,160.440 210.695,160.130 210.614 C 159.324 210.403,158.384 208.708,158.383 207.464 C 158.381 206.265,159.633 204.488,160.299 204.744 C 160.516 204.827,160.694 204.786,160.694 204.653 C 160.694 204.289,164.009 203.432,164.631 203.635 C 165.018 203.761,165.065 203.734,164.795 203.540 C 164.502 203.330,164.583 203.159,165.154 202.785 C 165.559 202.519,166.309 201.843,166.820 201.281 L 167.749 200.261 171.881 200.347 C 174.153 200.395,176.012 200.336,176.012 200.217 C 176.012 200.098,176.532 200.000,177.168 200.000 C 178.164 200.000,178.324 200.087,178.324 200.631 C 178.324 201.653,176.396 205.247,175.408 206.069 C 172.080 208.837,171.871 213.312,174.944 216.025 C 177.042 217.878,177.083 217.907,177.297 217.693 C 177.402 217.588,177.579 217.629,177.689 217.783 C 177.800 217.937,178.524 218.389,179.298 218.786 C 180.072 219.184,180.851 219.736,181.029 220.014 C 181.207 220.293,181.513 220.520,181.709 220.520 C 182.602 220.520,183.152 222.566,182.587 223.784 C 182.048 224.944,179.769 224.700,179.769 223.483 C 179.769 223.040,179.728 223.038,179.312 223.454 C 178.927 223.839,178.908 224.088,179.194 225.040 C 179.838 227.191,183.995 226.013,184.146 223.637 C 184.242 222.135,184.023 221.017,183.539 220.533 C 182.759 219.753,179.980 217.738,179.408 217.537 C 179.129 217.439,178.902 217.225,178.902 217.061 C 178.902 216.897,178.739 216.763,178.540 216.763 C 178.045 216.762,176.760 215.612,176.313 214.770 C 175.946 214.078,176.361 213.523,177.312 213.433 C 177.471 213.419,177.837 213.299,178.126 213.168 C 178.872 212.829,180.706 214.610,180.474 215.448 C 180.347 215.904,180.375 215.944,180.597 215.622 C 180.828 215.286,180.924 215.358,181.081 215.983 C 181.194 216.436,181.476 216.763,181.753 216.763 C 182.015 216.763,182.647 217.218,183.158 217.775 C 183.668 218.331,184.232 218.786,184.411 218.786 C 184.959 218.786,184.607 215.867,183.902 214.560 C 183.549 213.905,183.320 213.287,183.393 213.187 C 183.466 213.087,183.444 213.066,183.343 213.141 C 183.243 213.215,182.372 212.239,181.408 210.973 C 179.132 207.984,178.064 208.010,178.044 211.055 C 178.036 212.212,177.948 212.428,177.481 212.428 C 177.176 212.428,176.876 212.581,176.813 212.769 C 176.492 213.731,175.778 212.709,175.932 211.507 C 176.171 209.634,176.595 209.002,180.001 205.440 C 183.562 201.715,184.104 201.006,184.104 200.071 L 184.104 199.404 173.126 199.432 C 166.544 199.449,162.081 199.571,161.979 199.735 C 161.886 199.886,161.721 199.955,161.613 199.889 C 161.505 199.822,160.571 200.603,159.538 201.624 C 157.689 203.450,156.358 204.188,156.132 203.512 C 156.070 203.327,155.902 203.248,155.759 203.337 C 155.354 203.587,152.013 202.851,152.197 202.553 C 152.289 202.405,152.054 202.366,151.662 202.464 C 150.800 202.681,147.682 201.630,147.182 200.955 C 146.983 200.687,146.821 200.583,146.821 200.725 C 146.821 200.867,146.670 200.832,146.486 200.648 C 146.233 200.395,146.247 200.199,146.544 199.841 C 146.903 199.408,146.603 199.372,142.904 199.404 C 138.298 199.444,137.861 199.416,137.861 199.085 C 137.861 198.952,137.471 198.844,136.994 198.844 C 136.517 198.844,136.127 198.989,136.127 199.166 M113.150 199.711 C 112.640 200.275,112.645 200.289,113.395 200.289 C 113.817 200.289,114.162 200.419,114.162 200.578 C 114.162 200.968,115.234 200.947,115.478 200.553 C 115.585 200.380,115.918 200.303,116.218 200.381 C 116.987 200.582,116.895 200.153,116.051 199.600 C 115.077 198.962,113.783 199.012,113.150 199.711 M119.554 200.217 C 119.480 200.336,120.513 200.435,121.849 200.438 C 123.184 200.440,124.277 200.343,124.277 200.221 C 124.277 199.935,119.730 199.931,119.554 200.217 M165.029 200.846 C 165.029 201.500,163.809 202.538,162.742 202.792 C 162.331 202.890,161.832 203.098,161.633 203.254 C 161.389 203.446,161.122 203.415,160.812 203.158 C 160.314 202.744,161.048 201.851,161.603 202.194 C 161.739 202.278,161.850 202.209,161.850 202.040 C 161.850 201.872,162.045 201.734,162.283 201.734 C 162.522 201.734,162.717 201.628,162.717 201.498 C 162.717 201.274,164.348 200.347,164.812 200.308 C 164.931 200.297,165.029 200.540,165.029 200.846 M208.585 200.644 C 209.029 200.840,209.458 201.081,209.538 201.179 C 209.617 201.278,210.004 201.529,210.398 201.736 C 211.076 202.094,211.083 202.125,210.543 202.315 C 210.031 202.494,209.056 202.175,208.671 201.701 C 208.591 201.603,208.233 201.432,207.876 201.320 C 207.518 201.208,207.225 200.931,207.225 200.703 C 207.225 200.196,207.534 200.183,208.585 200.644 M187.468 204.536 C 187.165 204.839,187.254 211.561,187.561 211.561 C 188.321 211.561,189.595 209.530,189.595 208.318 C 189.595 207.077,187.915 204.089,187.468 204.536 M183.020 205.630 C 182.663 206.185,182.370 206.771,182.370 206.932 C 182.370 207.094,182.253 207.225,182.110 207.225 C 181.967 207.225,181.869 207.745,181.893 208.380 C 181.917 209.015,182.034 209.535,182.153 209.536 C 182.272 209.537,182.370 209.854,182.370 210.241 C 182.370 210.717,182.580 211.009,183.020 211.147 C 183.378 211.258,183.763 211.494,183.875 211.669 C 184.439 212.551,184.719 211.212,184.630 208.061 C 184.526 204.359,184.178 203.833,183.020 205.630 M191.838 209.176 C 188.996 212.383,186.316 218.208,187.683 218.208 C 188.212 218.208,191.102 214.985,192.698 212.615 C 194.277 210.270,193.527 207.270,191.838 209.176 " stroke="none" fill="#f7f4f2" fill-rule="evenodd"></path></g></svg>