<?xml version="1.0" standalone="no"?>
<!DOCTYPE svg PUBLIC "-//W3C//DTD SVG 20010904//EN"
 "http://www.w3.org/TR/2001/REC-SVG-20010904/DTD/svg10.dtd">
<svg version="1.0" xmlns="http://www.w3.org/2000/svg"
 width="921.000000pt" height="665.000000pt" viewBox="0 0 921.000000 665.000000"
 preserveAspectRatio="xMidYMid meet">

<g transform="translate(0.000000,665.000000) scale(0.100000,-0.100000)"
fill="#000000" stroke="none">
<path d="M4668 4933 c7 -3 16 -2 19 1 4 3 -2 6 -13 5 -11 0 -14 -3 -6 -6z"/>
<path d="M4980 4776 c0 -9 30 -14 35 -6 4 6 -3 10 -14 10 -12 0 -21 -2 -21 -4z"/>
<path d="M4430 4667 c8 -8 53 -31 99 -50 47 -20 78 -30 70 -22 -8 8 -52 30
-99 50 -47 20 -78 30 -70 22z"/>
<path d="M4940 4666 c0 -8 4 -17 9 -20 5 -4 7 3 4 14 -6 23 -13 26 -13 6z"/>
<path d="M3972 4644 c-18 -8 -30 -18 -27 -23 6 -11 65 16 65 30 0 5 -1 9 -2 8
-2 0 -18 -7 -36 -15z"/>
<path d="M3706 4540 c-47 -52 -39 -65 12 -19 20 19 39 35 41 37 3 1 0 7 -6 13
-7 7 -22 -3 -47 -31z"/>
<path d="M4798 4520 c27 -28 63 -75 78 -105 34 -65 44 -65 15 -1 -20 46 -115
156 -134 156 -5 0 13 -23 41 -50z"/>
<path d="M4916 4491 c-4 -7 -5 -15 -2 -18 9 -9 19 4 14 18 -4 11 -6 11 -12 0z"/>
<path d="M4339 4223 c-13 -16 -12 -17 4 -4 16 13 21 21 13 21 -2 0 -10 -8 -17
-17z"/>
<path d="M4332 3915 c0 -16 2 -22 5 -12 2 9 2 23 0 30 -3 6 -5 -1 -5 -18z"/>
<path d="M5376 3814 c-5 -14 -4 -15 9 -4 17 14 19 20 6 20 -5 0 -12 -7 -15
-16z"/>
<path d="M3105 3800 c3 -5 11 -10 16 -10 6 0 7 5 4 10 -3 6 -11 10 -16 10 -6
0 -7 -4 -4 -10z"/>
<path d="M3202 3760 c-17 -28 -15 -60 8 -105 12 -22 19 -49 16 -60 -4 -17 8
-25 75 -53 96 -41 123 -37 47 6 -33 18 -75 54 -102 88 -46 55 -56 90 -35 111
6 6 10 16 8 22 -2 6 -10 2 -17 -9z"/>
<path d="M5760 3760 c8 -5 37 -10 63 -10 26 0 64 -7 84 -15 42 -18 62 -20 47
-5 -12 12 -136 40 -179 40 -23 0 -27 -3 -15 -10z"/>
<path d="M5490 3729 c-35 -16 -72 -28 -81 -26 -25 7 -39 -6 -33 -30 6 -20 6
-20 94 10 49 17 87 34 84 38 -2 4 0 10 6 14 12 7 14 25 3 25 -5 0 -37 -14 -73
-31z"/>
<path d="M5688 3753 c7 -3 16 -2 19 1 4 3 -2 6 -13 5 -11 0 -14 -3 -6 -6z"/>
<path d="M2733 3743 c15 -2 37 -2 50 0 12 2 0 4 -28 4 -27 0 -38 -2 -22 -4z"/>
<path d="M3071 3746 c2 -2 15 -9 29 -16 23 -12 24 -12 11 3 -7 10 -20 17 -29
17 -8 0 -13 -2 -11 -4z"/>
<path d="M2985 3721 c-3 -5 -1 -12 5 -16 12 -8 151 -55 159 -55 7 1 -141 79
-151 80 -4 0 -9 -4 -13 -9z"/>
<path d="M4862 3705 c-7 -15 -8 -25 -2 -25 13 0 32 38 21 44 -4 3 -13 -6 -19
-19z"/>
<path d="M2609 3691 c-56 -22 -104 -57 -125 -90 -13 -20 -7 -17 22 11 56 53
124 80 224 88 l85 7 -80 1 c-55 1 -94 -4 -126 -17z"/>
<path d="M2828 3693 c7 -3 16 -2 19 1 4 3 -2 6 -13 5 -11 0 -14 -3 -6 -6z"/>
<path d="M5290 3630 c0 -5 5 -10 11 -10 5 0 7 5 4 10 -3 6 -8 10 -11 10 -2 0
-4 -4 -4 -10z"/>
<path d="M3115 3610 c11 -5 27 -9 35 -9 9 0 8 4 -5 9 -11 5 -27 9 -35 9 -9 0
-8 -4 5 -9z"/>
<path d="M3587 3553 c-38 -20 -88 -38 -112 -41 -54 -6 -43 -22 28 -41 51 -15
72 -10 38 9 -12 6 -21 15 -21 19 0 5 31 21 68 35 42 16 69 32 69 41 0 8 -1 15
-1 14 -1 0 -32 -17 -69 -36z"/>
<path d="M3970 3410 c0 -5 7 -10 16 -10 8 0 12 5 9 10 -3 6 -10 10 -16 10 -5
0 -9 -4 -9 -10z"/>
<path d="M4030 3390 c18 -12 30 -13 30 -2 0 4 -10 9 -22 9 -18 2 -20 0 -8 -7z"/>
<path d="M4620 3351 l-155 -7 225 -2 c1096 -10 1116 -10 860 -3 -463 14 -773
18 -930 12z"/>
<path d="M3790 3340 c-72 -5 -44 -6 115 -7 125 -1 202 2 190 7 -22 10 -159 10
-305 0z"/>
<path d="M5848 3343 c12 -2 30 -2 40 0 9 3 -1 5 -23 4 -22 0 -30 -2 -17 -4z"/>
<path d="M2525 3330 c-3 -5 1 -10 10 -10 9 0 13 5 10 10 -3 6 -8 10 -10 10 -2
0 -7 -4 -10 -10z"/>
<path d="M3193 3333 c26 -2 67 -2 90 0 23 2 2 3 -48 3 -49 0 -68 -1 -42 -3z"/>
<path d="M5143 3185 c0 -44 2 -61 4 -37 2 23 2 59 0 80 -2 20 -4 1 -4 -43z"/>
<path d="M2470 3146 c0 -2 7 -7 16 -10 8 -3 12 -2 9 4 -6 10 -25 14 -25 6z"/>
<path d="M5763 2960 c0 -41 2 -58 4 -37 2 20 2 54 0 75 -2 20 -4 3 -4 -38z"/>
<path d="M4770 2981 c0 -4 11 -6 25 -3 14 2 25 6 25 8 0 2 -11 4 -25 4 -14 0
-25 -4 -25 -9z"/>
<path d="M5221 2884 c0 -11 3 -14 6 -6 3 7 2 16 -1 19 -3 4 -6 -2 -5 -13z"/>
<path d="M4642 2400 c0 -14 2 -19 5 -12 2 6 2 18 0 25 -3 6 -5 1 -5 -13z"/>
<path d="M5150 2400 c0 -5 7 -7 15 -4 8 4 15 8 15 10 0 2 -7 4 -15 4 -8 0 -15
-4 -15 -10z"/>
<path d="M5720 2089 c-52 -5 -112 -7 -132 -4 -20 3 -40 1 -43 -5 -4 -7 51 -10
159 -10 141 0 166 2 166 15 0 17 -4 17 -150 4z"/>
<path d="M4525 2060 c-3 -5 -19 -10 -36 -10 -16 0 -29 -4 -29 -9 0 -5 16 -5
38 0 20 5 71 9 113 9 65 0 79 -3 95 -21 38 -42 180 -95 167 -63 -3 8 -15 14
-27 14 -30 0 -86 37 -86 56 0 13 6 15 27 9 44 -11 45 -11 50 1 2 6 -6 14 -19
18 -39 10 -286 7 -293 -4z"/>
<path d="M5080 1999 c-36 -10 -84 -18 -108 -18 -28 -1 -41 -5 -37 -12 11 -17
215 24 215 43 0 5 -1 7 -2 7 -2 -1 -32 -10 -68 -20z"/>
<path d="M5480 1980 c0 -5 5 -10 11 -10 5 0 7 5 4 10 -3 6 -8 10 -11 10 -2 0
-4 -4 -4 -10z"/>
<path d="M5570 1944 c-17 -9 -20 -14 -9 -14 9 0 22 7 29 15 15 18 13 18 -20
-1z"/>
<path d="M5340 1928 c0 -7 33 -28 43 -28 3 0 3 8 0 18 -4 17 -43 26 -43 10z"/>
<path d="M4440 1895 c13 -14 26 -25 28 -25 3 0 -5 11 -18 25 -13 14 -26 25
-28 25 -3 0 5 -11 18 -25z"/>
<path d="M4753 1753 c9 -2 25 -2 35 0 9 3 1 5 -18 5 -19 0 -27 -2 -17 -5z"/>
<path d="M4439 1662 c-71 -54 -99 -81 -108 -104 -10 -27 3 -88 21 -99 34 -22
98 1 98 35 0 23 -11 25 -31 5 -26 -26 -47 -24 -61 6 -18 39 2 68 77 113 48 29
62 41 50 46 -9 3 -13 10 -10 16 9 14 5 12 -36 -18z"/>
</g>
</svg>
